<svg width="20" height="20" viewBox="0 0 20 20" fill="none" xmlns="http://www.w3.org/2000/svg">
<path fill-rule="evenodd" clip-rule="evenodd" d="M15.6928 4.89245C16.0077 5.20739 16.0077 5.71801 15.6928 6.03295L6.01537 15.7104C5.70043 16.0253 5.18981 16.0253 4.87488 15.7104C4.55994 15.3954 4.55994 14.8848 4.87488 14.5699L14.5523 4.89245C14.8672 4.57752 15.3778 4.57752 15.6928 4.89245Z" fill="#1D1D1F"/>
<path fill-rule="evenodd" clip-rule="evenodd" d="M4.87488 4.89245C5.18981 4.57752 5.70043 4.57752 6.01537 4.89245L15.6928 14.5699C16.0077 14.8848 16.0077 15.3954 15.6928 15.7104C15.3778 16.0253 14.8672 16.0253 14.5523 15.7104L4.87488 6.03295C4.55994 5.71801 4.55994 5.20739 4.87488 4.89245Z" fill="#1D1D1F"/>
</svg>
