<svg width="48" height="48" viewBox="0 0 48 48" fill="none" xmlns="http://www.w3.org/2000/svg">
<ellipse cx="24.2447" cy="14.5991" rx="14.565" ry="14.5991" fill="#E72E2E"/>
<path d="M5.11718 17.5545C4.3731 16.9074 4.15146 15.9763 3.72401 15.1398C3.05909 13.8456 2.44166 12.5198 1.8084 11.1941C1.66592 11.0994 1.57093 10.9573 1.49177 10.7995C1.36512 10.5312 1.2068 10.2629 1.12764 9.97879C1.06432 9.83674 1.17514 9.64735 1.01682 9.52108C0.731857 8.93712 0.621037 8.36894 1.14348 7.86389C1.65008 7.3904 2.20419 7.56401 2.74246 7.86389C3.05909 8.0375 3.39155 8.21111 3.70818 8.36894C6.76366 10.0577 10.0091 11.273 13.3812 12.1252C17.4024 13.1511 21.5028 13.6562 25.6506 13.4984C31.9674 13.2616 37.9992 11.8412 43.6669 9.00025C44.0627 8.79507 44.4584 8.5899 44.8542 8.38472C45.2025 8.19533 45.535 8.02172 45.8833 7.83232C46.4057 7.54823 46.9282 7.45354 47.4031 7.89545C47.878 8.33737 47.8306 8.85821 47.5772 9.39482C47.5139 9.53687 47.4506 9.67891 47.3873 9.82096C47.2923 10.2944 47.1181 10.7521 46.9123 11.1783C46.0891 13.0091 45.1709 14.7768 44.3476 16.5918C44.1893 16.939 43.936 17.2073 43.4927 17.1442C38.9333 17.1757 34.3738 17.16 29.8143 17.16C23.5134 17.16 17.2124 17.16 10.9115 17.16C10.4682 17.16 10.0091 17.1915 9.56583 17.0968C9.42335 17.0495 5.46547 17.4441 5.11718 17.5545Z" fill="#1A1A1A"/>
<path d="M44.8531 8.37109C43.6341 9.38119 42.1776 9.96516 40.7369 10.5649C37.998 11.7013 35.1484 12.4746 32.2512 13.0428C30.6206 13.3585 28.9424 13.4847 27.2643 13.611C25.8236 13.7215 24.383 13.7688 22.9423 13.7372C21.09 13.6899 19.2536 13.4058 17.4013 13.1849C15.1374 12.9165 12.921 12.3484 10.7837 11.6539C8.40899 10.8963 6.05009 10.0599 3.96034 8.67097C3.84951 8.60784 3.78619 8.48157 3.70703 8.38688C5.67014 9.12867 7.63324 9.85468 9.6755 10.3913C15.9131 12.0327 22.2615 12.6325 28.705 12.1274C33.5019 11.7486 38.188 10.8016 42.7317 9.17602C43.4282 8.92349 44.1407 8.6394 44.8531 8.37109Z" fill="#1A1A1A"/>
<path d="M39.7166 22.8814L40.2665 23.968C37.9814 25.0405 34.0694 25.293 28.0271 26.1614C27.0918 26.5241 25.701 26.7868 23.855 26.9495C23.0945 27.3176 21.7638 27.5412 19.8628 27.6203C19.8089 27.8774 18.1761 28.2084 14.9644 28.6133C14.9208 28.821 14.7949 28.9032 14.5866 28.8598L14.2933 28.6284C12.8619 28.8878 10.3427 29.1994 6.73576 29.5633C6.56012 29.4132 6.41278 29.3257 6.29372 29.3009C6.17367 29.6269 5.03978 29.7263 2.89206 29.5992C2.69363 29.5579 2.1261 29.3262 1.18947 28.9041L1.521 28.137L1.42256 27.7913C1.54066 27.2276 2.05637 26.8911 2.9697 26.7819C3.54964 26.1388 4.51972 25.7833 5.87995 25.7156C10.6922 25.0617 14.1564 24.1947 16.6368 24.7111C17.0252 24.3894 19.5146 23.6523 23.6717 23.5784C26.6912 23.1026 28.5142 22.65 29.9289 22.7175C29.9517 22.6087 30.0177 22.5656 30.1268 22.5884L30.4051 22.8166C36.5746 22.4288 39.758 21.0985 40.2342 21.1976C40.199 21.3658 39.5642 22.571 39.7166 22.8814Z" fill="#1A1A1A"/>
<path d="M37.8285 24.732L37.745 24.8276C37.7123 24.8336 37.6522 24.8126 37.5783 24.778C36.958 24.8921 36.1952 25.2089 35.3008 25.7264C35.0614 25.7705 34.6763 25.3919 34.1455 24.5908L34.1196 24.4511L34.2176 24.4331L34.2061 24.371L34.0651 24.1562L34.0249 23.9389L34.0826 23.7036L33.9621 23.3566C34.0583 23.1463 34.147 23.0177 34.2123 23.0057C34.1749 22.8039 34.0218 22.4629 33.761 21.9652C33.8589 21.9472 33.8875 21.7975 33.8329 21.5026L33.9423 21.5467C34.0533 21.1732 34.3836 20.952 34.906 20.8559C34.9175 20.918 35.232 21.0367 35.8575 21.1945C35.8949 21.3963 36.1275 21.498 36.5473 21.5171L36.5732 21.6567L36.6567 21.5611L36.8091 21.5331C36.8417 21.5271 36.8692 21.5541 36.8779 21.6007L36.9614 21.5051L37.2117 21.4591L37.3899 21.5707L37.4878 21.5527L37.8355 21.4246L37.7552 21.2949L37.8096 21.2849C37.9923 21.2995 38.096 21.3125 38.1287 21.3065C38.3486 21.2179 38.5278 21.1529 38.6693 21.1268L38.7495 21.2565C39.0152 21.1114 39.1807 21.0328 39.2243 21.0248L39.3532 21.1134C39.4098 21.0549 39.4585 21.0138 39.4912 21.0078L39.6293 21.2071L39.6437 21.2847L39.5859 21.52L39.6003 21.5976L40.0974 21.426L40.1117 21.5036L40.1953 21.4079L40.4021 21.3699C40.4347 21.3639 40.4622 21.391 40.4708 21.4375C40.5035 21.4315 40.5195 21.3965 40.5109 21.3499L41.0367 21.3335L41.5917 21.2314C41.6678 21.2174 41.7389 21.2364 41.8128 21.271C41.8586 21.2144 41.929 21.1694 42.0052 21.1554L42.1175 21.215L42.201 21.1194L42.2887 21.1674C42.6827 21.0468 42.8722 20.9157 42.8435 20.7605L43.0503 20.7225C43.1917 20.6964 43.3418 20.717 43.4788 20.7881C43.5114 20.7821 43.5194 20.7646 43.5108 20.718C43.65 20.7406 43.7726 20.7341 43.8814 20.7141L43.9072 20.8538C43.8311 20.8678 43.7715 20.9108 43.7148 20.9694C43.567 20.9003 43.4387 20.8757 43.3299 20.8957L43.149 21.0734L43.2321 21.2186L43.2465 21.2962C43.1485 21.3143 43.1027 21.3708 43.12 21.4639C42.8524 21.4168 42.7024 21.3963 42.6915 21.3983L42.7058 21.4759L42.844 21.6752L42.7461 21.6932L42.7719 21.8329C42.9895 21.7929 43.21 21.7684 43.4363 21.7749L43.6316 21.6748L43.8933 21.6909L44.0742 21.5132C44.3114 21.5177 44.5021 21.5147 44.6436 21.4887L44.615 21.6384L44.7129 21.6204C44.6957 21.5273 44.7655 21.4181 44.9087 21.2795L45.0066 21.2615C45.0392 21.2555 45.0668 21.2825 45.0754 21.3291C45.2672 21.1493 45.4922 21.0277 45.7425 20.9817L45.754 21.0438L45.8404 20.9637L45.9384 20.9457L46.1165 21.0573C46.0936 20.9332 46.1634 20.824 46.3123 20.7164C46.3862 20.751 46.4463 20.772 46.479 20.766C46.4646 20.6884 46.5482 20.5928 46.7435 20.4927L46.9646 20.5323C47.1409 20.4517 47.2658 20.3966 47.3528 20.3806L47.3672 20.4582L46.9989 21.5692L45.7593 22.4712L45.4946 22.4396C44.5875 22.7669 44.099 22.9851 44.0481 23.0747L43.9358 23.0151C43.7331 23.1968 43.5625 23.3085 43.421 23.3345L42.9096 23.4285L42.6708 23.5366L42.6593 23.4745L42.5729 23.5546L42.2682 23.6107L41.7711 23.7823L37.8285 24.732ZM44.8558 22.0274C44.5751 22.0309 44.4302 21.9773 44.4129 21.8842L44.3185 21.9818L44.1661 22.0098L44.0567 21.9657C44.0826 22.1054 44.0752 22.187 44.0425 22.193C43.9881 22.2031 43.7945 22.1905 43.4617 22.1554C43.4789 22.2485 43.4549 22.3011 43.3896 22.3131L43.3352 22.3231C43.3025 22.3291 43.2859 22.3001 43.2773 22.2535C43.1204 22.3787 42.9876 22.4512 42.9005 22.4672L42.8862 22.3896L42.8026 22.4853L42.7482 22.4953L42.57 22.3836L42.5958 22.5233L42.4979 22.5413L42.472 22.4016L42.262 22.6649L42.2218 22.4476L42.1782 22.4556L42.2184 22.6729L42.109 22.6288L41.8587 22.6749C41.7826 22.6889 41.7201 22.7164 41.6635 22.775C41.5896 22.7404 41.5323 22.7349 41.4996 22.7409C41.2666 22.88 41.1337 22.9526 41.1229 22.9546L41.1372 23.0322C41.5834 22.9502 41.8612 22.9312 41.9568 22.9618C42.1659 22.8752 42.3777 22.8041 42.5954 22.7641L43.0524 22.68C43.1286 22.666 43.1881 22.623 43.2448 22.5644C43.2775 22.5584 43.305 22.5855 43.3136 22.632C43.9143 22.4734 44.2591 22.3298 44.3289 22.2206C44.3919 22.2572 44.471 22.2587 44.5472 22.2447C44.5798 22.2387 44.6313 22.2132 44.688 22.1546C44.7619 22.1891 44.8192 22.1947 44.8518 22.1887L44.8558 22.0274Z" fill="#1A1A1A"/>
<path d="M7.4326 17.9981C7.08431 17.9823 6.72018 17.9349 6.37189 17.9507C5.81779 17.9823 5.7228 17.7929 6.0236 17.351C6.15025 17.0038 6.38772 16.8144 6.76768 16.8933C6.81517 16.8302 6.86267 16.8302 6.92599 16.8775C18.103 16.8775 31.5915 16.8775 42.7685 16.8933C43.101 16.8933 43.4651 16.767 43.75 17.0511C43.6709 17.493 43.4809 17.856 42.9585 17.856C41.597 18.1401 40.2196 17.9507 38.8581 18.0139C38.779 18.077 38.6998 18.1243 38.6206 18.1559C38.209 18.2664 37.7816 18.219 37.37 18.219C36.6575 18.2348 35.961 18.2348 35.2485 18.219C34.8686 18.2348 34.4886 18.2348 34.0928 18.219C33.9504 18.219 33.792 18.219 33.6496 18.2506C27.3645 18.2506 21.0793 18.2822 14.7942 18.2348C14.6993 18.2348 14.5884 18.219 14.4934 18.219C14.0502 18.2348 13.6227 18.2348 13.1794 18.219C12.4512 18.2348 9.42737 18.2348 8.69912 18.219C8.30333 18.219 7.90755 18.2664 7.55925 18.0139C7.51176 18.0139 7.46426 17.9981 7.4326 17.9981Z" fill="#1A1A1A"/>
<path d="M7.67373 45.3118C7.24561 43.0918 7.38569 40.6544 8.10841 37.9725L8.23287 37.9347C8.15715 37.6866 8.46875 33.9545 9.1884 26.7321C9.01796 26.6934 8.88087 26.6898 8.7979 26.715C8.73479 26.5082 8.77365 25.8186 8.92892 24.6192C8.80177 24.4996 8.74316 24.3818 8.71792 24.2991C8.84969 23.4684 9.17359 22.376 9.66076 21.076C9.57241 20.7864 9.59591 20.4178 9.72312 20.0177C9.69788 19.935 9.62483 19.8442 9.51212 19.6976C9.43102 19.1348 9.31924 18.6942 9.22458 18.384L9.1173 18.0324C9.07313 17.8877 9.13086 17.7798 9.29681 17.7295C9.46276 17.6791 9.5836 17.7781 9.65302 18.0055L9.75673 17.9741C9.68732 17.7466 9.83977 17.4292 10.2475 17.0571L11.3296 17.6326L11.5407 17.433C13.0765 17.7128 14.151 17.1504 14.3277 17.7295L15.4623 18.0324L15.6419 21.5892C15.6653 21.7402 15.6076 21.8481 15.4624 21.8921L15.6626 22.1025C15.8092 25.1082 16.0695 28.4862 16.4496 32.257C16.3971 33.719 16.6258 37.8719 17.3827 43.4715L17.6523 43.9094C17.728 44.1576 17.8352 44.1504 17.7828 45.0927L17.5339 45.1682L17.2679 45.1133L17.331 45.3201L16.7501 45.4963C16.0016 45.2714 15.3956 44.8452 14.9447 44.2589C14.2856 43.5099 13.6943 44.0149 13.3778 43.7946L13.3399 43.6705C13.2894 43.5051 13.2804 43.327 13.3192 43.1571C12.5519 42.3505 12.147 41.8407 12.0776 41.6132L12.202 41.5755L12.0018 41.3651L12.0506 41.0792L11.7908 41.045C11.8719 41.6078 11.8773 41.9225 11.7943 41.9477L11.9945 42.1581L12.0261 42.2615C11.8871 42.8459 11.9173 42.8047 11.9785 44.1192C11.8125 44.1695 11.7801 44.3601 11.8747 44.6703L11.2623 44.7431C10.9566 45.1521 10.8267 45.3949 10.8582 45.4983L10.63 45.5675L10.5922 45.4434L10.5399 44.8266C10.291 44.9021 10.162 44.8508 10.1116 44.6854L10.3605 44.6099L10.2532 44.2583C9.46494 44.4974 9.15285 44.8858 9.32323 45.4441L8.97059 45.5511L8.93904 45.4477L8.98777 45.1618C8.81551 45.1914 8.70729 45.1339 8.66943 45.0098L9.02207 44.9028L8.94635 44.6547L8.75603 44.848C8.59008 44.8983 8.41151 44.9073 8.24106 44.8686L7.83968 45.2614L7.67373 45.3118Z" fill="#1A1A1A"/>
<path d="M37.0904 45.5078C37.251 46.1496 37.7878 46.617 38.7003 46.9105L38.9123 46.7228C38.9329 46.8059 38.984 46.8368 39.0651 46.816L39.4185 46.7237C39.7644 46.6336 40.0613 46.472 40.3087 46.239C39.901 43.6108 40.2516 41.7402 40.2117 39.5472L40.0279 39.3299L40.1495 39.2983C40.1283 39.2147 40.058 39.1045 39.9373 38.9674C40.0278 38.4211 40.1247 38.1347 40.2273 38.1076C40.001 37.5149 39.8213 37.1271 39.6893 36.9445C39.7704 36.9237 39.8784 36.8553 40.0144 36.7392C39.9913 36.6489 39.9196 36.5349 39.7989 36.3977C39.8458 35.8949 39.8254 35.2969 39.7381 34.6038C39.6571 34.6252 39.606 34.5938 39.5854 34.5112C39.6659 34.4893 39.7134 34.3483 39.7262 34.088L39.4908 33.6184C39.4007 33.0389 39.4478 32.7249 39.6315 32.677L39.4187 31.8279C39.2793 31.0837 39.3463 30.6764 39.6182 30.6056L39.4337 29.869L39.708 29.9307L39.6337 28.6473C39.5526 28.6681 39.5015 28.6378 39.4809 28.5541C39.6874 23.9644 39.4841 20.1438 39.0225 18.3014C38.6253 18.4051 38.3762 18.2572 38.2764 17.8564L38.0913 17.1204C37.7746 17.2027 37.5659 17.0402 37.4635 16.6322L37.4317 15.9894C36.6874 16.054 36.27 15.9053 36.1789 15.5429L35.6111 15.8118L35.3679 15.8748C35.2501 15.9055 35.0919 15.7739 34.8928 15.4798C34.5247 15.5751 34.2799 16.1177 34.1589 17.1063L33.806 17.1979C33.7249 17.2187 33.6684 17.6676 33.6371 18.5449C33.7028 20.4656 33.4778 21.8518 33.2673 22.3896C33.2905 22.4799 33.357 22.5908 33.4686 22.7228C33.3897 23.0656 33.4151 23.8386 33.5442 25.0436C33.6253 25.0222 33.6764 25.0537 33.6969 25.1363C33.5586 25.398 33.4816 25.7637 33.4663 26.2338L33.7408 26.8142C33.9675 27.9694 33.9525 28.5806 33.6946 28.6473C33.7153 28.731 33.7625 28.7626 33.836 28.7433C33.8932 28.97 33.5722 29.4773 33.5656 30.4522L33.8083 30.3892C33.645 31.0834 33.2673 31.8279 33.2673 32.9073L32.1668 43.9526C32.8727 44.7669 33.4135 45.5791 33.7892 46.3905L33.8203 46.5146L33.4669 46.6063L33.6371 46.816L35.3632 45.7037L36.5452 45.3966L36.4938 45.6625L36.5255 45.7877L36.8789 45.6955L37.0904 45.5078Z" fill="#1A1A1A"/>
</svg>
