<svg width="49" height="48" viewBox="0 0 49 48" fill="none" xmlns="http://www.w3.org/2000/svg">
<mask id="mask0_3490_4632" style="mask-type:alpha" maskUnits="userSpaceOnUse" x="0" y="0" width="48" height="48">
<path d="M18.6145 46.9739C18.714 46.7169 18.8974 46.4951 19.1393 46.3396V46.3396C19.2998 46.4333 19.4582 46.5307 19.6167 46.6243C20.4421 46.7556 21.2584 46.9323 22.0613 47.1534L22.7342 47.1114C22.6539 47.2623 22.7836 47.3578 22.9111 47.3999C23.0367 47.4438 23.0819 47.4495 23.1972 47.4897C24.8722 46.269 27.9938 46.9166 29.924 47.0369C30.9764 46.4335 32.1765 46.0877 33.4119 46.0321C37.8526 45.1973 42.2603 42.3471 44.3181 38.5666C44.6638 37.9285 44.1679 38.7251 44.4313 38.2304C44.1782 38.2667 43.995 38.1826 43.7707 38.1711C43.7892 38.0833 43.8078 37.9992 43.8181 37.9094C45.349 36.4863 46.5734 35.5502 46.0713 33.4508C46.5611 33.3247 46.703 32.6064 46.8327 32.337C46.9623 32.0677 46.8759 32.1995 47.0385 32.0581C46.9315 31.7659 47.0014 31.5099 47.0611 31.2061C47.592 28.9501 48.018 26.459 47.5591 24.138C47.8904 20.3384 47.2175 17.8817 46.4643 14.3323C46.3491 13.7898 46.4993 14.4412 46.4108 14.0229C43.2625 8.15821 42.0895 7.64434 37.5275 3.66897C37.4596 3.68044 37.4061 3.6919 37.332 3.70909C37.3135 4.02811 37.0768 4.54963 36.7805 4.64514C36.5747 4.7101 36.7373 4.64514 36.5747 4.68526C36.6303 4.04722 36.0767 3.562 35.6302 3.14364C35.6137 1.94014 31.0558 1.41098 30.3932 1.25243C30.1236 1.3766 30.2841 1.48167 29.8396 1.35941C29.3952 1.23906 28.3169 0.881827 27.7942 0.727092C27.7366 0.784401 27.7304 0.862724 27.6913 0.927675C25.115 0.555163 20.9131 -0.421007 18.8964 1.68416C16.3695 1.53324 13.9928 2.96789 11.5893 3.55818C9.65501 4.58975 7.93266 5.97854 6.02511 7.06169C5.53537 7.90796 5.07237 9.21652 4.22868 9.83738C3.94677 11.0523 3.7698 12.3724 2.8685 13.3485C1.38485 18.6134 -0.04324 21.6851 1.22229 27.1429C1.39102 27.355 1.63384 27.5842 1.68323 27.8478C1.73261 28.1114 1.61326 28.3349 1.5186 28.5699C1.79229 30.7744 1.53712 32.9388 2.91583 34.8491C3.68955 37.1568 4.6176 39.1741 6.67537 40.7233C7.11367 41.5295 7.59519 42.1847 8.62407 42.2516C11.7457 44.3988 14.7233 46.3626 18.6145 46.9739Z" fill="#E72E2E"/>
</mask>
<g mask="url(#mask0_3490_4632)">
<path d="M27.8136 -1.26172H21.2222C-11.9332 -1.26172 -8.56269 50.5826 24.5179 50.5826C57.5985 50.5826 60.9691 -1.26172 27.8136 -1.26172Z" fill="#E72E2E"/>
<path d="M16.3356 41.6869C15.9008 39.2058 15.7398 35.4398 15.6806 33.1885C15.6535 32.1576 14.7851 31.3423 13.7553 31.3965C12.8242 31.4455 12.1221 32.0589 12.1849 32.9892C12.3564 35.5275 13.3087 40.4092 15.3643 42.2925C15.5313 42.4455 15.7749 42.4678 15.9806 42.373C16.2419 42.2526 16.3853 41.9702 16.3356 41.6869Z" fill="#FFA100"/>
<path d="M11.5981 40.1013C10.2367 36.7837 9.91472 33.4073 9.86342 31.1596C9.83292 29.823 8.69179 28.8118 7.37478 29.0414C6.6759 29.1632 6.07465 29.5846 6.09599 30.2937C6.17366 32.8746 8.26039 38.8837 11.1696 40.5004C11.2299 40.5339 11.2991 40.5434 11.3669 40.5309C11.5627 40.4949 11.6737 40.2855 11.5981 40.1013Z" fill="#FFA100"/>
<path d="M33.4847 41.6869C33.9195 39.2058 34.0805 35.4398 34.1397 33.1885C34.1668 32.1576 35.0352 31.3423 36.065 31.3965C36.9961 31.4455 37.6982 32.0589 37.6354 32.9892C37.4639 35.5275 36.5116 40.4092 34.456 42.2925C34.289 42.4455 34.0454 42.4678 33.8397 42.373C33.5784 42.2526 33.4351 41.9702 33.4847 41.6869Z" fill="#FFA100"/>
<path d="M38.2261 40.1014C39.5658 36.8122 39.8612 33.2136 39.892 30.7628C39.9095 29.3649 41.2221 28.396 42.5339 28.8796C42.9971 29.0504 43.4075 29.364 43.4453 29.8564C43.6261 32.2106 41.7014 38.8035 38.6552 40.5003C38.595 40.5338 38.5257 40.5434 38.4579 40.5309C38.2621 40.4948 38.151 40.2858 38.2261 40.1014Z" fill="#FFA100"/>
<path d="M43.825 36.0687C45.5222 32.9702 45.9306 29.9329 45.9792 27.7957C46.011 26.3981 47.263 25.4312 48.5747 25.9147C49.038 26.0855 49.4553 26.4008 49.4678 26.8944C49.5231 29.0858 47.2361 34.7997 44.2005 36.4622C44.1455 36.4923 44.0825 36.5011 44.0209 36.4897C43.8297 36.4545 43.7315 36.2393 43.825 36.0687Z" fill="#FFA100"/>
<path d="M5.69846 36.4281C4.00127 33.3296 3.5928 30.2923 3.54423 28.1551C3.51246 26.7574 2.2604 25.7906 0.948692 26.2741C0.485401 26.4449 0.0681321 26.7602 0.0556702 27.2538C0.000345949 29.4451 2.2873 35.1591 5.32297 36.8216C5.37793 36.8517 5.44089 36.8605 5.50251 36.8491C5.69377 36.8139 5.79189 36.5986 5.69846 36.4281Z" fill="#FFA100"/>
<path d="M4.06849 20.7036C0.297967 19.7487 -2.48768 17.8884 -4.23397 16.4585C-5.26993 15.6102 -6.83066 15.9027 -7.31848 17.1072C-7.49186 17.5354 -7.52455 18.0144 -7.17401 18.3333C-5.51442 19.8429 0.678058 22.1709 4.0854 21.2174C4.15229 21.1987 4.20737 21.1571 4.24339 21.1018C4.34314 20.9485 4.25438 20.7507 4.06849 20.7036Z" fill="#FFA100"/>
<path d="M4.67242 16.2228C1.07929 14.872 -1.43568 12.7422 -2.98746 11.1366C-3.92714 10.1642 -5.52323 10.265 -6.16411 11.4109C-6.39172 11.8178 -6.48488 12.2945 -6.17039 12.6548C-4.70217 14.337 1.1339 17.3126 4.63284 16.7373C4.70039 16.7262 4.75906 16.6918 4.80096 16.642C4.9199 16.5004 4.85384 16.291 4.67242 16.2228Z" fill="#FFA100"/>
<path d="M6.06471 12.2087C2.93295 10.1822 1.00654 7.6329 -0.123798 5.75812C-0.833837 4.58044 -2.42223 4.31388 -3.32765 5.30458C-3.64853 5.65568 -3.85469 6.10888 -3.62453 6.53663C-2.57573 8.4858 2.37894 12.5577 5.91764 12.7102C5.98393 12.713 6.04676 12.6925 6.09753 12.654C6.24798 12.5401 6.22959 12.3154 6.06471 12.2087Z" fill="#FFA100"/>
<path d="M45.1307 20.7036C48.9013 19.7487 51.6869 17.8884 53.4332 16.4585C54.4692 15.6102 56.0299 15.9027 56.5177 17.1072C56.6911 17.5354 56.7238 18.0144 56.3732 18.3333C54.7136 19.8429 48.5212 22.1709 45.1138 21.2174C45.0469 21.1987 44.9919 21.1571 44.9558 21.1018C44.8561 20.9485 44.9448 20.7507 45.1307 20.7036Z" fill="#FFA100"/>
<path d="M44.5268 16.2228C48.1199 14.872 50.6349 12.7422 52.1867 11.1366C53.1264 10.1642 54.7225 10.265 55.3633 11.4109C55.5909 11.8178 55.6841 12.2945 55.3696 12.6548C53.9014 14.337 48.0653 17.3126 44.5664 16.7373C44.4988 16.7262 44.4402 16.6918 44.3983 16.642C44.2793 16.5004 44.3454 16.291 44.5268 16.2228Z" fill="#FFA100"/>
<path d="M43.1345 12.2087C46.2663 10.1822 48.1927 7.6329 49.323 5.75812C50.0331 4.58044 51.6214 4.31388 52.5269 5.30458C52.8478 5.65568 53.0539 6.10888 52.8237 6.53663C51.7749 8.4858 46.8203 12.5577 43.2816 12.7102C43.2153 12.713 43.1525 12.6925 43.1017 12.654C42.9512 12.5401 42.9696 12.3154 43.1345 12.2087Z" fill="#FFA100"/>
</g>
<path d="M19.4554 31.6512C18.8705 31.5613 18.6859 32.4112 19.0654 32.6394C20.1545 33.3774 20.8996 33.6596 22.8674 33.5378C23.2573 33.5137 23.3548 32.7292 22.9648 32.6394L19.4554 31.6512Z" fill="#FFA100"/>
<path d="M25.8883 34.3464C24.904 34.5852 24.4187 33.3704 25.3034 33.1785C26.9607 32.8192 28.6179 32.37 30.3726 31.3817C30.8435 31.1165 31.445 31.8343 30.8601 32.1903C29.1323 33.2418 27.7405 33.8973 25.8883 34.3464Z" fill="#FFA100"/>
<path fill-rule="evenodd" clip-rule="evenodd" d="M25.6494 35.4799L26.2783 37.5807L26.1005 37.679C25.9257 37.7756 25.8612 37.9799 25.9523 38.1478L26.0182 38.2693C26.1098 38.4381 26.3274 38.5128 26.5165 38.4405L29.4537 37.3169C30.5113 36.9123 31.033 35.81 30.6353 34.8204C30.4892 34.4569 30.0551 34.2671 29.6571 34.3928L26.9606 35.2448L26.9296 35.1448C26.8396 34.8545 26.5084 34.6889 26.1952 34.7777L26.0413 34.8214C25.7389 34.9071 25.5653 35.1989 25.6494 35.4799ZM27.0581 36.1432L27.2531 37.2213L28.9693 36.5522C29.4239 36.3749 29.641 35.895 29.4577 35.4727C29.4244 35.396 29.3307 35.3579 29.2468 35.3869L27.0581 36.1432Z" fill="#FFA100"/>
<path d="M22.2335 34.6173C21.0025 35.5291 20.5421 35.9648 18.6765 35.9648C17.7016 35.9648 17.7016 36.9991 18.6765 36.953C19.9042 36.8949 20.5583 36.7591 21.601 36.1445C20.6935 38.5301 20.0303 39.8369 18.9182 41.8967C18.7919 42.1306 18.905 42.4224 19.1563 42.5092C19.3347 42.5709 19.5328 42.5093 19.6428 42.3559C20.2359 41.5279 20.6318 40.865 21.3086 39.5584C21.826 40.5989 21.8912 41.2348 21.7731 42.1311C21.7378 42.3989 21.9121 42.6523 22.1777 42.7012C22.4497 42.7514 22.7115 42.5679 22.7459 42.2935C22.9065 41.0105 22.7799 40.1549 22.0884 38.7498C22.7897 39.1477 23.2066 39.342 23.863 39.5142C23.9732 39.5432 24.0904 39.5171 24.1798 39.4465C24.4116 39.2634 24.3476 38.8915 24.0793 38.7679C23.5013 38.5016 22.9566 38.1347 22.2834 37.5819L23.1864 35.3627C23.3285 35.0136 23.1342 34.6188 22.7709 34.5184C22.5861 34.4673 22.3877 34.5031 22.2335 34.6173Z" fill="#FFA100"/>
<path fill-rule="evenodd" clip-rule="evenodd" d="M24.8096 39.363L25.4038 42.2381C25.4586 42.5033 25.7195 42.6891 26.0118 42.6711L28.4244 42.5229L29.3993 42.8823C31.0919 42.4663 32.2179 40.9926 32.0725 39.3838L32.0017 38.6016C31.966 38.2068 31.5573 37.9339 31.139 38.0256L25.7923 39.1988L25.7532 39.1088C25.6633 38.9017 25.4238 38.7852 25.1876 38.8336C24.927 38.8869 24.7596 39.1214 24.8096 39.363ZM28.5219 39.9176V39.2887L30.7567 38.8134C30.9143 38.7799 31.0673 38.8838 31.0792 39.0324L31.1011 39.3045C31.1889 40.3973 30.4407 41.3995 29.3018 41.7143L28.2294 41.6245L28.4244 40.816L29.7751 40.2714C29.9021 40.2202 29.9842 40.1045 29.9842 39.9768C29.9842 39.7655 29.7668 39.6116 29.5453 39.666L28.5219 39.9176ZM25.8898 40.7261L25.7923 40.0972L27.547 39.4684L27.6445 40.2769L25.8898 40.7261ZM25.9873 41.4448L26.1822 42.0737L27.2546 41.8042L27.547 41.0855L25.9873 41.4448Z" fill="#FFA100"/>
<path d="M42.5815 18.5653C42.5815 30.6074 33.5864 27.0736 24.5416 27.0702C14.9213 27.0666 6.33212 31.0294 6.86325 17.8131C7.03782 13.4693 9.66636 9.54837 14.2982 8.72747C16.9219 8.26246 20.3121 7.90625 24.5416 7.90625C28.5841 7.90625 31.9305 8.23165 34.5975 8.66645C39.6738 9.49401 42.5815 13.8145 42.5815 18.5653Z" fill="white"/>
<path d="M10.0405 13.496C8.63535 17.1907 10.7463 21.2356 14.7554 22.5306C18.7645 23.8256 23.1537 21.8802 24.5589 18.1855C25.9641 14.4909 23.8532 10.4459 19.844 9.15095C15.8349 7.85597 11.4457 9.80132 10.0405 13.496Z" fill="url(#paint0_radial_3490_4632)"/>
<path d="M18.031 19.3676C20.0027 19.3676 21.6465 17.8887 21.6465 16.0107C21.6465 14.1328 20.0027 12.6538 18.031 12.6538C16.0593 12.6538 14.4156 14.1328 14.4156 16.0107C14.4156 17.8887 16.0593 19.3676 18.031 19.3676Z" fill="white" stroke="#FFA100" stroke-width="0.637621"/>
<path d="M23.9805 10.7758C21.7827 11.5352 21.1417 9.25681 18.0282 9.42551C21.1417 8.24387 21.1417 10.3537 23.9805 10.7758Z" fill="#1C1A1A"/>
<path d="M12.5254 18.1888C12.8169 17.4912 12.2824 16.9469 11.9787 16.7619C12.9262 16.9521 13.1631 17.7924 13.1631 18.1888C13.1631 20.0914 8.51662 20.2499 8.3344 17.079C8.02502 11.6951 12.8845 10.0475 15.623 10.1029C19.5407 10.1822 20.8162 12.3226 22.5472 12.3226C23.9321 12.3226 23.8531 11.6355 23.6405 11.292C24.1872 11.292 24.5516 12.7982 22.5472 12.7982C20.0873 12.7982 18.8118 10.9 15.623 11.0542C10.7032 11.292 9.06327 14.6215 9.33659 17.079C9.58231 19.2883 12.1609 19.0608 12.5254 18.1888Z" fill="#1C1A1A"/>
<path d="M39.762 13.496C41.1672 17.1907 39.0563 21.2356 35.0472 22.5306C31.038 23.8256 26.6489 21.8802 25.2437 18.1855C23.8385 14.4909 25.9494 10.4459 29.9585 9.15095C33.9676 7.85597 38.3568 9.80132 39.762 13.496Z" fill="url(#paint1_radial_3490_4632)"/>
<path d="M31.7693 19.3676C33.741 19.3676 35.3847 17.8887 35.3847 16.0107C35.3847 14.1328 33.741 12.6538 31.7693 12.6538C29.7976 12.6538 28.1538 14.1328 28.1538 16.0107C28.1538 17.8887 29.7976 19.3676 31.7693 19.3676Z" fill="#1C1A1A" stroke="#FFA100" stroke-width="0.637621"/>
<path d="M34.7471 16.0107C34.7471 17.4885 33.4389 18.73 31.7693 18.73C30.0997 18.73 28.7915 17.4885 28.7915 16.0107C28.7915 14.5329 30.0997 13.2915 31.7693 13.2915C33.4389 13.2915 34.7471 14.5329 34.7471 16.0107Z" fill="#1C1A1A" stroke="white" stroke-width="0.637621"/>
<path d="M25.7305 10.7758C27.9282 11.5352 28.5692 9.25681 31.6827 9.42551C28.5692 8.24387 28.5692 10.3537 25.7305 10.7758Z" fill="#1C1A1A"/>
<path d="M37.0918 18.1888C36.8003 17.4912 37.3348 16.9469 37.6385 16.7619C36.691 16.9521 36.4541 17.7924 36.4541 18.1888C36.4541 20.0914 41.1006 20.2499 41.2828 17.079C41.5922 11.6951 36.7327 10.0475 33.9942 10.1029C30.0765 10.1822 28.801 12.3226 27.07 12.3226C25.6851 12.3226 25.7641 11.6355 25.9767 11.292C25.43 11.292 25.0656 12.7982 27.07 12.7982C29.5299 12.7982 30.8054 10.9 33.9942 11.0542C38.914 11.292 40.5539 14.6215 40.2806 17.079C40.0349 19.2883 37.4563 19.0608 37.0918 18.1888Z" fill="#1C1A1A"/>
<path d="M24.9199 21.3183C29.0122 21.2085 31.9648 24.3348 35.9013 24.8256L36.2409 24.8594L36.5859 24.878C36.8021 24.8949 37.0195 24.8949 37.2357 24.878C37.6523 24.849 38.0598 24.7506 38.4386 24.5876C38.8087 24.4235 39.1357 24.1868 39.3969 23.894C39.6564 23.5954 39.8342 23.2434 39.9153 22.8678C40 22.4956 39.9559 22.1083 39.7894 21.7605C39.6122 21.4055 39.2987 21.1239 38.9096 20.9706C38.4802 20.8049 38.0161 20.7304 37.5515 20.7529C37.058 20.775 36.5684 20.8457 36.0912 20.9639C36.5406 20.7447 37.0193 20.5813 37.515 20.4778C38.0339 20.3676 38.5736 20.3722 39.0903 20.4913C39.3637 20.5624 39.6219 20.6766 39.8533 20.8289C40.0898 20.9863 40.2917 21.1839 40.4484 21.4112C40.7532 21.8775 40.8906 22.421 40.8408 22.964C40.7852 23.5013 40.5903 24.0183 40.2725 24.4711C39.9547 24.9239 39.5235 25.2991 39.0154 25.5649C38.5153 25.8283 37.9649 26.0002 37.3945 26.0712C37.1206 26.1136 36.8435 26.1356 36.5658 26.1371H36.166L35.7663 26.1185C34.6953 26.0501 33.6453 25.8103 32.6631 25.4096C32.1834 25.2142 31.7154 24.995 31.2612 24.7531C30.814 24.5168 30.3887 24.2653 29.9707 24.0222C29.1851 23.5418 28.3592 23.1202 27.5009 22.7614C26.684 22.434 25.8093 22.2469 24.9199 22.2095V21.3183Z" fill="#1C1A1A"/>
<path d="M24.97 21.3183C20.8288 21.2071 17.9112 24.3365 13.9885 24.8256L13.649 24.8594L13.304 24.878C13.0878 24.8949 12.8704 24.8949 12.6542 24.878C12.2375 24.849 11.83 24.7506 11.4512 24.5876C11.0811 24.4235 10.7541 24.1868 10.4929 23.894C10.2334 23.5954 10.0556 23.2434 9.9745 22.8678C9.88983 22.4956 9.93389 22.1083 10.1004 21.7605C10.2776 21.4055 10.5912 21.1239 10.9803 20.9706C11.4096 20.8049 11.8737 20.7304 12.3384 20.7529C12.8319 20.775 13.3214 20.8457 13.7987 20.9639C13.3492 20.7447 12.8705 20.5813 12.3749 20.4778C11.8559 20.3676 11.3162 20.3722 10.7996 20.4913C10.5261 20.5624 10.268 20.6766 10.0366 20.8289C9.80007 20.9863 9.59812 21.1839 9.44148 21.4112C9.13666 21.8775 8.99928 22.421 9.04903 22.964C9.1046 23.5013 9.29955 24.0183 9.61732 24.4711C9.9351 24.9239 10.3663 25.2991 10.8744 25.5649C11.3746 25.8283 11.9249 26.0002 12.4953 26.0712C12.7692 26.1136 13.0464 26.1356 13.3241 26.1371H13.7238L14.1236 26.1185C15.1946 26.0501 16.2445 25.8103 17.2267 25.4096C17.7064 25.2142 18.1744 24.995 18.6286 24.7531C19.0758 24.5168 19.5011 24.2653 19.9192 24.0222C20.7048 23.5418 21.5307 23.1202 22.3889 22.7614C23.2058 22.434 24.0805 22.2469 24.97 22.2095V21.3183Z" fill="#1C1A1A"/>
<path d="M18.7117 26.2218L19.959 25.2001C20.0116 25.157 20.0878 25.1593 20.1378 25.2053C20.1915 25.2548 20.1967 25.3378 20.1496 25.3935L19.1097 26.6257C19.0189 26.7333 18.8631 26.7583 18.7431 26.6846C18.5763 26.5822 18.5603 26.3458 18.7117 26.2218Z" fill="#1C1A1A"/>
<path d="M20.887 26.2194L21.8838 24.9071C21.9318 24.8438 22.024 24.8357 22.0824 24.8895C22.1264 24.93 22.1384 24.9947 22.112 25.0483L21.383 26.5261C21.3067 26.6809 21.1139 26.7365 20.9669 26.6462C20.8194 26.5555 20.7823 26.3573 20.887 26.2194Z" fill="#1C1A1A"/>
<path d="M23.1602 26.0916L23.6476 24.8722C23.6803 24.7906 23.7845 24.767 23.8492 24.8266C23.8799 24.8549 23.8945 24.8967 23.8881 24.938L23.687 26.2357C23.6569 26.4298 23.4388 26.5306 23.2715 26.4278C23.1575 26.3577 23.1105 26.2158 23.1602 26.0916Z" fill="#1C1A1A"/>
<path d="M31.2804 26.2218L30.0332 25.2001C29.9806 25.157 29.9044 25.1593 29.8544 25.2053C29.8007 25.2548 29.7955 25.3378 29.8426 25.3935L30.8825 26.6257C30.9733 26.7333 31.1291 26.7583 31.2491 26.6846C31.4158 26.5822 31.4319 26.3458 31.2804 26.2218Z" fill="#1C1A1A"/>
<path d="M29.1013 26.2194L28.1045 24.9071C28.0564 24.8438 27.9643 24.8357 27.9058 24.8895C27.8619 24.93 27.8499 24.9947 27.8763 25.0483L28.6052 26.5261C28.6815 26.6809 28.8743 26.7365 29.0213 26.6462C29.1689 26.5555 29.206 26.3573 29.1013 26.2194Z" fill="#1C1A1A"/>
<path d="M26.832 26.0916L26.3446 24.8722C26.3119 24.7906 26.2077 24.767 26.143 24.8266C26.1123 24.8549 26.0977 24.8967 26.1041 24.938L26.3052 26.2357C26.3353 26.4298 26.5533 26.5306 26.7207 26.4278C26.8347 26.3577 26.8817 26.2158 26.832 26.0916Z" fill="#1C1A1A"/>
<path d="M29.705 24.6149C29.8343 24.3629 29.4093 24.2102 29.1667 24.064C26.331 22.3559 23.1147 22.473 20.2781 24.2865C20.2613 24.2972 20.2432 24.3061 20.2255 24.3153C19.9789 24.4434 20.133 24.8036 20.4023 24.7554C20.4188 24.7525 20.4346 24.7466 20.4499 24.7398C23.2195 23.5219 26.1824 23.4285 28.9663 24.5772C29.2177 24.681 29.5809 24.857 29.705 24.6149V24.6149Z" fill="#E72E2E"/>
<path d="M20.1985 21.5081C21.0238 19.633 23.0336 19.0263 23.6181 20.3198C23.6672 20.4284 23.8104 20.4711 23.8986 20.391L23.9196 20.3719C23.9599 20.3353 23.9788 20.2786 23.9678 20.2252C23.5117 18.0123 20.7012 18.9681 19.8335 21.3811C19.7954 21.487 19.861 21.6005 19.9707 21.6257C20.0645 21.6474 20.1597 21.5963 20.1985 21.5081Z" fill="#E72E2E"/>
<path d="M29.5124 21.5081C28.6871 19.633 26.6774 19.0263 26.0929 20.3198C26.0438 20.4284 25.9006 20.4711 25.8123 20.391L25.7913 20.3719C25.751 20.3353 25.7322 20.2786 25.7431 20.2252C26.1992 18.0123 29.0097 18.9681 29.8774 21.3811C29.9155 21.487 29.8499 21.6005 29.7403 21.6257C29.6464 21.6474 29.5512 21.5963 29.5124 21.5081Z" fill="#E72E2E"/>
<defs>
<radialGradient id="paint0_radial_3490_4632" cx="0" cy="0" r="1" gradientUnits="userSpaceOnUse" gradientTransform="translate(17.2997 15.8408) rotate(110.823) scale(7.15733 8.62068)">
<stop offset="0.526744" stop-color="#E72E2E"/>
<stop offset="0.796875" stop-color="#FFA100" stop-opacity="0"/>
</radialGradient>
<radialGradient id="paint1_radial_3490_4632" cx="0" cy="0" r="1" gradientUnits="userSpaceOnUse" gradientTransform="translate(32.5028 15.8408) rotate(69.1768) scale(7.15733 8.62068)">
<stop offset="0.526744" stop-color="#E72E2E"/>
<stop offset="0.796875" stop-color="#FFA100" stop-opacity="0"/>
</radialGradient>
</defs>
</svg>
