<svg width="35" height="14" viewBox="0 0 35 14" fill="none" xmlns="http://www.w3.org/2000/svg">
<path d="M9.96826 12.5263L10.0836 12.4883L10.0451 12.3732L9.93737 12.0513L9.92783 12.0228L9.90606 12.0019L9.86213 11.9599C9.84634 11.7718 9.85873 11.6331 9.89117 11.5371L9.89668 11.5208L9.89741 11.5036L9.97585 9.6666C10.0484 9.61243 10.1051 9.54633 10.1374 9.46611C10.1724 9.37908 10.1741 9.28695 10.1509 9.19456C10.3117 8.77637 10.3763 8.425 10.3141 8.15693C10.3898 8.05974 10.4475 7.92933 10.4922 7.77486C10.5455 7.59021 10.5833 7.35992 10.6069 7.0862C10.7746 6.5793 10.8941 6.14761 10.9644 5.7921C11.032 5.44981 11.0559 5.16918 11.0281 4.95709C11.0887 4.7171 11.0855 4.4514 11.0243 4.16292L11.0165 4.12625L10.9894 4.10025L10.9352 4.04842C10.9037 3.94102 10.8932 3.82018 10.9061 3.68432L10.9116 3.62725L10.8708 3.58666L10.8227 3.53894L10.7996 3.34114L10.7822 3.19285L10.6402 3.23954C10.6403 3.23952 10.6383 3.24016 10.6336 3.24077C10.6327 3.24087 10.6319 3.24098 10.6309 3.24107L10.6134 3.09632L10.6119 3.08409L10.608 3.0724C10.5898 3.01819 10.5612 2.9602 10.5112 2.92092C10.4935 2.90708 10.4749 2.89678 10.4556 2.88973C10.4476 2.83042 10.4481 2.75771 10.4601 2.66973L10.4639 2.6418L10.4549 2.61501C10.407 2.47177 10.3229 2.35806 10.1918 2.30233C10.175 2.29517 10.1578 2.28916 10.1403 2.28423L10.1337 2.26461L10.1039 2.17568L10.0815 2.10846L10.0118 2.09468C9.91168 2.07488 9.82743 2.06143 9.76035 2.05515C9.75863 2.05499 9.75691 2.05483 9.75518 2.05468L9.7497 2.0383C9.728 1.97346 9.67029 1.9464 9.64446 1.93607C9.61165 1.92295 9.57296 1.91479 9.53338 1.90913C9.45293 1.89762 9.34221 1.89294 9.20476 1.8937L9.18558 1.8938L9.1674 1.89978C8.95724 1.96889 8.81876 2.12363 8.75163 2.3443L8.74402 2.36929L8.74744 2.39523C8.77499 2.60441 8.78935 2.75876 8.79165 2.86091C8.79237 2.8929 8.79183 2.91749 8.79061 2.93573L8.77763 2.93999L8.76358 3.0085C8.68039 3.41407 8.58134 3.70086 8.47162 3.87926L8.44208 3.92729L8.46002 3.9809C8.48726 4.06228 8.4964 4.21177 8.47352 4.445C8.45109 4.67366 8.39961 4.96804 8.31802 5.32953L8.3177 5.32946L8.31638 5.33827C8.15345 6.42949 8.0356 7.26219 7.96295 7.83586C7.92665 8.12251 7.90148 8.34567 7.88765 8.50451C7.88075 8.58375 7.87652 8.6486 7.87526 8.69804C7.87464 8.72267 7.8747 8.74512 7.87579 8.76447C7.87671 8.78093 7.87878 8.8054 7.88648 8.82841L7.89602 8.85693L7.91779 8.87777L7.94978 8.90839C7.8576 9.62089 7.92205 10.3093 8.14388 10.9721L8.34231 11.5651C8.35861 11.6138 8.379 11.662 8.40704 11.6984C8.41939 11.7145 8.43938 11.7352 8.46589 11.7502C8.67161 12.1543 8.9046 12.4335 9.17501 12.5521L9.20765 12.5664L9.24282 12.561C9.47097 12.5256 9.61337 12.5408 9.69206 12.58L9.73699 12.6023L9.78455 12.5867L9.96826 12.5263Z" fill="#E72E2E" stroke="#E72E2E" stroke-width="0.242912"/>
<mask id="path-2-outside-1_3490_5102" maskUnits="userSpaceOnUse" x="9.40205" y="0.269531" width="13.9828" height="12.1575" fill="black">
<rect fill="white" x="9.40205" y="0.269531" width="13.9828" height="12.1575"/>
<path d="M13.1975 11.8791C12.9225 11.8718 12.6925 11.8455 12.5073 11.8L12.4178 11.8576C12.1579 11.8819 12.0143 11.7503 11.987 11.4631L11.9422 11.4672C11.9481 11.5294 11.9182 11.5636 11.8525 11.5697C11.8477 11.5194 11.7416 11.4337 11.5342 11.3126C11.519 11.1526 11.4472 11.0787 11.3187 11.0906C11.3044 10.9396 11.3056 10.7781 11.3225 10.6062L11.2504 10.3709C11.2102 9.94743 11.3085 9.60064 11.5451 9.33059C12.3334 8.17251 12.8913 7.38101 13.2187 6.95609C14.9699 4.88958 15.835 3.74675 15.8142 3.52758L15.7649 3.53218C15.4184 3.6601 14.5923 3.84915 13.2868 4.09933C13.1591 4.18294 13.0247 4.30752 12.8837 4.47304L12.8344 4.47764L12.5882 4.45577C12.593 4.50612 12.4854 4.56395 12.2655 4.62927C11.9894 4.61019 11.6844 4.47728 11.3506 4.23053L11.3459 4.18166C11.3963 3.69592 11.4379 3.45152 11.4708 3.44846C11.4579 3.31222 11.6862 3.14602 12.1559 2.94985C12.7382 2.60575 13.1907 2.41866 13.5133 2.38858C13.7225 2.27348 14.2765 2.12472 15.1755 1.94231L16.045 1.86126C16.2392 1.84316 16.459 1.9362 16.7044 2.1404L17.4753 2.06854L17.4888 2.2107C17.4649 2.21293 17.3708 2.23813 17.2066 2.2863C17.2139 2.36331 17.4142 2.42531 17.8075 2.4723C17.8106 2.50488 17.8285 2.51964 17.8614 2.51657L18.1482 2.48984L18.1571 2.58313L17.9644 2.60109L17.9736 2.69883L18.4711 2.79587L18.48 2.88916L18.4307 2.89375L18.3324 2.8581L18.4044 3.0934L18.4086 3.13783C18.2791 3.17081 18.221 3.2569 18.2342 3.3961L18.1401 3.40488C18.0744 3.411 18.037 3.36668 18.028 3.27191L17.8353 3.28987L17.8488 3.43203C17.862 3.57123 17.792 3.69129 17.6388 3.79222C17.6478 3.887 17.6045 3.93884 17.5089 3.94775L17.3655 3.96112C17.2121 4.25031 17.042 4.50669 16.8552 4.73026C16.6748 4.89348 16.5883 5.01508 16.5959 5.09504C16.4347 5.33416 16.3332 5.45567 16.2914 5.45957C16.1538 5.69349 15.951 5.95441 15.683 6.24234C15.6872 6.28676 15.5574 6.4602 15.2938 6.76265C15.0855 6.98225 14.9841 7.12019 14.9894 7.17646L14.9446 7.18063L14.8413 7.14096L14.846 7.18983L14.8953 7.18523C14.6088 7.59737 14.4343 7.80636 14.3715 7.81221C14.3766 7.86552 14.3349 7.95008 14.2464 8.06589L14.3045 8.15458C14.1103 8.17269 14.0163 8.21432 14.0225 8.27948L14.0718 8.27488C14.0763 8.32227 13.9883 8.41115 13.8077 8.54151C13.8136 8.60371 13.7359 8.64233 13.5746 8.65737L13.5838 8.7551L13.678 8.74633C13.5974 8.97792 13.5258 9.09664 13.4631 9.10249C13.4033 9.10806 13.3781 9.15972 13.3873 9.25745L13.2841 9.21778L13.2888 9.26664L13.3381 9.26205L13.0876 9.72013L13.0918 9.76455L13.7416 9.41714C14.055 9.28933 15.0314 8.79494 16.6708 7.93399C17.3132 7.68289 17.6716 7.521 17.7461 7.44832L18.1315 7.41239C18.4868 7.21793 18.8168 7.10649 19.1216 7.07808L19.3143 7.06011L19.3054 6.96682L19.4488 6.95345L19.5521 6.99313C19.5459 6.92797 19.5906 6.89093 19.6862 6.88202C19.7519 6.87589 19.7864 6.88912 19.7895 6.9217L20.1209 6.8415L20.5064 6.80557C20.5392 6.8025 20.5572 6.81726 20.5603 6.84984L20.6543 6.79178L20.6991 6.7876C20.8754 6.77117 21.1983 6.91884 21.668 7.23061C21.7337 7.22448 21.774 7.2999 21.7889 7.45687L21.807 7.6479L21.4171 7.68424C21.4323 7.84417 21.4085 7.92706 21.3458 7.93291C20.805 7.98333 20.4152 8.14814 20.1764 8.42735C19.7686 8.57593 19.5685 8.69168 19.5764 8.77461C19.582 8.83384 19.0744 9.13812 18.0534 9.68745C17.4027 10.1037 16.6951 10.5088 15.9307 10.9027L15.5635 11.1789C15.5964 11.1759 15.6142 11.1892 15.6171 11.2188L15.5678 11.2234L15.4694 11.1877L14.2908 11.5844L13.9502 11.6162L13.8515 11.5761C13.8577 11.6412 13.6397 11.7422 13.1975 11.8791ZM16.3349 4.39333C16.4449 4.28149 16.5239 4.09784 16.572 3.84237L16.8094 3.77094C16.8052 3.72652 16.7529 3.68359 16.6525 3.64215L16.3974 4.05137L16.2768 4.30463L16.2856 4.39792L16.3349 4.39333ZM16.6852 8.6094L18.5131 7.86085L19.9198 7.29498C20.1438 7.24123 20.3365 7.20684 20.4978 7.1918C20.459 7.13267 20.4381 7.08681 20.435 7.05423C20.3754 7.09266 20.3276 7.11355 20.2917 7.11689L19.8569 7.10813L19.6195 7.17956L19.4175 7.09979C19.4302 7.23306 19.1166 7.3594 18.4769 7.47879C18.4491 7.53517 18.4402 7.61666 18.4503 7.72328C18.3157 7.6701 18.2468 7.62722 18.2437 7.59465C17.6148 7.79669 17.3073 7.97027 17.321 8.11539L17.1915 8.27536L17.1422 8.27996L17.1823 8.17763L17.1688 8.03547L17.0702 8.04466C16.9665 8.1589 16.8994 8.31006 16.8691 8.49814L16.8198 8.50274L16.8151 8.45387L16.8551 8.35154C16.7476 8.36157 16.6655 8.35428 16.6089 8.32968L16.6131 8.3741L16.6852 8.6094Z"/>
</mask>
<path d="M13.1975 11.8791C12.9225 11.8718 12.6925 11.8455 12.5073 11.8L12.4178 11.8576C12.1579 11.8819 12.0143 11.7503 11.987 11.4631L11.9422 11.4672C11.9481 11.5294 11.9182 11.5636 11.8525 11.5697C11.8477 11.5194 11.7416 11.4337 11.5342 11.3126C11.519 11.1526 11.4472 11.0787 11.3187 11.0906C11.3044 10.9396 11.3056 10.7781 11.3225 10.6062L11.2504 10.3709C11.2102 9.94743 11.3085 9.60064 11.5451 9.33059C12.3334 8.17251 12.8913 7.38101 13.2187 6.95609C14.9699 4.88958 15.835 3.74675 15.8142 3.52758L15.7649 3.53218C15.4184 3.6601 14.5923 3.84915 13.2868 4.09933C13.1591 4.18294 13.0247 4.30752 12.8837 4.47304L12.8344 4.47764L12.5882 4.45577C12.593 4.50612 12.4854 4.56395 12.2655 4.62927C11.9894 4.61019 11.6844 4.47728 11.3506 4.23053L11.3459 4.18166C11.3963 3.69592 11.4379 3.45152 11.4708 3.44846C11.4579 3.31222 11.6862 3.14602 12.1559 2.94985C12.7382 2.60575 13.1907 2.41866 13.5133 2.38858C13.7225 2.27348 14.2765 2.12472 15.1755 1.94231L16.045 1.86126C16.2392 1.84316 16.459 1.9362 16.7044 2.1404L17.4753 2.06854L17.4888 2.2107C17.4649 2.21293 17.3708 2.23813 17.2066 2.2863C17.2139 2.36331 17.4142 2.42531 17.8075 2.4723C17.8106 2.50488 17.8285 2.51964 17.8614 2.51657L18.1482 2.48984L18.1571 2.58313L17.9644 2.60109L17.9736 2.69883L18.4711 2.79587L18.48 2.88916L18.4307 2.89375L18.3324 2.8581L18.4044 3.0934L18.4086 3.13783C18.2791 3.17081 18.221 3.2569 18.2342 3.3961L18.1401 3.40488C18.0744 3.411 18.037 3.36668 18.028 3.27191L17.8353 3.28987L17.8488 3.43203C17.862 3.57123 17.792 3.69129 17.6388 3.79222C17.6478 3.887 17.6045 3.93884 17.5089 3.94775L17.3655 3.96112C17.2121 4.25031 17.042 4.50669 16.8552 4.73026C16.6748 4.89348 16.5883 5.01508 16.5959 5.09504C16.4347 5.33416 16.3332 5.45567 16.2914 5.45957C16.1538 5.69349 15.951 5.95441 15.683 6.24234C15.6872 6.28676 15.5574 6.4602 15.2938 6.76265C15.0855 6.98225 14.9841 7.12019 14.9894 7.17646L14.9446 7.18063L14.8413 7.14096L14.846 7.18983L14.8953 7.18523C14.6088 7.59737 14.4343 7.80636 14.3715 7.81221C14.3766 7.86552 14.3349 7.95008 14.2464 8.06589L14.3045 8.15458C14.1103 8.17269 14.0163 8.21432 14.0225 8.27948L14.0718 8.27488C14.0763 8.32227 13.9883 8.41115 13.8077 8.54151C13.8136 8.60371 13.7359 8.64233 13.5746 8.65737L13.5838 8.7551L13.678 8.74633C13.5974 8.97792 13.5258 9.09664 13.4631 9.10249C13.4033 9.10806 13.3781 9.15972 13.3873 9.25745L13.2841 9.21778L13.2888 9.26664L13.3381 9.26205L13.0876 9.72013L13.0918 9.76455L13.7416 9.41714C14.055 9.28933 15.0314 8.79494 16.6708 7.93399C17.3132 7.68289 17.6716 7.521 17.7461 7.44832L18.1315 7.41239C18.4868 7.21793 18.8168 7.10649 19.1216 7.07808L19.3143 7.06011L19.3054 6.96682L19.4488 6.95345L19.5521 6.99313C19.5459 6.92797 19.5906 6.89093 19.6862 6.88202C19.7519 6.87589 19.7864 6.88912 19.7895 6.9217L20.1209 6.8415L20.5064 6.80557C20.5392 6.8025 20.5572 6.81726 20.5603 6.84984L20.6543 6.79178L20.6991 6.7876C20.8754 6.77117 21.1983 6.91884 21.668 7.23061C21.7337 7.22448 21.774 7.2999 21.7889 7.45687L21.807 7.6479L21.4171 7.68424C21.4323 7.84417 21.4085 7.92706 21.3458 7.93291C20.805 7.98333 20.4152 8.14814 20.1764 8.42735C19.7686 8.57593 19.5685 8.69168 19.5764 8.77461C19.582 8.83384 19.0744 9.13812 18.0534 9.68745C17.4027 10.1037 16.6951 10.5088 15.9307 10.9027L15.5635 11.1789C15.5964 11.1759 15.6142 11.1892 15.6171 11.2188L15.5678 11.2234L15.4694 11.1877L14.2908 11.5844L13.9502 11.6162L13.8515 11.5761C13.8577 11.6412 13.6397 11.7422 13.1975 11.8791ZM16.3349 4.39333C16.4449 4.28149 16.5239 4.09784 16.572 3.84237L16.8094 3.77094C16.8052 3.72652 16.7529 3.68359 16.6525 3.64215L16.3974 4.05137L16.2768 4.30463L16.2856 4.39792L16.3349 4.39333ZM16.6852 8.6094L18.5131 7.86085L19.9198 7.29498C20.1438 7.24123 20.3365 7.20684 20.4978 7.1918C20.459 7.13267 20.4381 7.08681 20.435 7.05423C20.3754 7.09266 20.3276 7.11355 20.2917 7.11689L19.8569 7.10813L19.6195 7.17956L19.4175 7.09979C19.4302 7.23306 19.1166 7.3594 18.4769 7.47879C18.4491 7.53517 18.4402 7.61666 18.4503 7.72328C18.3157 7.6701 18.2468 7.62722 18.2437 7.59465C17.6148 7.79669 17.3073 7.97027 17.321 8.11539L17.1915 8.27536L17.1422 8.27996L17.1823 8.17763L17.1688 8.03547L17.0702 8.04466C16.9665 8.1589 16.8994 8.31006 16.8691 8.49814L16.8198 8.50274L16.8151 8.45387L16.8551 8.35154C16.7476 8.36157 16.6655 8.35428 16.6089 8.32968L16.6131 8.3741L16.6852 8.6094Z" fill="#E72E2E"/>
<path d="M13.1975 11.8791C12.9225 11.8718 12.6925 11.8455 12.5073 11.8L12.4178 11.8576C12.1579 11.8819 12.0143 11.7503 11.987 11.4631L11.9422 11.4672C11.9481 11.5294 11.9182 11.5636 11.8525 11.5697C11.8477 11.5194 11.7416 11.4337 11.5342 11.3126C11.519 11.1526 11.4472 11.0787 11.3187 11.0906C11.3044 10.9396 11.3056 10.7781 11.3225 10.6062L11.2504 10.3709C11.2102 9.94743 11.3085 9.60064 11.5451 9.33059C12.3334 8.17251 12.8913 7.38101 13.2187 6.95609C14.9699 4.88958 15.835 3.74675 15.8142 3.52758L15.7649 3.53218C15.4184 3.6601 14.5923 3.84915 13.2868 4.09933C13.1591 4.18294 13.0247 4.30752 12.8837 4.47304L12.8344 4.47764L12.5882 4.45577C12.593 4.50612 12.4854 4.56395 12.2655 4.62927C11.9894 4.61019 11.6844 4.47728 11.3506 4.23053L11.3459 4.18166C11.3963 3.69592 11.4379 3.45152 11.4708 3.44846C11.4579 3.31222 11.6862 3.14602 12.1559 2.94985C12.7382 2.60575 13.1907 2.41866 13.5133 2.38858C13.7225 2.27348 14.2765 2.12472 15.1755 1.94231L16.045 1.86126C16.2392 1.84316 16.459 1.9362 16.7044 2.1404L17.4753 2.06854L17.4888 2.2107C17.4649 2.21293 17.3708 2.23813 17.2066 2.2863C17.2139 2.36331 17.4142 2.42531 17.8075 2.4723C17.8106 2.50488 17.8285 2.51964 17.8614 2.51657L18.1482 2.48984L18.1571 2.58313L17.9644 2.60109L17.9736 2.69883L18.4711 2.79587L18.48 2.88916L18.4307 2.89375L18.3324 2.8581L18.4044 3.0934L18.4086 3.13783C18.2791 3.17081 18.221 3.2569 18.2342 3.3961L18.1401 3.40488C18.0744 3.411 18.037 3.36668 18.028 3.27191L17.8353 3.28987L17.8488 3.43203C17.862 3.57123 17.792 3.69129 17.6388 3.79222C17.6478 3.887 17.6045 3.93884 17.5089 3.94775L17.3655 3.96112C17.2121 4.25031 17.042 4.50669 16.8552 4.73026C16.6748 4.89348 16.5883 5.01508 16.5959 5.09504C16.4347 5.33416 16.3332 5.45567 16.2914 5.45957C16.1538 5.69349 15.951 5.95441 15.683 6.24234C15.6872 6.28676 15.5574 6.4602 15.2938 6.76265C15.0855 6.98225 14.9841 7.12019 14.9894 7.17646L14.9446 7.18063L14.8413 7.14096L14.846 7.18983L14.8953 7.18523C14.6088 7.59737 14.4343 7.80636 14.3715 7.81221C14.3766 7.86552 14.3349 7.95008 14.2464 8.06589L14.3045 8.15458C14.1103 8.17269 14.0163 8.21432 14.0225 8.27948L14.0718 8.27488C14.0763 8.32227 13.9883 8.41115 13.8077 8.54151C13.8136 8.60371 13.7359 8.64233 13.5746 8.65737L13.5838 8.7551L13.678 8.74633C13.5974 8.97792 13.5258 9.09664 13.4631 9.10249C13.4033 9.10806 13.3781 9.15972 13.3873 9.25745L13.2841 9.21778L13.2888 9.26664L13.3381 9.26205L13.0876 9.72013L13.0918 9.76455L13.7416 9.41714C14.055 9.28933 15.0314 8.79494 16.6708 7.93399C17.3132 7.68289 17.6716 7.521 17.7461 7.44832L18.1315 7.41239C18.4868 7.21793 18.8168 7.10649 19.1216 7.07808L19.3143 7.06011L19.3054 6.96682L19.4488 6.95345L19.5521 6.99313C19.5459 6.92797 19.5906 6.89093 19.6862 6.88202C19.7519 6.87589 19.7864 6.88912 19.7895 6.9217L20.1209 6.8415L20.5064 6.80557C20.5392 6.8025 20.5572 6.81726 20.5603 6.84984L20.6543 6.79178L20.6991 6.7876C20.8754 6.77117 21.1983 6.91884 21.668 7.23061C21.7337 7.22448 21.774 7.2999 21.7889 7.45687L21.807 7.6479L21.4171 7.68424C21.4323 7.84417 21.4085 7.92706 21.3458 7.93291C20.805 7.98333 20.4152 8.14814 20.1764 8.42735C19.7686 8.57593 19.5685 8.69168 19.5764 8.77461C19.582 8.83384 19.0744 9.13812 18.0534 9.68745C17.4027 10.1037 16.6951 10.5088 15.9307 10.9027L15.5635 11.1789C15.5964 11.1759 15.6142 11.1892 15.6171 11.2188L15.5678 11.2234L15.4694 11.1877L14.2908 11.5844L13.9502 11.6162L13.8515 11.5761C13.8577 11.6412 13.6397 11.7422 13.1975 11.8791ZM16.3349 4.39333C16.4449 4.28149 16.5239 4.09784 16.572 3.84237L16.8094 3.77094C16.8052 3.72652 16.7529 3.68359 16.6525 3.64215L16.3974 4.05137L16.2768 4.30463L16.2856 4.39792L16.3349 4.39333ZM16.6852 8.6094L18.5131 7.86085L19.9198 7.29498C20.1438 7.24123 20.3365 7.20684 20.4978 7.1918C20.459 7.13267 20.4381 7.08681 20.435 7.05423C20.3754 7.09266 20.3276 7.11355 20.2917 7.11689L19.8569 7.10813L19.6195 7.17956L19.4175 7.09979C19.4302 7.23306 19.1166 7.3594 18.4769 7.47879C18.4491 7.53517 18.4402 7.61666 18.4503 7.72328C18.3157 7.6701 18.2468 7.62722 18.2437 7.59465C17.6148 7.79669 17.3073 7.97027 17.321 8.11539L17.1915 8.27536L17.1422 8.27996L17.1823 8.17763L17.1688 8.03547L17.0702 8.04466C16.9665 8.1589 16.8994 8.31006 16.8691 8.49814L16.8198 8.50274L16.8151 8.45387L16.8551 8.35154C16.7476 8.36157 16.6655 8.35428 16.6089 8.32968L16.6131 8.3741L16.6852 8.6094Z" stroke="#E72E2E" stroke-width="0.485823" mask="url(#path-2-outside-1_3490_5102)"/>
<mask id="path-3-outside-2_3490_5102" maskUnits="userSpaceOnUse" x="16.4957" y="1.0652" width="13.7967" height="11.9355" fill="black">
<rect fill="white" x="16.4957" y="1.0652" width="13.7967" height="11.9355"/>
<path d="M19.3059 11.9525C19.0361 11.8995 18.8138 11.8352 18.6389 11.7595L18.541 11.8014C18.2806 11.782 18.1614 11.6284 18.1832 11.3407L18.1383 11.3373C18.1336 11.3996 18.0983 11.4283 18.0325 11.4234C18.0363 11.373 17.9463 11.2708 17.7623 11.1169C17.7745 10.9567 17.7162 10.8718 17.5876 10.8622C17.599 10.7109 17.6277 10.552 17.6734 10.3853L17.6423 10.1414C17.6745 9.7172 17.8301 9.39171 18.1091 9.16493C19.0827 8.15467 19.7668 7.46738 20.1616 7.10306C22.2382 5.35772 23.2849 4.37529 23.3015 4.15578L23.2522 4.1521C22.8889 4.22045 22.0425 4.26918 20.7131 4.29829C20.5731 4.35944 20.4195 4.45985 20.2524 4.59952L20.203 4.59584L19.964 4.53326C19.9602 4.58369 19.8444 4.62278 19.6165 4.65053C19.3476 4.58572 19.0695 4.40388 18.7822 4.10502L18.7859 4.05608C18.9179 3.58564 19.0004 3.35165 19.0333 3.3541C19.0437 3.21765 19.297 3.09187 19.7933 2.97675C20.4256 2.73455 20.9033 2.62551 21.2265 2.64962C21.4522 2.571 22.0236 2.51667 22.9407 2.48665L23.8116 2.55161C24.0061 2.56612 24.207 2.69447 24.4143 2.93665L25.1864 2.99425L25.1756 3.13663C25.1516 3.13484 25.0546 3.14402 24.8846 3.16414C24.8787 3.24127 25.0656 3.33576 25.4454 3.44761C25.4429 3.48024 25.4581 3.49779 25.491 3.50024L25.7783 3.52167L25.7712 3.61511L25.5782 3.60071L25.5708 3.6986L26.0447 3.87715L26.0376 3.97059L25.9883 3.96691L25.8974 3.91538L25.9285 4.15934L25.9251 4.20383C25.7919 4.21478 25.72 4.28996 25.7094 4.42937L25.6151 4.42234C25.5493 4.41743 25.52 4.36751 25.5272 4.27259L25.3342 4.25819L25.3234 4.40058C25.3128 4.53999 25.2234 4.64669 25.0553 4.72066C25.0481 4.81558 24.9966 4.85947 24.9008 4.85232L24.7572 4.84161C24.5569 5.10112 24.3458 5.32551 24.1238 5.51478C23.9182 5.64562 23.8124 5.75109 23.8063 5.83118C23.6069 6.04004 23.4862 6.14291 23.4443 6.13978C23.2691 6.34746 23.0249 6.57088 22.7118 6.81004C22.7084 6.85453 22.5511 7.00389 22.2399 7.2581C21.9974 7.43988 21.874 7.55895 21.8697 7.61531L21.8248 7.61196L21.7298 7.55565L21.7261 7.6046L21.7755 7.60828C21.4232 7.96683 21.2157 8.14376 21.1528 8.13907C21.1488 8.19246 21.0933 8.26887 20.9865 8.36829L21.0287 8.46541C20.8342 8.4509 20.7345 8.47628 20.7295 8.54154L20.7789 8.54522C20.7753 8.59268 20.6735 8.66563 20.4734 8.76406C20.4687 8.82636 20.3855 8.85148 20.2239 8.83942L20.2165 8.93731L20.3107 8.94434C20.1921 9.15923 20.1014 9.26433 20.0385 9.25964C19.9787 9.25517 19.945 9.30189 19.9376 9.39978L19.8426 9.34346L19.8389 9.39241L19.8882 9.39609L19.5637 9.80593L19.5603 9.85042L20.2597 9.61622C20.5904 9.54244 21.6367 9.21777 23.3988 8.64222C24.0746 8.50171 24.4553 8.40184 24.5411 8.34261L24.9271 8.37141C25.3103 8.2389 25.6546 8.18404 25.9598 8.20681L26.1528 8.22121L26.1599 8.12777L26.3035 8.13848L26.3986 8.1948C26.4035 8.12954 26.4539 8.10048 26.5497 8.10762C26.6155 8.11253 26.6472 8.1313 26.6447 8.16393L26.9851 8.1401L27.3711 8.1689C27.404 8.17136 27.4192 8.1889 27.4168 8.22153L27.5192 8.17995L27.5641 8.1833C27.7407 8.19647 28.034 8.39585 28.4441 8.78144C28.5099 8.78635 28.5369 8.86741 28.525 9.02463L28.5104 9.21596L28.1199 9.18682C28.1077 9.34701 28.0702 9.42475 28.0074 9.42007C27.4658 9.37966 27.0536 9.47719 26.7709 9.71265C26.3436 9.79115 26.1268 9.87193 26.1205 9.95499C26.116 10.0143 25.564 10.2297 24.4644 10.6011C23.7523 10.903 22.9861 11.1844 22.1658 11.4454L21.757 11.6565C21.7899 11.659 21.8053 11.675 21.803 11.7047L21.7536 11.701L21.6628 11.6495L20.4337 11.8442L20.0925 11.8187L20.002 11.7627C19.997 11.828 19.765 11.8912 19.3059 11.9525ZM23.668 5.09596C23.7954 5.00404 23.9044 4.83616 23.9952 4.59235L24.2413 4.56149C24.2447 4.51699 24.2004 4.46596 24.1085 4.40839L23.7876 4.76928L23.6258 4.99884L23.6187 5.09228L23.668 5.09596ZM23.2984 9.31041L25.2273 8.87707L26.7099 8.55362C26.9398 8.53796 27.1356 8.53616 27.2972 8.54821C27.269 8.48346 27.2561 8.43477 27.2586 8.40214C27.1933 8.43008 27.1427 8.44272 27.1067 8.44004L26.6795 8.35895L26.4334 8.38981L26.2479 8.27752C26.2377 8.41101 25.9072 8.4833 25.2563 8.49441C25.2194 8.54535 25.1968 8.62421 25.1887 8.731C25.065 8.65614 25.0044 8.6024 25.0068 8.56977C24.3526 8.66415 24.02 8.78402 24.009 8.92937L23.8542 9.06549L23.8048 9.06181L23.8616 8.9676L23.8724 8.82522L23.7737 8.81785C23.6521 8.91319 23.5604 9.05103 23.4985 9.23137L23.4492 9.22769L23.4529 9.17874L23.5097 9.08454C23.4019 9.0765 23.3223 9.05564 23.2707 9.02196L23.2673 9.06646L23.2984 9.31041Z"/>
</mask>
<path d="M19.3059 11.9525C19.0361 11.8995 18.8138 11.8352 18.6389 11.7595L18.541 11.8014C18.2806 11.782 18.1614 11.6284 18.1832 11.3407L18.1383 11.3373C18.1336 11.3996 18.0983 11.4283 18.0325 11.4234C18.0363 11.373 17.9463 11.2708 17.7623 11.1169C17.7745 10.9567 17.7162 10.8718 17.5876 10.8622C17.599 10.7109 17.6277 10.552 17.6734 10.3853L17.6423 10.1414C17.6745 9.7172 17.8301 9.39171 18.1091 9.16493C19.0827 8.15467 19.7668 7.46738 20.1616 7.10306C22.2382 5.35772 23.2849 4.37529 23.3015 4.15578L23.2522 4.1521C22.8889 4.22045 22.0425 4.26918 20.7131 4.29829C20.5731 4.35944 20.4195 4.45985 20.2524 4.59952L20.203 4.59584L19.964 4.53326C19.9602 4.58369 19.8444 4.62278 19.6165 4.65053C19.3476 4.58572 19.0695 4.40388 18.7822 4.10502L18.7859 4.05608C18.9179 3.58564 19.0004 3.35165 19.0333 3.3541C19.0437 3.21765 19.297 3.09187 19.7933 2.97675C20.4256 2.73455 20.9033 2.62551 21.2265 2.64962C21.4522 2.571 22.0236 2.51667 22.9407 2.48665L23.8116 2.55161C24.0061 2.56612 24.207 2.69447 24.4143 2.93665L25.1864 2.99425L25.1756 3.13663C25.1516 3.13484 25.0546 3.14402 24.8846 3.16414C24.8787 3.24127 25.0656 3.33576 25.4454 3.44761C25.4429 3.48024 25.4581 3.49779 25.491 3.50024L25.7783 3.52167L25.7712 3.61511L25.5782 3.60071L25.5708 3.6986L26.0447 3.87715L26.0376 3.97059L25.9883 3.96691L25.8974 3.91538L25.9285 4.15934L25.9251 4.20383C25.7919 4.21478 25.72 4.28996 25.7094 4.42937L25.6151 4.42234C25.5493 4.41743 25.52 4.36751 25.5272 4.27259L25.3342 4.25819L25.3234 4.40058C25.3128 4.53999 25.2234 4.64669 25.0553 4.72066C25.0481 4.81558 24.9966 4.85947 24.9008 4.85232L24.7572 4.84161C24.5569 5.10112 24.3458 5.32551 24.1238 5.51478C23.9182 5.64562 23.8124 5.75109 23.8063 5.83118C23.6069 6.04004 23.4862 6.14291 23.4443 6.13978C23.2691 6.34746 23.0249 6.57088 22.7118 6.81004C22.7084 6.85453 22.5511 7.00389 22.2399 7.2581C21.9974 7.43988 21.874 7.55895 21.8697 7.61531L21.8248 7.61196L21.7298 7.55565L21.7261 7.6046L21.7755 7.60828C21.4232 7.96683 21.2157 8.14376 21.1528 8.13907C21.1488 8.19246 21.0933 8.26887 20.9865 8.36829L21.0287 8.46541C20.8342 8.4509 20.7345 8.47628 20.7295 8.54154L20.7789 8.54522C20.7753 8.59268 20.6735 8.66563 20.4734 8.76406C20.4687 8.82636 20.3855 8.85148 20.2239 8.83942L20.2165 8.93731L20.3107 8.94434C20.1921 9.15923 20.1014 9.26433 20.0385 9.25964C19.9787 9.25517 19.945 9.30189 19.9376 9.39978L19.8426 9.34346L19.8389 9.39241L19.8882 9.39609L19.5637 9.80593L19.5603 9.85042L20.2597 9.61622C20.5904 9.54244 21.6367 9.21777 23.3988 8.64222C24.0746 8.50171 24.4553 8.40184 24.5411 8.34261L24.9271 8.37141C25.3103 8.2389 25.6546 8.18404 25.9598 8.20681L26.1528 8.22121L26.1599 8.12777L26.3035 8.13848L26.3986 8.1948C26.4035 8.12954 26.4539 8.10048 26.5497 8.10762C26.6155 8.11253 26.6472 8.1313 26.6447 8.16393L26.9851 8.1401L27.3711 8.1689C27.404 8.17136 27.4192 8.1889 27.4168 8.22153L27.5192 8.17995L27.5641 8.1833C27.7407 8.19647 28.034 8.39585 28.4441 8.78144C28.5099 8.78635 28.5369 8.86741 28.525 9.02463L28.5104 9.21596L28.1199 9.18682C28.1077 9.34701 28.0702 9.42475 28.0074 9.42007C27.4658 9.37966 27.0536 9.47719 26.7709 9.71265C26.3436 9.79115 26.1268 9.87193 26.1205 9.95499C26.116 10.0143 25.564 10.2297 24.4644 10.6011C23.7523 10.903 22.9861 11.1844 22.1658 11.4454L21.757 11.6565C21.7899 11.659 21.8053 11.675 21.803 11.7047L21.7536 11.701L21.6628 11.6495L20.4337 11.8442L20.0925 11.8187L20.002 11.7627C19.997 11.828 19.765 11.8912 19.3059 11.9525ZM23.668 5.09596C23.7954 5.00404 23.9044 4.83616 23.9952 4.59235L24.2413 4.56149C24.2447 4.51699 24.2004 4.46596 24.1085 4.40839L23.7876 4.76928L23.6258 4.99884L23.6187 5.09228L23.668 5.09596ZM23.2984 9.31041L25.2273 8.87707L26.7099 8.55362C26.9398 8.53796 27.1356 8.53616 27.2972 8.54821C27.269 8.48346 27.2561 8.43477 27.2586 8.40214C27.1933 8.43008 27.1427 8.44272 27.1067 8.44004L26.6795 8.35895L26.4334 8.38981L26.2479 8.27752C26.2377 8.41101 25.9072 8.4833 25.2563 8.49441C25.2194 8.54535 25.1968 8.62421 25.1887 8.731C25.065 8.65614 25.0044 8.6024 25.0068 8.56977C24.3526 8.66415 24.02 8.78402 24.009 8.92937L23.8542 9.06549L23.8048 9.06181L23.8616 8.9676L23.8724 8.82522L23.7737 8.81785C23.6521 8.91319 23.5604 9.05103 23.4985 9.23137L23.4492 9.22769L23.4529 9.17874L23.5097 9.08454C23.4019 9.0765 23.3223 9.05564 23.2707 9.02196L23.2673 9.06646L23.2984 9.31041Z" fill="#E72E2E"/>
<path d="M19.3059 11.9525C19.0361 11.8995 18.8138 11.8352 18.6389 11.7595L18.541 11.8014C18.2806 11.782 18.1614 11.6284 18.1832 11.3407L18.1383 11.3373C18.1336 11.3996 18.0983 11.4283 18.0325 11.4234C18.0363 11.373 17.9463 11.2708 17.7623 11.1169C17.7745 10.9567 17.7162 10.8718 17.5876 10.8622C17.599 10.7109 17.6277 10.552 17.6734 10.3853L17.6423 10.1414C17.6745 9.7172 17.8301 9.39171 18.1091 9.16493C19.0827 8.15467 19.7668 7.46738 20.1616 7.10306C22.2382 5.35772 23.2849 4.37529 23.3015 4.15578L23.2522 4.1521C22.8889 4.22045 22.0425 4.26918 20.7131 4.29829C20.5731 4.35944 20.4195 4.45985 20.2524 4.59952L20.203 4.59584L19.964 4.53326C19.9602 4.58369 19.8444 4.62278 19.6165 4.65053C19.3476 4.58572 19.0695 4.40388 18.7822 4.10502L18.7859 4.05608C18.9179 3.58564 19.0004 3.35165 19.0333 3.3541C19.0437 3.21765 19.297 3.09187 19.7933 2.97675C20.4256 2.73455 20.9033 2.62551 21.2265 2.64962C21.4522 2.571 22.0236 2.51667 22.9407 2.48665L23.8116 2.55161C24.0061 2.56612 24.207 2.69447 24.4143 2.93665L25.1864 2.99425L25.1756 3.13663C25.1516 3.13484 25.0546 3.14402 24.8846 3.16414C24.8787 3.24127 25.0656 3.33576 25.4454 3.44761C25.4429 3.48024 25.4581 3.49779 25.491 3.50024L25.7783 3.52167L25.7712 3.61511L25.5782 3.60071L25.5708 3.6986L26.0447 3.87715L26.0376 3.97059L25.9883 3.96691L25.8974 3.91538L25.9285 4.15934L25.9251 4.20383C25.7919 4.21478 25.72 4.28996 25.7094 4.42937L25.6151 4.42234C25.5493 4.41743 25.52 4.36751 25.5272 4.27259L25.3342 4.25819L25.3234 4.40058C25.3128 4.53999 25.2234 4.64669 25.0553 4.72066C25.0481 4.81558 24.9966 4.85947 24.9008 4.85232L24.7572 4.84161C24.5569 5.10112 24.3458 5.32551 24.1238 5.51478C23.9182 5.64562 23.8124 5.75109 23.8063 5.83118C23.6069 6.04004 23.4862 6.14291 23.4443 6.13978C23.2691 6.34746 23.0249 6.57088 22.7118 6.81004C22.7084 6.85453 22.5511 7.00389 22.2399 7.2581C21.9974 7.43988 21.874 7.55895 21.8697 7.61531L21.8248 7.61196L21.7298 7.55565L21.7261 7.6046L21.7755 7.60828C21.4232 7.96683 21.2157 8.14376 21.1528 8.13907C21.1488 8.19246 21.0933 8.26887 20.9865 8.36829L21.0287 8.46541C20.8342 8.4509 20.7345 8.47628 20.7295 8.54154L20.7789 8.54522C20.7753 8.59268 20.6735 8.66563 20.4734 8.76406C20.4687 8.82636 20.3855 8.85148 20.2239 8.83942L20.2165 8.93731L20.3107 8.94434C20.1921 9.15923 20.1014 9.26433 20.0385 9.25964C19.9787 9.25517 19.945 9.30189 19.9376 9.39978L19.8426 9.34346L19.8389 9.39241L19.8882 9.39609L19.5637 9.80593L19.5603 9.85042L20.2597 9.61622C20.5904 9.54244 21.6367 9.21777 23.3988 8.64222C24.0746 8.50171 24.4553 8.40184 24.5411 8.34261L24.9271 8.37141C25.3103 8.2389 25.6546 8.18404 25.9598 8.20681L26.1528 8.22121L26.1599 8.12777L26.3035 8.13848L26.3986 8.1948C26.4035 8.12954 26.4539 8.10048 26.5497 8.10762C26.6155 8.11253 26.6472 8.1313 26.6447 8.16393L26.9851 8.1401L27.3711 8.1689C27.404 8.17136 27.4192 8.1889 27.4168 8.22153L27.5192 8.17995L27.5641 8.1833C27.7407 8.19647 28.034 8.39585 28.4441 8.78144C28.5099 8.78635 28.5369 8.86741 28.525 9.02463L28.5104 9.21596L28.1199 9.18682C28.1077 9.34701 28.0702 9.42475 28.0074 9.42007C27.4658 9.37966 27.0536 9.47719 26.7709 9.71265C26.3436 9.79115 26.1268 9.87193 26.1205 9.95499C26.116 10.0143 25.564 10.2297 24.4644 10.6011C23.7523 10.903 22.9861 11.1844 22.1658 11.4454L21.757 11.6565C21.7899 11.659 21.8053 11.675 21.803 11.7047L21.7536 11.701L21.6628 11.6495L20.4337 11.8442L20.0925 11.8187L20.002 11.7627C19.997 11.828 19.765 11.8912 19.3059 11.9525ZM23.668 5.09596C23.7954 5.00404 23.9044 4.83616 23.9952 4.59235L24.2413 4.56149C24.2447 4.51699 24.2004 4.46596 24.1085 4.40839L23.7876 4.76928L23.6258 4.99884L23.6187 5.09228L23.668 5.09596ZM23.2984 9.31041L25.2273 8.87707L26.7099 8.55362C26.9398 8.53796 27.1356 8.53616 27.2972 8.54821C27.269 8.48346 27.2561 8.43477 27.2586 8.40214C27.1933 8.43008 27.1427 8.44272 27.1067 8.44004L26.6795 8.35895L26.4334 8.38981L26.2479 8.27752C26.2377 8.41101 25.9072 8.4833 25.2563 8.49441C25.2194 8.54535 25.1968 8.62421 25.1887 8.731C25.065 8.65614 25.0044 8.6024 25.0068 8.56977C24.3526 8.66415 24.02 8.78402 24.009 8.92937L23.8542 9.06549L23.8048 9.06181L23.8616 8.9676L23.8724 8.82522L23.7737 8.81785C23.6521 8.91319 23.5604 9.05103 23.4985 9.23137L23.4492 9.22769L23.4529 9.17874L23.5097 9.08454C23.4019 9.0765 23.3223 9.05564 23.2707 9.02196L23.2673 9.06646L23.2984 9.31041Z" stroke="#E72E2E" stroke-width="0.485823" mask="url(#path-3-outside-2_3490_5102)"/>
<mask id="path-4-outside-3_3490_5102" maskUnits="userSpaceOnUse" x="23" y="0.296875" width="12" height="13" fill="black">
<rect fill="white" x="23" y="0.296875" width="12" height="13"/>
<path d="M33.293 12.439C33.1889 12.3385 32.9233 12.2204 32.496 12.0847C32.496 12.0385 32.2755 11.9516 31.8346 11.824C31.8346 11.7915 31.7455 11.7182 31.5675 11.6041V11.5145L31.8756 11.5593H32.0112C32.0687 11.5593 32.0975 11.5308 32.0975 11.4738C32.0975 11.3815 31.8181 10.6648 31.2594 9.32359C31.2594 9.1444 31.1115 8.69101 30.8157 7.9634C30.2487 8.13987 29.6298 8.27155 28.9587 8.35843C28.9587 8.32856 28.9437 8.31363 28.9135 8.31363C28.9135 8.40051 28.8245 8.45888 28.6465 8.48874C28.1453 8.60277 27.8947 8.76431 27.8947 8.97336C27.7084 9.55979 27.5318 9.96838 27.3647 10.1992V10.3335C27.4524 10.3335 27.4962 10.3621 27.4962 10.4191V10.4639L27.4099 10.4191H27.3195C27.2319 10.6471 27.1881 10.7937 27.1881 10.8589L27.0977 10.8141C27.0977 10.8901 27.0087 10.9783 26.8306 11.0788C26.8306 11.1331 26.669 11.3964 26.3458 11.8688L26.2555 11.9096H26.1692L25.9925 11.7792H25.9473C25.8898 11.7874 25.8611 11.8173 25.8611 11.8688C25.8885 11.9231 25.9022 11.9666 25.9022 11.9992L25.8159 12.044C25.7775 12.0141 25.7036 11.9992 25.594 11.9992C25.594 12.086 25.5351 12.1295 25.4174 12.1295L24.7066 11.6489C24.4629 11.6489 24.2273 11.2688 24 10.5087V10.244C24.5779 9.46748 24.9764 8.86748 25.1955 8.44395C25.1955 8.3815 25.2845 8.27969 25.4626 8.13852L26.124 6.69281C26.0939 6.67652 26.0788 6.57336 26.0788 6.38331C26.287 5.9462 26.4198 5.72765 26.4773 5.72765C26.6937 5.26068 27.0484 4.26566 27.5414 2.74258L27.9399 1.82222C27.9097 1.7652 27.8947 1.72176 27.8947 1.6919C28.0042 1.6919 28.1658 1.56022 28.3795 1.29688H28.5602L28.6013 1.47199H28.6465C28.7068 1.47199 28.7369 1.44212 28.7369 1.3824L29.1765 1.42719H29.2669C29.2669 1.51407 29.2956 1.55751 29.3531 1.55751H29.3983C29.3983 1.47063 29.4285 1.42719 29.4887 1.42719H29.5339C29.5914 1.43534 29.6202 1.4652 29.6202 1.51678L29.7106 1.47199H29.7516V1.6471H29.842C29.8995 1.6471 29.9283 1.61724 29.9283 1.55751V1.51678L29.8872 1.42719L30.1091 1.3824H30.1953L30.1501 1.47199V1.60231C30.2104 1.60231 30.2405 1.66068 30.2405 1.77742H30.5938C30.5938 1.80728 30.5788 1.82222 30.5487 1.82222C30.5623 1.96882 30.6075 2.04213 30.6842 2.04213V2.30276C30.7007 2.61498 30.7883 2.83489 30.9472 2.96249C30.9472 2.97606 30.9924 3.12267 31.0827 3.40231L31.169 3.35751H31.2142L31.3909 4.01724C31.4785 4.01724 31.5223 4.10412 31.5223 4.27788C31.4922 4.27788 31.4771 4.29281 31.4771 4.32267L31.5675 4.36747V4.32267C31.5374 4.32267 31.5223 4.30774 31.5223 4.27788H31.6579C31.6606 4.44349 31.7483 4.76521 31.9208 5.24304C31.8907 5.40322 31.8756 5.51996 31.8756 5.59326L31.966 5.63806C31.966 5.6082 31.9811 5.59326 32.0112 5.59326C32.0112 5.65299 32.0989 5.84304 32.2741 6.1634C33.1862 6.07652 33.7326 6.03308 33.9134 6.03308V6.12268H33.823L33.8682 6.33851L32.9849 6.60322L33.026 6.69281C33.026 6.83128 32.8945 6.91815 32.6316 6.95345V6.99824H32.7178V7.08784L32.6316 7.21815V7.30367C32.8671 8.04485 33.0588 8.70322 33.2067 9.27879C33.2067 9.32494 33.2355 9.38332 33.293 9.4539V9.4987C33.293 9.52856 33.2779 9.5435 33.2478 9.5435L33.6463 10.6838C33.6189 10.6838 33.6052 10.6987 33.6052 10.7286C33.7312 10.7286 33.8627 11.1806 33.9996 12.0847C33.901 12.0847 33.8285 12.158 33.7819 12.3046H33.5149C33.5149 12.3942 33.4409 12.439 33.293 12.439ZM27.6276 4.54258C27.6906 4.52901 27.7495 4.4557 27.8043 4.32267C27.7769 4.27109 27.7632 4.21272 27.7632 4.14756C27.8317 4.14756 27.9645 3.89914 28.1617 3.40231L28.1165 3.31272V3.26792C28.2781 3.08602 28.3658 2.8376 28.3795 2.52267H28.2028V2.61226H28.2932C27.8495 3.54349 27.6276 4.18693 27.6276 4.54258ZM28.8232 6.90865C28.9738 6.90865 29.4613 6.79191 30.2857 6.55842V6.51363C30.2857 6.45118 30.0789 5.82268 29.6654 4.6281V4.58738C29.5257 4.76928 29.3778 5.091 29.2217 5.55254C29.1559 5.95707 29.0382 6.35073 28.8684 6.73354H28.8232V6.90865ZM32.763 9.10368V9.05888C32.763 9.02359 32.748 8.87834 32.7178 8.62313L32.763 8.40322C32.7329 8.40322 32.7178 8.38829 32.7178 8.35843L32.6316 8.40322H32.5412C32.5412 8.19689 32.4823 8.09372 32.3645 8.09372C32.5426 8.76703 32.6754 9.10368 32.763 9.10368Z"/>
</mask>
<path d="M33.293 12.439C33.1889 12.3385 32.9233 12.2204 32.496 12.0847C32.496 12.0385 32.2755 11.9516 31.8346 11.824C31.8346 11.7915 31.7455 11.7182 31.5675 11.6041V11.5145L31.8756 11.5593H32.0112C32.0687 11.5593 32.0975 11.5308 32.0975 11.4738C32.0975 11.3815 31.8181 10.6648 31.2594 9.32359C31.2594 9.1444 31.1115 8.69101 30.8157 7.9634C30.2487 8.13987 29.6298 8.27155 28.9587 8.35843C28.9587 8.32856 28.9437 8.31363 28.9135 8.31363C28.9135 8.40051 28.8245 8.45888 28.6465 8.48874C28.1453 8.60277 27.8947 8.76431 27.8947 8.97336C27.7084 9.55979 27.5318 9.96838 27.3647 10.1992V10.3335C27.4524 10.3335 27.4962 10.3621 27.4962 10.4191V10.4639L27.4099 10.4191H27.3195C27.2319 10.6471 27.1881 10.7937 27.1881 10.8589L27.0977 10.8141C27.0977 10.8901 27.0087 10.9783 26.8306 11.0788C26.8306 11.1331 26.669 11.3964 26.3458 11.8688L26.2555 11.9096H26.1692L25.9925 11.7792H25.9473C25.8898 11.7874 25.8611 11.8173 25.8611 11.8688C25.8885 11.9231 25.9022 11.9666 25.9022 11.9992L25.8159 12.044C25.7775 12.0141 25.7036 11.9992 25.594 11.9992C25.594 12.086 25.5351 12.1295 25.4174 12.1295L24.7066 11.6489C24.4629 11.6489 24.2273 11.2688 24 10.5087V10.244C24.5779 9.46748 24.9764 8.86748 25.1955 8.44395C25.1955 8.3815 25.2845 8.27969 25.4626 8.13852L26.124 6.69281C26.0939 6.67652 26.0788 6.57336 26.0788 6.38331C26.287 5.9462 26.4198 5.72765 26.4773 5.72765C26.6937 5.26068 27.0484 4.26566 27.5414 2.74258L27.9399 1.82222C27.9097 1.7652 27.8947 1.72176 27.8947 1.6919C28.0042 1.6919 28.1658 1.56022 28.3795 1.29688H28.5602L28.6013 1.47199H28.6465C28.7068 1.47199 28.7369 1.44212 28.7369 1.3824L29.1765 1.42719H29.2669C29.2669 1.51407 29.2956 1.55751 29.3531 1.55751H29.3983C29.3983 1.47063 29.4285 1.42719 29.4887 1.42719H29.5339C29.5914 1.43534 29.6202 1.4652 29.6202 1.51678L29.7106 1.47199H29.7516V1.6471H29.842C29.8995 1.6471 29.9283 1.61724 29.9283 1.55751V1.51678L29.8872 1.42719L30.1091 1.3824H30.1953L30.1501 1.47199V1.60231C30.2104 1.60231 30.2405 1.66068 30.2405 1.77742H30.5938C30.5938 1.80728 30.5788 1.82222 30.5487 1.82222C30.5623 1.96882 30.6075 2.04213 30.6842 2.04213V2.30276C30.7007 2.61498 30.7883 2.83489 30.9472 2.96249C30.9472 2.97606 30.9924 3.12267 31.0827 3.40231L31.169 3.35751H31.2142L31.3909 4.01724C31.4785 4.01724 31.5223 4.10412 31.5223 4.27788C31.4922 4.27788 31.4771 4.29281 31.4771 4.32267L31.5675 4.36747V4.32267C31.5374 4.32267 31.5223 4.30774 31.5223 4.27788H31.6579C31.6606 4.44349 31.7483 4.76521 31.9208 5.24304C31.8907 5.40322 31.8756 5.51996 31.8756 5.59326L31.966 5.63806C31.966 5.6082 31.9811 5.59326 32.0112 5.59326C32.0112 5.65299 32.0989 5.84304 32.2741 6.1634C33.1862 6.07652 33.7326 6.03308 33.9134 6.03308V6.12268H33.823L33.8682 6.33851L32.9849 6.60322L33.026 6.69281C33.026 6.83128 32.8945 6.91815 32.6316 6.95345V6.99824H32.7178V7.08784L32.6316 7.21815V7.30367C32.8671 8.04485 33.0588 8.70322 33.2067 9.27879C33.2067 9.32494 33.2355 9.38332 33.293 9.4539V9.4987C33.293 9.52856 33.2779 9.5435 33.2478 9.5435L33.6463 10.6838C33.6189 10.6838 33.6052 10.6987 33.6052 10.7286C33.7312 10.7286 33.8627 11.1806 33.9996 12.0847C33.901 12.0847 33.8285 12.158 33.7819 12.3046H33.5149C33.5149 12.3942 33.4409 12.439 33.293 12.439ZM27.6276 4.54258C27.6906 4.52901 27.7495 4.4557 27.8043 4.32267C27.7769 4.27109 27.7632 4.21272 27.7632 4.14756C27.8317 4.14756 27.9645 3.89914 28.1617 3.40231L28.1165 3.31272V3.26792C28.2781 3.08602 28.3658 2.8376 28.3795 2.52267H28.2028V2.61226H28.2932C27.8495 3.54349 27.6276 4.18693 27.6276 4.54258ZM28.8232 6.90865C28.9738 6.90865 29.4613 6.79191 30.2857 6.55842V6.51363C30.2857 6.45118 30.0789 5.82268 29.6654 4.6281V4.58738C29.5257 4.76928 29.3778 5.091 29.2217 5.55254C29.1559 5.95707 29.0382 6.35073 28.8684 6.73354H28.8232V6.90865ZM32.763 9.10368V9.05888C32.763 9.02359 32.748 8.87834 32.7178 8.62313L32.763 8.40322C32.7329 8.40322 32.7178 8.38829 32.7178 8.35843L32.6316 8.40322H32.5412C32.5412 8.19689 32.4823 8.09372 32.3645 8.09372C32.5426 8.76703 32.6754 9.10368 32.763 9.10368Z" fill="#E72E2E"/>
<path d="M33.293 12.439L33.139 12.5985L33.2035 12.6607H33.293V12.439ZM32.496 12.0847H32.2743V12.2469L32.4289 12.296L32.496 12.0847ZM31.8346 11.824H31.6129V11.9907L31.7729 12.037L31.8346 11.824ZM31.5675 11.6041H31.3458V11.7254L31.4479 11.7908L31.5675 11.6041ZM31.5675 11.5145L31.5994 11.2952L31.3458 11.2583V11.5145H31.5675ZM31.8756 11.5593L31.8437 11.7787L31.8596 11.781H31.8756V11.5593ZM31.2594 9.32359H31.0377V9.36792L31.0547 9.40884L31.2594 9.32359ZM30.8157 7.9634L31.0211 7.87991L30.9443 7.69117L30.7498 7.75172L30.8157 7.9634ZM28.9587 8.35843H28.737V8.61068L28.9872 8.57829L28.9587 8.35843ZM28.9135 8.31363V8.09193H28.6918V8.31363H28.9135ZM28.6465 8.48874L28.6098 8.26974L28.5973 8.27257L28.6465 8.48874ZM27.8947 8.97336L28.106 9.04047L28.1164 9.00772V8.97336H27.8947ZM27.3647 10.1992L27.1851 10.0691L27.143 10.1273V10.1992H27.3647ZM27.3647 10.3335H27.143V10.5552H27.3647V10.3335ZM27.4962 10.4639L27.394 10.6606L27.7179 10.8288V10.4639H27.4962ZM27.4099 10.4191L27.5121 10.2223L27.464 10.1974H27.4099V10.4191ZM27.3195 10.4191V10.1974H27.1672L27.1126 10.3395L27.3195 10.4191ZM27.1881 10.8589L27.0896 11.0575L27.4098 11.2162V10.8589H27.1881ZM27.0977 10.8141L27.1961 10.6154L26.876 10.4568V10.8141H27.0977ZM26.8306 11.0788L26.7217 10.8857L26.6089 10.9493V11.0788H26.8306ZM26.3458 11.8688L26.4369 12.071L26.4937 12.0454L26.5288 11.994L26.3458 11.8688ZM26.2555 11.9096V12.1313H26.3031L26.3465 12.1117L26.2555 11.9096ZM26.1692 11.9096L26.0376 12.088L26.0963 12.1313H26.1692V11.9096ZM25.9925 11.7792L26.1241 11.6008L26.0655 11.5576H25.9925V11.7792ZM25.9473 11.7792V11.5576H25.9317L25.9163 11.5597L25.9473 11.7792ZM25.8611 11.8688H25.6394V11.9216L25.6631 11.9687L25.8611 11.8688ZM25.9022 11.9992L26.0043 12.1959L26.1238 12.1338V11.9992H25.9022ZM25.8159 12.044L25.6797 12.2189L25.7918 12.3062L25.918 12.2407L25.8159 12.044ZM25.594 11.9992V11.7775H25.3723V11.9992H25.594ZM25.4174 12.1295L25.2932 12.3131L25.3495 12.3512H25.4174V12.1295ZM24.7066 11.6489L24.8308 11.4653L24.7745 11.4272H24.7066V11.6489ZM24 10.5087H23.7783V10.5411L23.7876 10.5722L24 10.5087ZM24 10.244L23.8222 10.1116L23.7783 10.1705V10.244H24ZM25.1955 8.44395L25.3924 8.54582L25.4172 8.4979V8.44395H25.1955ZM25.4626 8.13852L25.6003 8.31222L25.642 8.27915L25.6642 8.23075L25.4626 8.13852ZM26.124 6.69281L26.3256 6.78505L26.4119 6.59644L26.2294 6.4978L26.124 6.69281ZM26.0788 6.38331L25.8786 6.28799L25.8571 6.33322V6.38331H26.0788ZM26.4773 5.72765V5.94935H26.6189L26.6785 5.82086L26.4773 5.72765ZM27.5414 2.74258L27.3379 2.65449L27.3337 2.66422L27.3304 2.67431L27.5414 2.74258ZM27.9399 1.82222L28.1433 1.9103L28.1856 1.81269L28.1359 1.71864L27.9399 1.82222ZM27.8947 1.6919V1.4702H27.673V1.6919H27.8947ZM28.3795 1.29688V1.07518H28.2738L28.2073 1.15721L28.3795 1.29688ZM28.5602 1.29688L28.7761 1.24624L28.7359 1.07518H28.5602V1.29688ZM28.6013 1.47199L28.3855 1.52263L28.4256 1.69369H28.6013V1.47199ZM28.7369 1.3824L28.7594 1.16184L28.5152 1.13696V1.3824H28.7369ZM29.1765 1.42719L29.154 1.64775L29.1652 1.64889H29.1765V1.42719ZM29.2669 1.42719H29.4886V1.20549H29.2669V1.42719ZM29.3983 1.55751V1.77921H29.62V1.55751H29.3983ZM29.5339 1.42719L29.565 1.20768L29.5495 1.20549H29.5339V1.42719ZM29.6202 1.51678H29.3985V1.87409L29.7186 1.71542L29.6202 1.51678ZM29.7106 1.47199V1.25029H29.6586L29.6121 1.27335L29.7106 1.47199ZM29.7516 1.47199H29.9733V1.25029H29.7516V1.47199ZM29.7516 1.6471H29.5299V1.8688H29.7516V1.6471ZM29.9283 1.51678H30.15V1.46838L30.1298 1.42438L29.9283 1.51678ZM29.8872 1.42719L29.8433 1.20988L29.5691 1.26526L29.6857 1.5196L29.8872 1.42719ZM30.1091 1.3824V1.1607H30.0869L30.0652 1.16508L30.1091 1.3824ZM30.1953 1.3824L30.3933 1.48224L30.5555 1.1607H30.1953V1.3824ZM30.1501 1.47199L29.9522 1.37215L29.9285 1.41924V1.47199H30.1501ZM30.1501 1.60231H29.9285V1.824H30.1501V1.60231ZM30.2405 1.77742H30.0188V1.99912H30.2405V1.77742ZM30.5938 1.77742H30.8155V1.55572H30.5938V1.77742ZM30.5487 1.82222V1.60052H30.3053L30.3279 1.84283L30.5487 1.82222ZM30.6842 2.04213H30.9059V1.82043H30.6842V2.04213ZM30.6842 2.30276L30.4622 2.30276L30.4628 2.31441L30.6842 2.30276ZM30.9472 2.96249H31.1689V2.85621L31.086 2.78965L30.9472 2.96249ZM31.0827 3.40231L30.8718 3.47049L30.9524 3.7198L31.1849 3.59906L31.0827 3.40231ZM31.169 3.35751V3.13582H31.1149L31.0668 3.16076L31.169 3.35751ZM31.2142 3.35751L31.4284 3.30017L31.3843 3.13582H31.2142V3.35751ZM31.3909 4.01724L31.1767 4.07459L31.2207 4.23894H31.3909V4.01724ZM31.4771 4.32267H31.2554V4.46023L31.3787 4.52131L31.4771 4.32267ZM31.5675 4.36747L31.4691 4.56611L31.7892 4.72478V4.36747H31.5675ZM31.5675 4.32267H31.7892V4.10098H31.5675V4.32267ZM31.6579 4.27788L31.8796 4.27421L31.876 4.05618H31.6579V4.27788ZM31.9208 5.24304L32.1387 5.28402L32.1499 5.2246L32.1294 5.16774L31.9208 5.24304ZM31.8756 5.59326H31.6539V5.73082L31.7772 5.7919L31.8756 5.59326ZM31.966 5.63806L31.8676 5.8367L32.1877 5.99537V5.63806H31.966ZM32.0112 5.59326H32.2329V5.37157H32.0112V5.59326ZM32.2741 6.1634L32.0797 6.26982L32.1498 6.39795L32.2952 6.3841L32.2741 6.1634ZM33.9134 6.03308H34.1351V5.81139H33.9134V6.03308ZM33.9134 6.12268V6.34437H34.1351V6.12268H33.9134ZM33.823 6.12268V5.90098H33.5501L33.606 6.16811L33.823 6.12268ZM33.8682 6.33851L33.9318 6.55088L34.1269 6.49242L34.0852 6.29308L33.8682 6.33851ZM32.9849 6.60322L32.9212 6.39085L32.6772 6.464L32.7834 6.69563L32.9849 6.60322ZM33.026 6.69281H33.2477V6.64441L33.2275 6.6004L33.026 6.69281ZM32.6316 6.95345L32.6021 6.73372L32.4099 6.75952V6.95345H32.6316ZM32.6316 6.99824H32.4099V7.21994H32.6316V6.99824ZM32.7178 6.99824H32.9395V6.77655H32.7178V6.99824ZM32.7178 7.08784L32.9027 7.21022L32.9395 7.15457V7.08784H32.7178ZM32.6316 7.21815L32.4467 7.09577L32.4099 7.15142V7.21815H32.6316ZM32.6316 7.30367H32.4099V7.33805L32.4203 7.37082L32.6316 7.30367ZM33.2067 9.27879H33.4284V9.25076L33.4215 9.22362L33.2067 9.27879ZM33.293 9.4539H33.5147V9.37502L33.4649 9.31386L33.293 9.4539ZM33.2478 9.5435V9.3218H32.9355L33.0385 9.61664L33.2478 9.5435ZM33.6463 10.6838V10.9055H33.9587L33.8556 10.6106L33.6463 10.6838ZM33.6052 10.7286H33.3835V10.9503H33.6052V10.7286ZM33.9996 12.0847V12.3064H34.2574L34.2188 12.0515L33.9996 12.0847ZM33.7819 12.3046V12.5263H33.9441L33.9932 12.3717L33.7819 12.3046ZM33.5149 12.3046V12.0829H33.2932V12.3046H33.5149ZM27.6276 4.54258H27.4059V4.81714L27.6743 4.75931L27.6276 4.54258ZM27.8043 4.32267L28.0093 4.40708L28.049 4.31074L28.0001 4.21871L27.8043 4.32267ZM27.7632 4.14756V3.92586H27.5415V4.14756H27.7632ZM28.1617 3.40231L28.3678 3.4841L28.4046 3.39145L28.3597 3.30246L28.1617 3.40231ZM28.1165 3.31272H27.8948V3.36547L27.9186 3.41256L28.1165 3.31272ZM28.1165 3.26792L27.9508 3.12068L27.8948 3.18367V3.26792H28.1165ZM28.3795 2.52267L28.601 2.5323L28.611 2.30097H28.3795V2.52267ZM28.2028 2.52267V2.30097H27.9811V2.52267H28.2028ZM28.2028 2.61226H27.9811V2.83396H28.2028V2.61226ZM28.2932 2.61226L28.4933 2.70762L28.6444 2.39056H28.2932V2.61226ZM28.8232 6.90865H28.6015V7.13035H28.8232V6.90865ZM30.2857 6.55842L30.3461 6.77173L30.5074 6.72605V6.55842H30.2857ZM29.6654 4.6281H29.4437V4.66539L29.4559 4.70063L29.6654 4.6281ZM29.6654 4.58738H29.8871V3.93467L29.4895 4.45235L29.6654 4.58738ZM29.2217 5.55254L29.0117 5.4815L29.0058 5.49888L29.0028 5.51698L29.2217 5.55254ZM28.8684 6.73354V6.95523H29.0125L29.071 6.82343L28.8684 6.73354ZM28.8232 6.73354V6.51184H28.6015V6.73354H28.8232ZM32.763 9.10368V9.32537H32.9847V9.10368H32.763ZM32.7178 8.62313L32.5007 8.57851L32.4935 8.61357L32.4977 8.64913L32.7178 8.62313ZM32.763 8.40322L32.9802 8.44785L33.0349 8.18153H32.763V8.40322ZM32.7178 8.35843H32.9395V7.99351L32.6157 8.16167L32.7178 8.35843ZM32.6316 8.40322V8.62492H32.6857L32.7337 8.59998L32.6316 8.40322ZM32.5412 8.40322H32.3195V8.62492H32.5412V8.40322ZM32.3645 8.09372V7.87202H32.0766L32.1502 8.15039L32.3645 8.09372ZM33.447 12.2795C33.3657 12.201 33.2433 12.1336 33.1058 12.0725C32.9626 12.0088 32.7809 11.9426 32.5631 11.8734L32.4289 12.296C32.6384 12.3625 32.8031 12.4232 32.9256 12.4776C33.0538 12.5346 33.1163 12.5765 33.139 12.5985L33.447 12.2795ZM32.7177 12.0847C32.7177 11.9915 32.6648 11.9316 32.6441 11.9104C32.6185 11.8842 32.5903 11.8653 32.5692 11.8526C32.5256 11.8263 32.4707 11.8018 32.4119 11.7786C32.2918 11.7313 32.1184 11.6754 31.8962 11.6111L31.7729 12.037C31.9917 12.1003 32.149 12.1516 32.2494 12.1912C32.3008 12.2114 32.3285 12.2253 32.3401 12.2322C32.3466 12.2362 32.339 12.2326 32.3272 12.2205C32.3203 12.2135 32.2743 12.1663 32.2743 12.0847H32.7177ZM32.0563 11.824C32.0563 11.7713 32.039 11.7305 32.027 11.7076C32.0143 11.6831 31.9995 11.6635 31.9876 11.6493C31.9639 11.6212 31.9355 11.5955 31.9087 11.5735C31.854 11.5284 31.7785 11.476 31.6871 11.4174L31.4479 11.7908C31.5346 11.8463 31.5926 11.8875 31.6269 11.9158C31.6446 11.9304 31.6496 11.9363 31.6482 11.9346C31.6474 11.9337 31.6409 11.926 31.6337 11.9123C31.6273 11.9 31.6129 11.8686 31.6129 11.824H32.0563ZM31.7892 11.6041V11.5145H31.3458V11.6041H31.7892ZM31.5356 11.7339L31.8437 11.7787L31.9075 11.3399L31.5994 11.2952L31.5356 11.7339ZM31.8756 11.781H32.0112V11.3376H31.8756V11.781ZM32.0112 11.781C32.0737 11.781 32.1613 11.7655 32.232 11.6954C32.303 11.625 32.3192 11.537 32.3192 11.4738H31.8758C31.8758 11.4677 31.8776 11.4224 31.9198 11.3805C31.9618 11.3389 32.0063 11.3376 32.0112 11.3376V11.781ZM32.3192 11.4738C32.3192 11.4272 32.3055 11.3774 32.2978 11.3499C32.2874 11.3129 32.2728 11.2675 32.2547 11.2151C32.2183 11.1099 32.1647 10.9666 32.0945 10.7865C31.9539 10.4257 31.7436 9.90938 31.464 9.23833L31.0547 9.40884C31.3339 10.079 31.5427 10.5916 31.6814 10.9475C31.7509 11.1258 31.802 11.2628 31.8356 11.3599C31.8524 11.4086 31.8639 11.4448 31.871 11.4699C31.8807 11.5046 31.8758 11.4974 31.8758 11.4738H32.3192ZM31.4811 9.32359C31.4811 9.19399 31.4322 9.00418 31.3592 8.7804C31.283 8.54659 31.1699 8.2459 31.0211 7.87991L30.6103 8.0469C30.7573 8.40851 30.8661 8.69832 30.9377 8.91791C31.0126 9.14752 31.0377 9.274 31.0377 9.32359H31.4811ZM30.7498 7.75172C30.1966 7.92391 29.5903 8.05311 28.9303 8.13856L28.9872 8.57829C29.6692 8.48999 30.3009 8.35584 30.8816 8.17508L30.7498 7.75172ZM29.1804 8.35843C29.1804 8.30883 29.1677 8.23101 29.1035 8.16738C29.0397 8.1041 28.9623 8.09193 28.9135 8.09193V8.53533C28.8949 8.53533 28.8401 8.53063 28.7914 8.48228C28.7422 8.43358 28.737 8.37816 28.737 8.35843H29.1804ZM28.6918 8.31363C28.6918 8.29532 28.6971 8.27503 28.7078 8.2576C28.7175 8.24182 28.7268 8.23615 28.7252 8.23718C28.7233 8.2384 28.7143 8.24372 28.6938 8.2505C28.6736 8.25715 28.6461 8.26401 28.6098 8.2701L28.6832 8.70739C28.7843 8.69043 28.8862 8.6618 28.9684 8.60796C29.0592 8.54836 29.1352 8.4492 29.1352 8.31363H28.6918ZM28.5973 8.27257C28.337 8.33179 28.1198 8.40771 27.9625 8.50908C27.8032 8.61175 27.673 8.76421 27.673 8.97336H28.1164C28.1164 8.96851 28.117 8.96202 28.1253 8.94967C28.1353 8.93492 28.1573 8.91104 28.2028 8.88176C28.2961 8.82159 28.4548 8.75973 28.6957 8.70492L28.5973 8.27257ZM27.6834 8.90625C27.498 9.49007 27.3299 9.8692 27.1851 10.0691L27.5443 10.3292C27.7337 10.0676 27.9189 9.62951 28.106 9.04047L27.6834 8.90625ZM27.143 10.1992V10.3335H27.5864V10.1992H27.143ZM27.3647 10.5552C27.3916 10.5552 27.3734 10.5609 27.3424 10.5408C27.3239 10.5287 27.3044 10.5095 27.2907 10.4827C27.2774 10.4568 27.2745 10.4334 27.2745 10.4191H27.7179C27.7179 10.3236 27.6755 10.2285 27.5842 10.1691C27.5094 10.1204 27.4255 10.1118 27.3647 10.1118V10.5552ZM27.2745 10.4191V10.4639H27.7179V10.4191H27.2745ZM27.5983 10.2671L27.5121 10.2223L27.3077 10.6158L27.394 10.6606L27.5983 10.2671ZM27.4099 10.1974H27.3195V10.6408H27.4099V10.1974ZM27.1126 10.3395C27.0678 10.4561 27.0327 10.5556 27.0085 10.6366C26.9865 10.7103 26.9664 10.7908 26.9664 10.8589H27.4098C27.4098 10.8618 27.4115 10.8365 27.4333 10.7636C27.453 10.6979 27.4836 10.6101 27.5265 10.4986L27.1126 10.3395ZM27.2865 10.6602L27.1961 10.6154L26.9992 11.0127L27.0896 11.0575L27.2865 10.6602ZM26.876 10.8141C26.876 10.7644 26.9033 10.7517 26.8748 10.7798C26.8504 10.8041 26.8028 10.8399 26.7217 10.8857L26.9396 11.2719C27.0364 11.2172 27.1224 11.1587 27.187 11.0947C27.2476 11.0347 27.3194 10.9398 27.3194 10.8141H26.876ZM26.6089 11.0788C26.6089 11.0427 26.6194 11.0207 26.6158 11.0304C26.6147 11.0333 26.611 11.042 26.6027 11.0582C26.5865 11.0902 26.5597 11.1372 26.5205 11.2011C26.4426 11.328 26.3238 11.5084 26.1629 11.7437L26.5288 11.994C26.6911 11.7569 26.8147 11.5694 26.8984 11.433C26.94 11.3652 26.9738 11.3066 26.9979 11.2592C27.0099 11.2357 27.0214 11.2113 27.0304 11.1875C27.0368 11.1706 27.0523 11.1285 27.0523 11.0788H26.6089ZM26.2548 11.6667L26.1644 11.7074L26.3465 12.1117L26.4369 12.071L26.2548 11.6667ZM26.2555 11.6879H26.1692V12.1313H26.2555V11.6879ZM26.3008 11.7312L26.1241 11.6008L25.8609 11.9577L26.0376 12.088L26.3008 11.7312ZM25.9925 11.5576H25.9473V12.0009H25.9925V11.5576ZM25.9163 11.5597C25.8578 11.568 25.7831 11.5915 25.7229 11.654C25.6596 11.7197 25.6394 11.8004 25.6394 11.8688H26.0828C26.0828 11.8857 26.0769 11.9256 26.0423 11.9615C26.011 11.9941 25.9794 11.9986 25.9784 11.9988L25.9163 11.5597ZM25.6631 11.9687C25.6731 11.9885 25.6782 12.0015 25.6804 12.0088C25.6815 12.0122 25.6816 12.0132 25.6814 12.012C25.6812 12.0108 25.6805 12.0063 25.6805 11.9992H26.1238C26.1238 11.9134 26.0907 11.8319 26.059 11.769L25.6631 11.9687ZM25.8 11.8024L25.7137 11.8472L25.918 12.2407L26.0043 12.1959L25.8 11.8024ZM25.9521 11.869C25.895 11.8246 25.8294 11.8039 25.7755 11.793C25.7192 11.7817 25.6576 11.7775 25.594 11.7775V12.2209C25.64 12.2209 25.6701 12.2241 25.6878 12.2277C25.6963 12.2294 25.6992 12.2307 25.6983 12.2303C25.6974 12.2299 25.69 12.2269 25.6797 12.2189L25.9521 11.869ZM25.3723 11.9992C25.3723 11.996 25.3729 11.9828 25.381 11.9649C25.3896 11.9457 25.4032 11.9296 25.4183 11.9185C25.4251 11.9134 25.4311 11.9103 25.4353 11.9084C25.4374 11.9075 25.439 11.9069 25.44 11.9066C25.4411 11.9062 25.4417 11.906 25.4417 11.906C25.4417 11.906 25.4412 11.9062 25.4402 11.9063C25.4392 11.9065 25.4376 11.9067 25.4355 11.907C25.4313 11.9074 25.4254 11.9078 25.4174 11.9078V12.3512C25.497 12.3512 25.597 12.3376 25.6815 12.2753C25.7786 12.2037 25.8157 12.0981 25.8157 11.9992H25.3723ZM25.5415 11.9458L24.8308 11.4653L24.5825 11.8326L25.2932 12.3131L25.5415 11.9458ZM24.7066 11.4272C24.7057 11.4272 24.7028 11.4272 24.6967 11.4248C24.6901 11.4222 24.6789 11.4165 24.6631 11.404C24.6302 11.3779 24.5867 11.3295 24.5356 11.2471C24.4331 11.0817 24.3241 10.8186 24.2124 10.4451L23.7876 10.5722C23.9033 10.9589 24.0256 11.2659 24.1587 11.4806C24.2839 11.6826 24.4613 11.8706 24.7066 11.8706V11.4272ZM24.2217 10.5087V10.244H23.7783V10.5087H24.2217ZM24.1778 10.3763C24.7572 9.59791 25.1647 8.98606 25.3924 8.54582L24.9986 8.34208C24.7881 8.7489 24.3986 9.33705 23.8222 10.1116L24.1778 10.3763ZM25.4172 8.44395C25.4172 8.46234 25.414 8.47612 25.4116 8.48391C25.4103 8.48793 25.4092 8.49086 25.4084 8.49265C25.4076 8.49444 25.4071 8.49536 25.4071 8.49536C25.4071 8.49537 25.4075 8.49468 25.4084 8.49326C25.4093 8.49185 25.4106 8.48988 25.4125 8.48732C25.4162 8.48214 25.4217 8.47528 25.4292 8.46668C25.4609 8.43042 25.5158 8.37926 25.6003 8.31222L25.3248 7.96481C25.2313 8.03895 25.1527 8.10929 25.0954 8.17483C25.0667 8.20766 25.0389 8.24431 25.0173 8.28411C24.9966 8.32224 24.9738 8.37763 24.9738 8.44395H25.4172ZM25.6642 8.23075L26.3256 6.78505L25.9224 6.60058L25.261 8.04628L25.6642 8.23075ZM26.2294 6.4978C26.2651 6.51707 26.2857 6.54199 26.2956 6.55629C26.3057 6.57084 26.3102 6.58231 26.3116 6.58586C26.314 6.59232 26.3122 6.58973 26.3095 6.57119C26.3043 6.53551 26.3005 6.4748 26.3005 6.38331H25.8571C25.8571 6.48187 25.8609 6.56776 25.8707 6.63525C25.8756 6.66829 25.8831 6.70643 25.8969 6.74275C25.907 6.76959 25.9378 6.84416 26.0186 6.88783L26.2294 6.4978ZM26.279 6.47863C26.3821 6.26202 26.4635 6.10621 26.524 6.00671C26.5548 5.95603 26.5757 5.9275 26.5872 5.91424C26.5932 5.90737 26.5911 5.91111 26.5812 5.91818C26.5749 5.92273 26.5374 5.94935 26.4773 5.94935V5.50596C26.4028 5.50596 26.3486 5.5394 26.3232 5.55761C26.2942 5.57835 26.2707 5.60257 26.2529 5.62302C26.2168 5.6644 26.1807 5.71783 26.1451 5.77642C26.0727 5.89548 25.9836 6.0675 25.8786 6.28799L26.279 6.47863ZM26.6785 5.82086C26.9015 5.33958 27.2601 4.33144 27.7523 2.81085L27.3304 2.67431C26.8366 4.19988 26.4859 5.18179 26.2762 5.63445L26.6785 5.82086ZM27.7448 2.83067L28.1433 1.9103L27.7364 1.73413L27.3379 2.65449L27.7448 2.83067ZM28.1359 1.71864C28.1242 1.69646 28.1181 1.68204 28.1154 1.67424C28.1142 1.67056 28.1142 1.67003 28.1147 1.67222C28.1151 1.67423 28.1164 1.68117 28.1164 1.6919H27.673C27.673 1.78041 27.7121 1.86572 27.7439 1.92579L28.1359 1.71864ZM27.8947 1.9136C28.0296 1.9136 28.1486 1.8379 28.2381 1.76501C28.3357 1.6855 28.4404 1.57367 28.5516 1.43654L28.2073 1.15721C28.1049 1.28343 28.022 1.36911 27.958 1.42128C27.8859 1.48006 27.8693 1.4702 27.8947 1.4702V1.9136ZM28.3795 1.51857H28.5602V1.07518H28.3795V1.51857ZM28.3444 1.34751L28.3855 1.52263L28.8172 1.42135L28.7761 1.24624L28.3444 1.34751ZM28.6013 1.69369H28.6465V1.25029H28.6013V1.69369ZM28.6465 1.69369C28.7103 1.69369 28.799 1.67779 28.8704 1.60704C28.9421 1.53594 28.9586 1.44693 28.9586 1.3824H28.5152C28.5152 1.37759 28.5166 1.33337 28.5582 1.29214C28.5995 1.25126 28.6429 1.25029 28.6465 1.25029V1.69369ZM28.7144 1.60295L29.154 1.64775L29.199 1.20664L28.7594 1.16184L28.7144 1.60295ZM29.1765 1.64889H29.2669V1.20549H29.1765V1.64889ZM29.0452 1.42719C29.0452 1.48807 29.054 1.57238 29.1036 1.64731C29.1638 1.7383 29.2591 1.77921 29.3531 1.77921V1.33581C29.3668 1.33581 29.3896 1.3385 29.4151 1.35135C29.4415 1.36464 29.4609 1.38382 29.4733 1.40255C29.4941 1.43404 29.4886 1.45319 29.4886 1.42719H29.0452ZM29.3531 1.77921H29.3983V1.33581H29.3531V1.77921ZM29.62 1.55751C29.62 1.53285 29.6255 1.55375 29.6031 1.58612C29.59 1.60501 29.5704 1.62305 29.5452 1.63515C29.5211 1.64674 29.5003 1.64889 29.4887 1.64889V1.20549C29.3977 1.20549 29.3015 1.24292 29.2388 1.33343C29.1862 1.40923 29.1766 1.49529 29.1766 1.55751H29.62ZM29.4887 1.64889H29.5339V1.20549H29.4887V1.64889ZM29.5028 1.6467C29.5018 1.64656 29.4703 1.64206 29.4389 1.60948C29.4043 1.57358 29.3985 1.53361 29.3985 1.51678H29.8419C29.8419 1.44837 29.8216 1.36768 29.7583 1.30192C29.6982 1.23948 29.6235 1.21597 29.565 1.20768L29.5028 1.6467ZM29.7186 1.71542L29.809 1.67063L29.6121 1.27335L29.5217 1.31815L29.7186 1.71542ZM29.7106 1.69369H29.7516V1.25029H29.7106V1.69369ZM29.5299 1.47199V1.6471H29.9733V1.47199H29.5299ZM29.7516 1.8688H29.842V1.4254H29.7516V1.8688ZM29.842 1.8688C29.9071 1.8688 29.9962 1.85145 30.0664 1.77848C30.1352 1.70707 30.15 1.6195 30.15 1.55751H29.7066C29.7066 1.55525 29.707 1.51247 29.747 1.47092C29.7885 1.42782 29.8344 1.4254 29.842 1.4254V1.8688ZM30.15 1.55751V1.51678H29.7066V1.55751H30.15ZM30.1298 1.42438L30.0887 1.33478L29.6857 1.5196L29.7268 1.60919L30.1298 1.42438ZM29.9311 1.6445L30.1529 1.59971L30.0652 1.16508L29.8433 1.20988L29.9311 1.6445ZM30.1091 1.60409H30.1953V1.1607H30.1091V1.60409ZM29.9974 1.28255L29.9522 1.37215L30.3481 1.57183L30.3933 1.48224L29.9974 1.28255ZM29.9285 1.47199V1.60231H30.3718V1.47199H29.9285ZM30.1501 1.824C30.1278 1.824 30.0982 1.81805 30.0694 1.79949C30.0417 1.7816 30.0272 1.76001 30.0209 1.74776C30.0151 1.73653 30.0152 1.73152 30.0164 1.7384C30.0175 1.74471 30.0188 1.75716 30.0188 1.77742H30.4622C30.4622 1.70718 30.4544 1.62079 30.4149 1.5444C30.3936 1.50298 30.3603 1.4595 30.31 1.42701C30.2586 1.39386 30.2026 1.38061 30.1501 1.38061V1.824ZM30.2405 1.99912H30.5938V1.55572H30.2405V1.99912ZM30.3721 1.77742C30.3721 1.75769 30.3773 1.70227 30.4265 1.65357C30.4752 1.60522 30.53 1.60052 30.5487 1.60052V2.04391C30.5974 2.04391 30.6748 2.03175 30.7386 1.96846C30.8028 1.90483 30.8155 1.82702 30.8155 1.77742H30.3721ZM30.3279 1.84283C30.336 1.92919 30.3552 2.02409 30.4041 2.10349C30.4612 2.19604 30.5583 2.26382 30.6842 2.26382V1.82043C30.702 1.82043 30.7249 1.82519 30.7469 1.8384C30.7677 1.85095 30.7781 1.86528 30.7815 1.87081C30.7845 1.87561 30.7825 1.87404 30.779 1.86108C30.7756 1.84853 30.772 1.82924 30.7694 1.8016L30.3279 1.84283ZM30.4625 2.04213V2.30276H30.9059V2.04213H30.4625ZM30.4628 2.31441C30.4808 2.65609 30.579 2.95115 30.8083 3.13533L31.086 2.78965C30.9976 2.71862 30.9205 2.57387 30.9056 2.29111L30.4628 2.31441ZM30.7255 2.96249C30.7255 2.9856 30.7292 3.00451 30.7298 3.00735C30.7311 3.01448 30.7326 3.02098 30.7338 3.0258C30.7361 3.03568 30.7391 3.04672 30.7423 3.05781C30.7486 3.0804 30.7577 3.11074 30.7692 3.14793C30.7922 3.2227 30.8265 3.33041 30.8718 3.47049L31.2937 3.33413C31.2486 3.19457 31.2151 3.08915 31.1929 3.01732C31.1818 2.98121 31.1739 2.95487 31.169 2.93742C31.1665 2.92848 31.1652 2.92366 31.1648 2.92183C31.1645 2.92079 31.165 2.92248 31.1656 2.92584C31.1659 2.92754 31.1666 2.93107 31.1672 2.93578C31.1676 2.93947 31.1689 2.94943 31.1689 2.96249H30.7255ZM31.1849 3.59906L31.2712 3.55427L31.0668 3.16076L30.9806 3.20555L31.1849 3.59906ZM31.169 3.57921H31.2142V3.13582H31.169V3.57921ZM31 3.41486L31.1767 4.07459L31.605 3.9599L31.4284 3.30017L31 3.41486ZM31.3909 4.23894C31.3744 4.23894 31.35 4.23424 31.3261 4.21849C31.3036 4.20359 31.2939 4.18698 31.2915 4.18224C31.2896 4.17842 31.2925 4.18268 31.2955 4.20061C31.2984 4.21794 31.3006 4.24316 31.3006 4.27788H31.744C31.744 4.17953 31.7328 4.07257 31.6874 3.98256C31.6631 3.93439 31.626 3.88519 31.5706 3.84857C31.5139 3.8111 31.4512 3.79554 31.3909 3.79554V4.23894ZM31.5223 4.05618C31.4736 4.05618 31.3962 4.06835 31.3324 4.13163C31.2682 4.19526 31.2554 4.27307 31.2554 4.32267H31.6988C31.6988 4.34241 31.6936 4.39782 31.6445 4.44652C31.5957 4.49487 31.5409 4.49957 31.5223 4.49957V4.05618ZM31.3787 4.52131L31.4691 4.56611L31.666 4.16883L31.5756 4.12403L31.3787 4.52131ZM31.7892 4.36747V4.32267H31.3458V4.36747H31.7892ZM31.5675 4.10098C31.5861 4.10098 31.6409 4.10568 31.6897 4.15403C31.7388 4.20273 31.744 4.25814 31.744 4.27788H31.3006C31.3006 4.32747 31.3134 4.40529 31.3775 4.46892C31.4414 4.5322 31.5188 4.54437 31.5675 4.54437V4.10098ZM31.5223 4.49957H31.6579V4.05618H31.5223V4.49957ZM31.4362 4.28154C31.4381 4.39324 31.467 4.53712 31.5118 4.70165C31.5578 4.87039 31.6249 5.07639 31.7123 5.31834L32.1294 5.16774C32.0442 4.93186 31.9813 4.73808 31.9396 4.5851C31.8968 4.42791 31.8805 4.32812 31.8796 4.27421L31.4362 4.28154ZM31.703 5.20206C31.6726 5.36347 31.6539 5.4977 31.6539 5.59326H32.0973C32.0973 5.54222 32.1088 5.44297 32.1387 5.28402L31.703 5.20206ZM31.7772 5.7919L31.8676 5.8367L32.0645 5.43942L31.9741 5.39462L31.7772 5.7919ZM32.1877 5.63806C32.1877 5.65779 32.1825 5.71321 32.1334 5.76191C32.0846 5.81026 32.0298 5.81496 32.0112 5.81496V5.37157C31.9625 5.37157 31.8851 5.38373 31.8212 5.44701C31.7571 5.51065 31.7443 5.58846 31.7443 5.63806H32.1877ZM31.7895 5.59326C31.7895 5.64883 31.8068 5.70271 31.8185 5.7359C31.8327 5.77636 31.8523 5.82276 31.8756 5.87344C31.9226 5.97522 31.9911 6.10793 32.0797 6.26982L32.4686 6.05698C32.3819 5.89851 32.319 5.77601 32.2783 5.68775C32.2578 5.6434 32.2446 5.61107 32.2368 5.58909C32.2266 5.55984 32.2329 5.56756 32.2329 5.59326H31.7895ZM32.2952 6.3841C33.2128 6.29669 33.7459 6.25478 33.9134 6.25478V5.81139C33.7193 5.81139 33.1596 5.85635 32.2531 5.9427L32.2952 6.3841ZM33.6917 6.03308V6.12268H34.1351V6.03308H33.6917ZM33.9134 5.90098H33.823V6.34437H33.9134V5.90098ZM33.606 6.16811L33.6512 6.38395L34.0852 6.29308L34.04 6.07724L33.606 6.16811ZM33.8045 6.12615L32.9212 6.39085L33.0485 6.81559L33.9318 6.55088L33.8045 6.12615ZM32.7834 6.69563L32.8245 6.78522L33.2275 6.6004L33.1864 6.51081L32.7834 6.69563ZM32.8043 6.69281C32.8043 6.69068 32.8053 6.68311 32.8098 6.67527C32.8138 6.66853 32.8154 6.67006 32.8051 6.67686C32.7802 6.69336 32.7201 6.71787 32.6021 6.73372L32.6611 7.17317C32.8059 7.15373 32.9431 7.11715 33.0496 7.04678C33.1674 6.96893 33.2477 6.84776 33.2477 6.69281H32.8043ZM32.4099 6.95345V6.99824H32.8533V6.95345H32.4099ZM32.6316 7.21994H32.7178V6.77655H32.6316V7.21994ZM32.4961 6.99824V7.08784H32.9395V6.99824H32.4961ZM32.533 6.96545L32.4467 7.09577L32.8164 7.34054L32.9027 7.21022L32.533 6.96545ZM32.4099 7.21815V7.30367H32.8533V7.21815H32.4099ZM32.4203 7.37082C32.6549 8.10917 32.8454 8.76342 32.992 9.33397L33.4215 9.22362C33.2723 8.64302 33.0793 7.98053 32.8429 7.23653L32.4203 7.37082ZM32.985 9.27879C32.985 9.40634 33.0581 9.51652 33.1211 9.59395L33.4649 9.31386C33.4428 9.28681 33.4319 9.26878 33.4272 9.25921C33.422 9.2488 33.4284 9.25689 33.4284 9.27879H32.985ZM33.0713 9.4539V9.4987H33.5147V9.4539H33.0713ZM33.0713 9.4987C33.0713 9.47897 33.0765 9.42355 33.1256 9.37485C33.1744 9.3265 33.2292 9.3218 33.2478 9.3218V9.76519C33.2966 9.76519 33.3739 9.75303 33.4378 9.68975C33.502 9.62611 33.5147 9.5483 33.5147 9.4987H33.0713ZM33.0385 9.61664L33.437 10.7569L33.8556 10.6106L33.4571 9.47036L33.0385 9.61664ZM33.6463 10.4621C33.5933 10.4621 33.5142 10.4774 33.4521 10.5451C33.3934 10.6092 33.3835 10.684 33.3835 10.7286H33.8269C33.8269 10.7433 33.824 10.7957 33.7789 10.8448C33.7305 10.8976 33.672 10.9055 33.6463 10.9055V10.4621ZM33.6052 10.9503C33.5502 10.9503 33.5158 10.9247 33.5056 10.9156C33.4965 10.9075 33.4984 10.906 33.5081 10.923C33.5274 10.9569 33.5542 11.0221 33.5855 11.1295C33.647 11.341 33.7123 11.6683 33.7804 12.1179L34.2188 12.0515C34.15 11.597 34.0812 11.2462 34.0112 11.0057C33.9767 10.8871 33.9385 10.7827 33.8934 10.7036C33.871 10.6642 33.8409 10.6203 33.7999 10.5839C33.7578 10.5466 33.6918 10.5069 33.6052 10.5069V10.9503ZM33.9996 11.863C33.8882 11.863 33.7895 11.9071 33.7137 11.9837C33.6436 12.0545 33.5997 12.1458 33.5706 12.2375L33.9932 12.3717C34.0015 12.3455 34.0097 12.3268 34.0166 12.314C34.0236 12.3012 34.0282 12.2963 34.0288 12.2956C34.029 12.2954 34.0254 12.299 34.0178 12.3022C34.0101 12.3056 34.0032 12.3064 33.9996 12.3064V11.863ZM33.7819 12.0829H33.5149V12.5263H33.7819V12.0829ZM33.2932 12.3046C33.2932 12.2959 33.2952 12.2776 33.3068 12.2565C33.3186 12.2351 33.3341 12.2221 33.3445 12.2158C33.3535 12.2103 33.3562 12.2113 33.3462 12.2133C33.3365 12.2152 33.3195 12.2173 33.293 12.2173V12.6607C33.3821 12.6607 33.486 12.6485 33.5743 12.595C33.6804 12.5307 33.7366 12.4235 33.7366 12.3046H33.2932ZM27.6743 4.75931C27.7739 4.73784 27.8448 4.67492 27.8919 4.61627C27.9397 4.55681 27.9776 4.48398 28.0093 4.40708L27.5993 4.23826C27.5762 4.29439 27.5573 4.32473 27.5462 4.33858C27.5344 4.35323 27.5443 4.33375 27.5809 4.32586L27.6743 4.75931ZM28.0001 4.21871C27.9916 4.2027 27.9849 4.18072 27.9849 4.14756H27.5415C27.5415 4.24471 27.5622 4.33948 27.6085 4.42664L28.0001 4.21871ZM27.7632 4.36926C27.8381 4.36926 27.8936 4.33632 27.9231 4.3146C27.9548 4.29138 27.9799 4.26399 27.9989 4.24056C28.0371 4.19337 28.0741 4.13245 28.1097 4.06579C28.1821 3.93033 28.2683 3.73471 28.3678 3.4841L27.9557 3.32052C27.8579 3.56674 27.7791 3.74375 27.7187 3.85671C27.6879 3.91425 27.6665 3.94649 27.6544 3.9614C27.6482 3.96902 27.6502 3.96492 27.6607 3.95723C27.6691 3.95103 27.7054 3.92586 27.7632 3.92586V4.36926ZM28.3597 3.30246L28.3145 3.21287L27.9186 3.41256L27.9638 3.50216L28.3597 3.30246ZM28.3382 3.31272V3.26792H27.8948V3.31272H28.3382ZM28.2823 3.41516C28.4866 3.18513 28.5857 2.8829 28.601 2.5323L28.158 2.51304C28.1458 2.7923 28.0696 2.98691 27.9508 3.12068L28.2823 3.41516ZM28.3795 2.30097H28.2028V2.74437H28.3795V2.30097ZM27.9811 2.52267V2.61226H28.4245V2.52267H27.9811ZM28.2028 2.83396H28.2932V2.39056H28.2028V2.83396ZM28.0931 2.5169C27.8692 2.98662 27.6991 3.3885 27.5844 3.721C27.4714 4.04877 27.4059 4.3269 27.4059 4.54258H27.8493C27.8493 4.40261 27.8948 4.18119 28.0036 3.86552C28.1108 3.55458 28.2734 3.16912 28.4933 2.70762L28.0931 2.5169ZM28.8232 7.13035C28.9297 7.13035 29.116 7.09354 29.3534 7.0367C29.6015 6.9773 29.9327 6.88881 30.3461 6.77173L30.2253 6.34512C29.8143 6.46152 29.4896 6.54815 29.2502 6.60549C29 6.66539 28.8673 6.68695 28.8232 6.68695V7.13035ZM30.5074 6.55842V6.51363H30.064V6.55842H30.5074ZM30.5074 6.51363C30.5074 6.47279 30.4956 6.42774 30.4909 6.40921C30.4833 6.37927 30.4726 6.3415 30.4593 6.29709C30.4326 6.20785 30.3931 6.08387 30.3412 5.92613C30.2373 5.61022 30.0818 5.15316 29.8749 4.55557L29.4559 4.70063C29.6626 5.29762 29.8172 5.7521 29.92 6.0647C29.9715 6.22121 30.0096 6.34073 30.0346 6.42422C30.0471 6.46619 30.0558 6.49709 30.0611 6.51815C30.0694 6.55061 30.064 6.53885 30.064 6.51363H30.5074ZM29.8871 4.6281V4.58738H29.4437V4.6281H29.8871ZM29.4895 4.45235C29.3261 4.66518 29.1688 5.01685 29.0117 5.4815L29.4317 5.62358C29.5867 5.16515 29.7253 4.87338 29.8412 4.7224L29.4895 4.45235ZM29.0028 5.51698C28.9402 5.90237 28.828 6.2778 28.6657 6.64364L29.071 6.82343C29.2483 6.42366 29.3717 6.01176 29.4405 5.5881L29.0028 5.51698ZM28.8684 6.51184H28.8232V6.95523H28.8684V6.51184ZM28.6015 6.73354V6.90865H29.0449V6.73354H28.6015ZM32.9847 9.10368V9.05888H32.5413V9.10368H32.9847ZM32.9847 9.05888C32.9847 9.00671 32.967 8.8429 32.938 8.59714L32.4977 8.64913C32.5127 8.77634 32.5239 8.87525 32.5312 8.94634C32.5349 8.98195 32.5376 9.00975 32.5393 9.03023C32.5412 9.05324 32.5413 9.06043 32.5413 9.05888H32.9847ZM32.935 8.66776L32.9802 8.44785L32.5459 8.3586L32.5007 8.57851L32.935 8.66776ZM32.763 8.18153C32.7817 8.18153 32.8364 8.18623 32.8852 8.23458C32.9343 8.28328 32.9395 8.33869 32.9395 8.35843H32.4961C32.4961 8.40802 32.5089 8.48584 32.5731 8.54947C32.6369 8.61275 32.7143 8.62492 32.763 8.62492V8.18153ZM32.6157 8.16167L32.5294 8.20647L32.7337 8.59998L32.82 8.55518L32.6157 8.16167ZM32.6316 8.18153H32.5412V8.62492H32.6316V8.18153ZM32.7629 8.40322C32.7629 8.28623 32.7475 8.16264 32.6896 8.0612C32.6211 7.94123 32.5039 7.87202 32.3645 7.87202V8.31542C32.3607 8.31542 32.3467 8.31426 32.33 8.30451C32.3134 8.29481 32.3059 8.28349 32.3045 8.28099C32.3038 8.27986 32.3082 8.28726 32.3124 8.30925C32.3165 8.33084 32.3195 8.36154 32.3195 8.40322H32.7629ZM32.1502 8.15039C32.2398 8.48928 32.3202 8.75186 32.3915 8.93256C32.4266 9.02154 32.4635 9.10109 32.5034 9.16202C32.5231 9.19219 32.5496 9.22717 32.5844 9.25676C32.6181 9.28544 32.6792 9.32537 32.763 9.32537V8.88198C32.825 8.88198 32.8627 8.9114 32.8717 8.91903C32.8818 8.92759 32.8821 8.931 32.8743 8.91909C32.8591 8.89586 32.8352 8.84917 32.8039 8.76982C32.7424 8.61386 32.6673 8.37147 32.5789 8.03705L32.1502 8.15039Z" fill="#E72E2E" mask="url(#path-4-outside-3_3490_5102)"/>
<path d="M3.43391 7.90052L3.4241 7.71863L3.50898 7.72574L3.51005 7.59458L3.5251 5.73997L3.52601 5.62754L3.47711 5.62344C3.47263 5.60346 3.46783 5.57661 3.46307 5.54176C3.44775 5.42959 3.43585 5.2579 3.42797 5.02396C3.41234 4.56053 3.41284 3.86666 3.42968 2.94099L3.48335 2.78297L3.53325 2.63602L3.37865 2.62306L3.35222 2.62084C3.35251 2.5282 3.34574 2.42396 3.33257 2.30878L3.32692 2.25944L3.2883 2.22824C3.14942 2.11607 3.07598 2.00323 3.05254 1.8884L3.09856 1.89226L3.09498 1.75653C3.09205 1.64555 3.08027 1.5491 3.05367 1.47566C3.0279 1.40455 2.97267 1.31811 2.86437 1.30903L2.83617 1.30667L2.8172 1.31411C2.81437 1.30692 2.81189 1.30013 2.80974 1.29373C2.79935 1.26275 2.79909 1.24787 2.79938 1.2445L2.8097 1.12349L2.68867 1.11334L2.54651 1.10142C2.482 1.09602 2.43017 1.12733 2.39681 1.15472C2.36161 1.18363 2.32895 1.22284 2.29838 1.2665C2.23678 1.35449 2.16886 1.48227 2.0945 1.6452L2.09376 1.64486L2.08942 1.6583C1.52363 3.40957 1.21041 4.58887 1.15921 5.18258L0.999035 6.48411L0.998951 6.4841L0.998565 6.48862L0.860563 8.10617L0.856684 8.15165L0.84492 8.28953C0.755337 9.33955 0.802474 10.5003 0.985028 11.7712L0.98636 11.7805L0.9891 11.7894C1.0519 11.9948 1.098 12.1539 1.12773 12.2677C1.14263 12.3247 1.15304 12.3689 1.15938 12.4011C1.16532 12.4312 1.16589 12.4425 1.16616 12.4425C1.16621 12.4425 1.16625 12.4422 1.1663 12.4415L1.15879 12.5295L1.24134 12.5632C1.26668 12.5736 1.27743 12.5855 1.28347 12.5968C1.29047 12.6099 1.2975 12.6344 1.29373 12.6786L1.2834 12.7996L1.40444 12.8097L1.42556 12.8115L1.42448 12.8242L1.41416 12.9452L1.53519 12.9554C1.61706 12.9622 1.69573 12.923 1.76083 12.8785C1.7926 12.8568 1.82586 12.8304 1.86055 12.7999L1.85648 12.8476L1.97751 12.8578L2.21741 12.8779C2.27052 12.8823 2.31296 12.8973 2.34788 12.9203L2.39474 12.9511L2.44867 12.9354C2.46961 12.9293 2.51987 12.9211 2.60906 12.9131C2.67872 12.9068 2.76681 12.901 2.87367 12.8958C2.9083 12.9292 2.95074 12.9394 2.98151 12.9419L3.00252 12.9437L3.02291 12.9383C3.15442 12.9033 3.26343 12.8755 3.35027 12.8548L3.34667 12.897L3.33635 13.018L3.45738 13.0281C3.49453 13.0312 3.54056 13.0311 3.58289 13.0145C3.595 13.0098 3.60782 13.0033 3.62026 12.9944C3.7581 13.0014 3.87786 12.9914 3.97174 12.9566C4.02763 12.9358 4.07914 12.9044 4.11832 12.858C4.1584 12.8105 4.17984 12.7541 4.18499 12.6937L4.18564 12.6938L4.1854 12.6811C4.17892 12.3292 4.04974 12.0951 3.88355 11.794C3.84908 11.7315 3.813 11.6661 3.7761 11.5962C3.60225 11.2669 3.47545 10.9515 3.39457 10.6499C3.37312 10.2162 3.34789 9.88451 3.31829 9.65822L3.34621 9.66056L3.34499 9.52711C3.34382 9.39875 3.33857 9.2926 3.3286 9.21036C3.3246 9.17736 3.31967 9.14675 3.3135 9.11921C3.32977 9.09217 3.33585 9.06368 3.33775 9.04138L3.357 8.81575C3.36916 8.67333 3.36783 8.52304 3.35347 8.36513C3.392 8.24896 3.41696 8.11301 3.43008 7.95917L3.43365 7.91738L3.43437 7.90896L3.43391 7.90052Z" fill="#E72E2E" stroke="#E72E2E" stroke-width="0.242912"/>
<mask id="path-7-outside-4_3490_5102" maskUnits="userSpaceOnUse" x="0.433594" y="-0.0429688" width="8" height="9" fill="black">
<rect fill="white" x="0.433594" y="-0.0429688" width="8" height="9"/>
<path d="M4.27993 8.50773C3.79145 8.50773 3.31001 8.29103 2.83562 7.85763C2.60782 7.69907 2.49392 7.60816 2.49392 7.5849C2.4493 7.54474 2.31074 7.32803 2.07824 6.9348L2.00075 6.96969C1.85045 6.65045 1.71189 6.26356 1.58507 5.80902C1.58507 5.78576 1.59798 5.77413 1.62382 5.77413C1.62382 5.74665 1.56041 5.51938 1.43359 5.09232C1.45943 5.05215 1.47234 5.00669 1.47234 4.95595C1.47234 4.85236 1.45943 4.78365 1.43359 4.74982C1.50874 3.26992 1.58389 2.52996 1.65905 2.52996C2.04654 1.55111 2.33775 1.06168 2.53267 1.06168V0.991915H2.68415C2.70998 0.991915 2.7229 1.00354 2.7229 1.0268C2.81449 0.980287 2.91547 0.957031 3.02585 0.957031C3.41569 0.957031 3.7574 1.10502 4.05095 1.401H4.0897V1.57225L3.89948 1.81326C3.92531 1.81326 3.93823 1.82383 3.93823 1.84498C4.06739 1.80058 4.16837 1.77838 4.24118 1.77838C4.53708 1.86929 4.70148 1.91474 4.73435 1.91474L4.80833 1.87986C5.25923 2.06168 5.55044 2.15259 5.68196 2.15259C5.78764 2.15259 6.10351 2.32383 6.62956 2.66632L6.78456 2.73609V2.70121C6.75873 2.66104 6.74581 2.61559 6.74581 2.56485H6.78456C6.90433 2.72341 7.01823 2.80269 7.12626 2.80269C7.50436 3.26146 7.69342 3.52361 7.69342 3.58915C7.82023 3.91896 7.89656 4.21494 7.92239 4.4771C7.82141 4.86399 7.74508 5.05743 7.69342 5.05743V4.98767H7.65466C7.65466 5.04686 7.63 5.16103 7.58069 5.33016C7.60652 5.37456 7.61944 5.40838 7.61944 5.43164L7.54194 5.39993C7.54194 5.48661 7.32706 5.93058 6.89729 6.73184C6.68358 7.05531 6.5321 7.23713 6.44286 7.27729C6.44286 7.36397 6.17631 7.5923 5.64321 7.96228C5.55162 8.25826 5.21109 8.40625 4.62163 8.40625C4.39383 8.43374 4.27993 8.46756 4.27993 8.50773ZM3.6705 7.31218C4.24118 7.02465 4.64629 6.7625 4.88583 6.52571C5.58567 5.69274 5.96495 4.95278 6.02366 4.30585C6.02366 4.06907 5.87218 3.74983 5.56923 3.34814C5.34143 3.15364 5.22753 3.0289 5.22753 2.97393L5.15003 3.00882C5.14534 2.98979 4.9692 2.85237 4.62163 2.59656L4.54413 2.63144C4.41731 2.56379 4.32924 2.52996 4.27993 2.52996C4.24705 2.55322 4.18364 2.56485 4.0897 2.56485V2.52996H3.89948C3.7116 2.52996 3.57187 2.62087 3.48028 2.80269C3.29005 2.80269 3.75857 3.31431 3.51903 3.51939C3.51903 3.54264 3.53194 3.55427 3.55777 3.55427C3.53194 3.72763 3.48145 3.92108 3.4063 4.1346C3.45797 4.14095 3.4838 4.16315 3.4838 4.2012C3.38047 4.30902 3.31706 4.44644 3.29357 4.61346C3.39456 4.61346 3.44505 4.67054 3.44505 4.78471C3.47088 4.78471 3.4838 4.79528 3.4838 4.81642C3.4838 4.93058 3.45797 4.98767 3.4063 4.98767L3.44505 5.15891L3.4063 5.36504L3.55777 5.60289V5.63777L3.51903 5.80902H3.59652C3.59652 6.15996 3.03994 6.31958 3.29357 7.10605C3.36168 7.24347 3.41217 7.31218 3.44505 7.31218H3.6705ZM6.02366 6.15151C6.12465 5.7921 6.23854 5.60923 6.36536 5.60288V5.53629H6.29138V5.39993C6.39941 5.39993 6.47456 5.28576 6.51683 5.05743H6.59433V5.02255H6.51683L6.59433 4.88619C6.5685 4.84179 6.55558 4.80796 6.55558 4.78471H6.51683C6.51683 4.86716 6.37828 5.12931 6.10116 5.57117L6.13639 5.63777V5.73925L5.87218 6.11662V6.15151H6.02366ZM5.41776 6.45912C5.45768 6.45912 5.50817 6.37878 5.56923 6.2181C5.61855 6.2181 5.64321 6.17265 5.64321 6.08174H5.72071L5.7982 6.11662V5.94538H5.68196C5.68196 6.00457 5.5434 6.16419 5.26628 6.42423V6.45912H5.34026V6.38935H5.41776V6.45912Z"/>
</mask>
<path d="M4.27993 8.50773C3.79145 8.50773 3.31001 8.29103 2.83562 7.85763C2.60782 7.69907 2.49392 7.60816 2.49392 7.5849C2.4493 7.54474 2.31074 7.32803 2.07824 6.9348L2.00075 6.96969C1.85045 6.65045 1.71189 6.26356 1.58507 5.80902C1.58507 5.78576 1.59798 5.77413 1.62382 5.77413C1.62382 5.74665 1.56041 5.51938 1.43359 5.09232C1.45943 5.05215 1.47234 5.00669 1.47234 4.95595C1.47234 4.85236 1.45943 4.78365 1.43359 4.74982C1.50874 3.26992 1.58389 2.52996 1.65905 2.52996C2.04654 1.55111 2.33775 1.06168 2.53267 1.06168V0.991915H2.68415C2.70998 0.991915 2.7229 1.00354 2.7229 1.0268C2.81449 0.980287 2.91547 0.957031 3.02585 0.957031C3.41569 0.957031 3.7574 1.10502 4.05095 1.401H4.0897V1.57225L3.89948 1.81326C3.92531 1.81326 3.93823 1.82383 3.93823 1.84498C4.06739 1.80058 4.16837 1.77838 4.24118 1.77838C4.53708 1.86929 4.70148 1.91474 4.73435 1.91474L4.80833 1.87986C5.25923 2.06168 5.55044 2.15259 5.68196 2.15259C5.78764 2.15259 6.10351 2.32383 6.62956 2.66632L6.78456 2.73609V2.70121C6.75873 2.66104 6.74581 2.61559 6.74581 2.56485H6.78456C6.90433 2.72341 7.01823 2.80269 7.12626 2.80269C7.50436 3.26146 7.69342 3.52361 7.69342 3.58915C7.82023 3.91896 7.89656 4.21494 7.92239 4.4771C7.82141 4.86399 7.74508 5.05743 7.69342 5.05743V4.98767H7.65466C7.65466 5.04686 7.63 5.16103 7.58069 5.33016C7.60652 5.37456 7.61944 5.40838 7.61944 5.43164L7.54194 5.39993C7.54194 5.48661 7.32706 5.93058 6.89729 6.73184C6.68358 7.05531 6.5321 7.23713 6.44286 7.27729C6.44286 7.36397 6.17631 7.5923 5.64321 7.96228C5.55162 8.25826 5.21109 8.40625 4.62163 8.40625C4.39383 8.43374 4.27993 8.46756 4.27993 8.50773ZM3.6705 7.31218C4.24118 7.02465 4.64629 6.7625 4.88583 6.52571C5.58567 5.69274 5.96495 4.95278 6.02366 4.30585C6.02366 4.06907 5.87218 3.74983 5.56923 3.34814C5.34143 3.15364 5.22753 3.0289 5.22753 2.97393L5.15003 3.00882C5.14534 2.98979 4.9692 2.85237 4.62163 2.59656L4.54413 2.63144C4.41731 2.56379 4.32924 2.52996 4.27993 2.52996C4.24705 2.55322 4.18364 2.56485 4.0897 2.56485V2.52996H3.89948C3.7116 2.52996 3.57187 2.62087 3.48028 2.80269C3.29005 2.80269 3.75857 3.31431 3.51903 3.51939C3.51903 3.54264 3.53194 3.55427 3.55777 3.55427C3.53194 3.72763 3.48145 3.92108 3.4063 4.1346C3.45797 4.14095 3.4838 4.16315 3.4838 4.2012C3.38047 4.30902 3.31706 4.44644 3.29357 4.61346C3.39456 4.61346 3.44505 4.67054 3.44505 4.78471C3.47088 4.78471 3.4838 4.79528 3.4838 4.81642C3.4838 4.93058 3.45797 4.98767 3.4063 4.98767L3.44505 5.15891L3.4063 5.36504L3.55777 5.60289V5.63777L3.51903 5.80902H3.59652C3.59652 6.15996 3.03994 6.31958 3.29357 7.10605C3.36168 7.24347 3.41217 7.31218 3.44505 7.31218H3.6705ZM6.02366 6.15151C6.12465 5.7921 6.23854 5.60923 6.36536 5.60288V5.53629H6.29138V5.39993C6.39941 5.39993 6.47456 5.28576 6.51683 5.05743H6.59433V5.02255H6.51683L6.59433 4.88619C6.5685 4.84179 6.55558 4.80796 6.55558 4.78471H6.51683C6.51683 4.86716 6.37828 5.12931 6.10116 5.57117L6.13639 5.63777V5.73925L5.87218 6.11662V6.15151H6.02366ZM5.41776 6.45912C5.45768 6.45912 5.50817 6.37878 5.56923 6.2181C5.61855 6.2181 5.64321 6.17265 5.64321 6.08174H5.72071L5.7982 6.11662V5.94538H5.68196C5.68196 6.00457 5.5434 6.16419 5.26628 6.42423V6.45912H5.34026V6.38935H5.41776V6.45912Z" fill="#E72E2E"/>
<path d="M4.27993 8.50773C3.79145 8.50773 3.31001 8.29103 2.83562 7.85763C2.60782 7.69907 2.49392 7.60816 2.49392 7.5849C2.4493 7.54474 2.31074 7.32803 2.07824 6.9348L2.00075 6.96969C1.85045 6.65045 1.71189 6.26356 1.58507 5.80902C1.58507 5.78576 1.59798 5.77413 1.62382 5.77413C1.62382 5.74665 1.56041 5.51938 1.43359 5.09232C1.45943 5.05215 1.47234 5.00669 1.47234 4.95595C1.47234 4.85236 1.45943 4.78365 1.43359 4.74982C1.50874 3.26992 1.58389 2.52996 1.65905 2.52996C2.04654 1.55111 2.33775 1.06168 2.53267 1.06168V0.991915H2.68415C2.70998 0.991915 2.7229 1.00354 2.7229 1.0268C2.81449 0.980287 2.91547 0.957031 3.02585 0.957031C3.41569 0.957031 3.7574 1.10502 4.05095 1.401H4.0897V1.57225L3.89948 1.81326C3.92531 1.81326 3.93823 1.82383 3.93823 1.84498C4.06739 1.80058 4.16837 1.77838 4.24118 1.77838C4.53708 1.86929 4.70148 1.91474 4.73435 1.91474L4.80833 1.87986C5.25923 2.06168 5.55044 2.15259 5.68196 2.15259C5.78764 2.15259 6.10351 2.32383 6.62956 2.66632L6.78456 2.73609V2.70121C6.75873 2.66104 6.74581 2.61559 6.74581 2.56485H6.78456C6.90433 2.72341 7.01823 2.80269 7.12626 2.80269C7.50436 3.26146 7.69342 3.52361 7.69342 3.58915C7.82023 3.91896 7.89656 4.21494 7.92239 4.4771C7.82141 4.86399 7.74508 5.05743 7.69342 5.05743V4.98767H7.65466C7.65466 5.04686 7.63 5.16103 7.58069 5.33016C7.60652 5.37456 7.61944 5.40838 7.61944 5.43164L7.54194 5.39993C7.54194 5.48661 7.32706 5.93058 6.89729 6.73184C6.68358 7.05531 6.5321 7.23713 6.44286 7.27729C6.44286 7.36397 6.17631 7.5923 5.64321 7.96228C5.55162 8.25826 5.21109 8.40625 4.62163 8.40625C4.39383 8.43374 4.27993 8.46756 4.27993 8.50773ZM3.6705 7.31218C4.24118 7.02465 4.64629 6.7625 4.88583 6.52571C5.58567 5.69274 5.96495 4.95278 6.02366 4.30585C6.02366 4.06907 5.87218 3.74983 5.56923 3.34814C5.34143 3.15364 5.22753 3.0289 5.22753 2.97393L5.15003 3.00882C5.14534 2.98979 4.9692 2.85237 4.62163 2.59656L4.54413 2.63144C4.41731 2.56379 4.32924 2.52996 4.27993 2.52996C4.24705 2.55322 4.18364 2.56485 4.0897 2.56485V2.52996H3.89948C3.7116 2.52996 3.57187 2.62087 3.48028 2.80269C3.29005 2.80269 3.75857 3.31431 3.51903 3.51939C3.51903 3.54264 3.53194 3.55427 3.55777 3.55427C3.53194 3.72763 3.48145 3.92108 3.4063 4.1346C3.45797 4.14095 3.4838 4.16315 3.4838 4.2012C3.38047 4.30902 3.31706 4.44644 3.29357 4.61346C3.39456 4.61346 3.44505 4.67054 3.44505 4.78471C3.47088 4.78471 3.4838 4.79528 3.4838 4.81642C3.4838 4.93058 3.45797 4.98767 3.4063 4.98767L3.44505 5.15891L3.4063 5.36504L3.55777 5.60289V5.63777L3.51903 5.80902H3.59652C3.59652 6.15996 3.03994 6.31958 3.29357 7.10605C3.36168 7.24347 3.41217 7.31218 3.44505 7.31218H3.6705ZM6.02366 6.15151C6.12465 5.7921 6.23854 5.60923 6.36536 5.60288V5.53629H6.29138V5.39993C6.39941 5.39993 6.47456 5.28576 6.51683 5.05743H6.59433V5.02255H6.51683L6.59433 4.88619C6.5685 4.84179 6.55558 4.80796 6.55558 4.78471H6.51683C6.51683 4.86716 6.37828 5.12931 6.10116 5.57117L6.13639 5.63777V5.73925L5.87218 6.11662V6.15151H6.02366ZM5.41776 6.45912C5.45768 6.45912 5.50817 6.37878 5.56923 6.2181C5.61855 6.2181 5.64321 6.17265 5.64321 6.08174H5.72071L5.7982 6.11662V5.94538H5.68196C5.68196 6.00457 5.5434 6.16419 5.26628 6.42423V6.45912H5.34026V6.38935H5.41776V6.45912Z" stroke="#E72E2E" stroke-width="0.485823" mask="url(#path-7-outside-4_3490_5102)"/>
</svg>
