<svg width="33" height="14" viewBox="0 0 33 14" fill="none" xmlns="http://www.w3.org/2000/svg">
<path d="M12.6234 2.35453C12.6595 2.36946 12.7059 2.27487 12.7136 2.25246C12.7136 2.23255 12.8038 2.32217 12.8141 2.29229C12.8476 2.18027 12.8888 2.02095 12.912 1.90146C12.912 1.90146 12.8321 1.87656 12.8811 1.84918C12.9386 1.79608 12.9735 1.72418 12.979 1.64754C12.979 1.6102 12.9249 1.55543 12.9352 1.54298C12.9455 1.53054 13.01 1.58779 13.0332 1.58779C13.0553 1.4702 13.0899 1.35509 13.1362 1.24426V1.24426C13.1362 1.20941 13.0847 1.16709 13.0898 1.14468C13.095 1.12228 13.0898 1.09987 13.0898 1.09489C13.0898 1.08991 13.162 1.13721 13.1852 1.1397C13.248 0.818985 13.3518 0.50707 13.4944 0.211158C13.4944 0.211158 13.4944 0.211158 13.4944 0.211158C13.4944 0.211158 13.4944 0.183775 13.4944 0.153902C13.4944 0.124029 13.4249 0.153902 13.3991 0.153902C13.1478 0.644987 12.9575 1.16306 12.8321 1.69733V1.69733C12.8321 1.73218 12.8837 1.75956 12.8811 1.79441C12.6621 1.87656 12.6234 2.09563 12.5719 2.29229C12.5719 2.29229 12.5719 2.31968 12.5719 2.34208C12.5719 2.36449 12.5899 2.34208 12.6234 2.35453ZM5.33053 13.3228C5.36146 13.3228 5.31507 13.2805 5.33053 13.2805C5.37688 13.2829 5.42334 13.2829 5.46969 13.2805C5.74543 13.2158 5.95674 13.1411 6.0624 12.8772C6.2362 12.786 6.37257 12.6402 6.44894 12.464C6.46441 12.4316 6.39998 12.3992 6.40771 12.3669C6.85869 11.8192 7.26327 11.3114 7.39985 10.6094C7.38697 10.582 7.30451 10.577 7.30708 10.5397C7.32979 10.4322 7.3608 10.3265 7.39985 10.2235C7.61056 9.61602 7.78268 8.99666 7.91525 8.36891C7.91525 8.34153 7.91525 8.34401 7.91525 8.36891C7.94102 8.23946 7.89721 8.34402 7.91525 8.23697C8.10079 8.20461 8.06729 7.95069 8.09049 7.82373C8.09049 7.7839 8.1781 7.85609 8.19099 7.82373C8.36622 8.69253 8.39457 9.6161 8.92801 10.3579C9.01179 10.7789 9.24512 11.1584 9.58772 11.4309C9.54649 11.6051 9.90984 12.2773 9.96396 12.3519C10.098 12.5088 10.0696 12.3519 10.1418 12.4042C10.2139 12.4565 10.2242 12.3345 10.25 12.3818C10.3312 12.553 10.4488 12.7057 10.5953 12.8299C10.6108 12.8424 10.5799 12.8299 10.5953 12.8299C10.6108 12.8299 10.6108 12.8299 10.6443 12.8299C10.6778 12.8299 10.6443 12.7502 10.6572 12.7403C10.6876 12.7328 10.7195 12.7328 10.7499 12.7403C10.7757 12.7403 10.7267 12.7702 10.7499 12.7926C10.8184 12.8518 10.8814 12.9168 10.9381 12.9867C10.9638 13.0216 10.9226 12.9643 10.9381 12.9867C10.9535 13.0091 11.0695 12.9867 11.0875 12.9867C11.1056 12.9867 11.1004 12.9519 11.0875 12.9469C11.0746 12.9419 11.0025 12.9469 10.9973 12.9469C10.9922 12.9469 10.9973 12.8623 10.9973 12.8523C11.0294 12.8442 11.0632 12.8442 11.0953 12.8523C11.1288 12.8523 11.2086 12.9419 11.2421 12.9494C11.2756 12.9569 11.3246 12.9793 11.3401 12.9494C11.3913 12.8845 11.4571 12.8318 11.5326 12.7951C11.608 12.7584 11.6911 12.7388 11.7756 12.7378C11.9468 12.5422 12.0631 12.3073 12.1132 12.0557C12.5913 11.0424 12.9675 9.98699 13.2367 8.90413C13.2367 8.90413 13.2548 8.90413 13.2367 8.90413C13.3166 8.57553 13.1697 8.61536 13.2625 8.15731C13.3553 7.69926 13.5769 6.62633 13.6233 6.05626C13.6233 5.97909 13.6233 6.01643 13.6233 6.05626C13.6387 5.85711 13.6233 6.04132 13.6233 5.9766C13.6233 5.91187 13.5924 6.00398 13.5795 5.96166C13.5537 6.03137 13.5537 6.12596 13.5228 6.18571C13.4919 6.24545 13.4429 6.18571 13.4197 6.18571C13.5176 5.18995 13.6774 4.19419 13.8397 3.19843C13.8397 3.16856 13.8397 3.1586 13.8397 3.15113C13.7547 3.11628 13.613 3.3702 13.582 3.40007C13.5511 3.42995 13.6052 3.35775 13.582 3.40007C13.5589 3.44239 13.5047 3.38265 13.479 3.41252C13.479 3.28805 13.5176 3.25569 13.5279 3.11379C13.5382 2.9719 13.5279 2.71549 13.5279 2.55866C13.5279 2.52879 13.6207 2.57359 13.6181 2.55866C13.6129 2.4742 13.5974 2.39063 13.5717 2.30972C13.5589 2.2898 13.497 2.28731 13.4687 2.30972C13.4461 2.39984 13.4297 2.49132 13.4197 2.58355C13.4017 2.62338 13.4197 2.58355 13.4197 2.58355C13.4197 2.58355 13.3295 2.51883 13.3218 2.5487C13.2556 2.89329 13.1696 3.23404 13.0641 3.56935V3.56935C13.0641 3.60669 13.1182 3.64155 13.113 3.68138C12.9198 3.80336 12.9326 4.09213 12.894 4.27883C12.894 4.31368 12.8167 4.22406 12.8012 4.23402C12.7858 4.24398 12.7574 4.2166 12.7445 4.23402C12.6703 4.40921 12.6176 4.59218 12.5873 4.7792V4.7792C12.5873 4.82152 12.6337 4.84641 12.6337 4.8962C12.6082 4.98086 12.5559 5.05571 12.4843 5.11029C12.443 5.11029 12.4843 5.11029 12.4843 5.11029C12.4843 5.11029 12.3941 5.12772 12.376 5.11029C12.358 5.09286 12.376 5.00325 12.376 4.9435C12.3957 4.86131 12.4112 4.77823 12.4224 4.69456C12.4224 4.67464 12.3683 4.6622 12.376 4.6373C12.3837 4.61241 12.376 4.65224 12.376 4.6373C12.376 4.62237 12.425 4.6373 12.4276 4.6373C12.5976 3.87804 12.7677 3.12873 12.8605 2.35702C12.8141 2.35702 12.693 2.34457 12.6672 2.35702C12.6414 2.36946 12.742 2.41427 12.6956 2.45161C12.6492 2.48896 12.6054 2.39436 12.5384 2.41676C12.4714 2.43917 12.443 2.6657 12.4482 2.72047C12.4533 2.77524 12.4482 2.72047 12.4482 2.72047C12.4482 2.77275 12.4868 2.96941 12.492 3.03911C12.4971 3.10881 12.492 3.15362 12.492 3.20839C12.2497 3.41999 12.2601 3.79091 12.2343 4.08217C12.2343 4.14191 12.291 4.13445 12.2755 4.20166C12.2601 4.26887 12.1441 4.36845 12.0874 4.41824C12.0307 4.46802 12.1235 4.53026 12.1209 4.57507C12.1183 4.61988 12.1209 4.57507 12.1209 4.57507C12.0909 4.65116 12.0556 4.72519 12.0152 4.79663C12.0152 4.83148 12.09 4.8962 12.0565 4.90616C11.9689 4.93603 11.9534 5.12274 11.9585 5.17501C11.9637 5.22729 11.9585 5.17501 11.9585 5.17501C11.9585 5.22729 12.0101 5.25716 11.9972 5.28704C11.9843 5.31691 11.9817 5.28704 11.9328 5.28704C11.9035 5.31442 11.8804 5.34734 11.8648 5.38375C11.8493 5.42016 11.8417 5.45927 11.8426 5.49863V5.49863C11.8426 5.52353 11.7601 5.49863 11.7369 5.49863C11.7168 5.4978 11.6972 5.49267 11.6793 5.48364C11.6615 5.4746 11.646 5.46187 11.6338 5.44636C11.6081 5.41151 11.6751 5.32189 11.688 5.28704C11.7008 5.25219 11.688 5.30944 11.688 5.28704C11.688 5.26463 11.6313 5.21982 11.6442 5.1775C11.657 5.13518 11.6828 5.11278 11.6957 5.06299C11.7086 5.0132 11.6416 4.96341 11.657 4.90616C11.696 4.80248 11.7296 4.69696 11.7575 4.59001C11.7575 4.53275 11.7575 4.62486 11.7575 4.59001C11.7641 4.55377 11.7641 4.51671 11.7575 4.48047C11.7575 4.44313 11.724 4.49541 11.7086 4.48047C11.3607 5.78243 11.0308 7.08687 10.6984 8.3938C10.719 8.43363 10.7396 8.47097 10.7577 8.5108C10.5232 8.65021 10.5154 8.85932 10.5154 9.10577C10.4871 9.07839 10.4819 9.1456 10.4562 9.08337C10.4304 9.02113 10.317 8.92902 10.299 8.85185C10.2603 8.67759 10.299 8.48093 10.2706 8.30169C10.2706 8.25938 10.3325 8.23448 10.317 8.19714C10.268 8.10005 10.3505 8.32908 10.2345 8.13242C10.0985 7.8168 10.0276 7.47854 10.0258 7.13666C10.0438 7.13666 10.0748 7.09932 10.0748 7.08936C10.0748 7.0794 10.0748 7.08936 10.0748 7.08936C9.84026 5.96415 9.63153 4.8489 9.41506 3.71374C9.3996 3.71374 9.32486 3.77846 9.31971 3.75606C9.29007 3.67133 9.25566 3.58822 9.21663 3.50712C9.21663 3.49218 9.26044 3.46231 9.26044 3.44986C9.26044 3.3229 9.26044 3.20092 9.26044 3.07645C9.13159 3.09637 9.1084 2.88726 9.10582 2.82751C9.10582 2.59351 9.10582 2.39436 9.10582 2.16782C9.02336 2.18027 9.00532 2.06078 9.00016 2.03091C9.00016 2.01597 8.91512 2.00601 8.89966 2.03091C8.8842 2.0558 8.9177 2.11057 8.83008 2.11804C8.7764 2.13016 8.72585 2.15276 8.68154 2.18443C8.63722 2.21611 8.60008 2.2562 8.57238 2.30225V2.30225L8.31468 2.24499C8.3353 2.17031 8.35076 2.08069 8.3688 2.01099C8.38684 1.94129 8.3688 1.8691 8.3688 1.80935C8.3688 1.7496 8.25026 1.65999 8.23222 1.66994C8.10688 1.772 7.97035 1.86049 7.82506 1.93382C7.72455 1.95374 7.82506 1.93382 7.82506 1.93382C7.72455 1.95374 7.77867 1.87656 7.67559 1.8915C7.57251 1.90644 7.3612 2.04833 7.33801 2.17778C7.31475 2.34298 7.31475 2.51046 7.33801 2.67566C7.37408 3.0416 7.48747 3.45235 7.4952 3.83323C7.50328 4.32379 7.44083 4.81306 7.30966 5.28704C7.28647 5.37168 7.36893 5.46627 7.34574 5.53598C7.34574 5.56336 7.271 5.53598 7.25297 5.53598C7.10166 6.09602 6.91929 6.64781 6.70664 7.18894V7.18894L6.76334 7.28104C6.5881 7.90837 6.34071 8.48591 6.12167 9.10328C5.9613 9.66633 5.71182 10.2021 5.38207 10.6915V10.6915C5.38207 10.6915 5.34342 10.6915 5.34084 10.6915C5.32304 10.2591 5.26001 9.8296 5.15272 9.40948V9.40948C5.18622 9.40948 5.17334 9.43437 5.21199 9.40948C5.25065 9.38458 5.17076 9.25016 5.1553 9.2153C5.13983 9.18045 5.1553 9.23771 5.1553 9.2153C5.1553 9.1929 5.20168 9.14062 5.19137 9.10826C5.18107 9.0759 5.14757 9.0286 5.14241 9.00619C5.12312 8.76758 5.12312 8.52787 5.14241 8.28925C5.14241 8.26186 5.14241 8.25938 5.14241 8.28925C5.14241 8.09756 5.11406 8.05524 5.10376 7.88348C4.84606 7.53247 4.80225 7.01468 4.72236 6.60642C4.68886 6.43714 4.75329 6.35748 4.69144 6.21309C4.62959 6.06871 4.54713 5.86707 4.49559 5.71521C4.301 5.19485 4.05325 4.6945 3.75599 4.22157C3.53179 3.88302 3.6323 3.95272 3.36171 3.75108C3.39521 3.50214 2.93136 2.96194 2.76643 2.88975C2.6015 2.81756 2.78189 2.87481 2.76643 2.88975C2.59892 2.81756 2.6917 2.99928 2.57831 2.9719C2.59377 2.8773 2.43915 2.77524 2.37215 2.75532C2.30515 2.73541 2.37215 2.75532 2.37215 2.75532C2.30772 2.73789 2.16857 2.7827 2.11445 2.77275C2.12991 2.86983 2.06033 2.90966 1.98818 2.93705C1.91602 2.96443 1.92891 2.86236 1.91602 2.84992C1.90314 2.83747 1.93406 2.86734 1.91602 2.84992C1.89798 2.83249 1.88767 2.84992 1.85933 2.84992C1.83098 2.84992 1.75367 2.93456 1.72275 2.95198C1.69182 2.96941 1.6944 2.95198 1.6609 2.95198C1.6274 2.95198 1.5604 2.89722 1.55524 2.86734C1.55009 2.83747 1.55524 2.88477 1.55524 2.86734C1.55524 2.84992 1.60678 2.77773 1.58617 2.76279C1.53755 2.75511 1.48769 2.76027 1.44186 2.77773C1.39263 2.81266 1.34532 2.85006 1.30012 2.88975C1.30012 2.80511 1.31558 2.72047 1.32074 2.64081C1.15335 2.69379 0.998991 2.77936 0.867188 2.89224H0.867188C0.887803 2.98683 0.867188 2.9943 0.898111 3.11379C0.930782 3.2744 0.985376 3.4301 1.06046 3.57682C1.38963 4.06304 1.6578 4.58532 1.85933 5.13269C2.1855 5.48932 2.41875 5.91607 2.53965 6.37739C2.55996 6.52515 2.57114 6.67395 2.57315 6.82299C2.6015 6.98978 2.67881 7.04206 2.73035 7.18396C2.75612 7.25615 2.69427 7.32336 2.73035 7.41298C3.01524 8.34683 3.2246 9.30065 3.35656 10.2658C3.46479 11.1769 3.49314 11.5329 3.80238 12.2872C3.80238 12.2673 3.80238 12.2872 3.80238 12.2872C3.80238 12.2872 3.86938 12.2872 3.89515 12.2872C3.92092 12.2872 3.87969 12.1876 3.90803 12.1951C3.93638 12.2026 3.93896 12.1503 4.03431 12.215C4.16272 12.3656 4.25117 12.5442 4.29201 12.7353C4.63163 12.913 4.95954 13.1109 5.27384 13.3278V13.3278C5.32795 13.3477 5.29703 13.3128 5.33053 13.3228ZM9.51556 3.14118C9.51556 2.81756 9.51556 2.50389 9.51556 2.17778C9.42794 2.24251 9.39444 2.16284 9.29136 2.25246C9.19255 2.44507 9.16091 2.6634 9.20117 2.87481V2.87481C9.20117 2.88975 9.18571 2.91215 9.20117 2.91962C9.21663 2.92709 9.27848 2.93954 9.29909 2.91962C9.31971 2.89971 9.33775 2.74536 9.35063 2.72794C9.36352 2.71051 9.39444 2.713 9.39702 2.72794C9.41248 2.84743 9.39702 3.01671 9.39702 3.13371C9.42279 3.15611 9.5001 3.11628 9.51556 3.14118ZM7.64982 5.54593C7.59828 5.55838 7.47201 5.50112 7.39212 5.49863C7.47402 5.26048 7.53269 5.01546 7.56736 4.76675V4.76675C7.58282 4.79414 7.60859 4.72692 7.61374 4.76675C7.61741 4.81066 7.61741 4.85478 7.61374 4.89869C7.61374 4.99329 7.57251 5.25965 7.56994 5.37914C7.56994 5.40653 7.66013 5.37914 7.66013 5.37914C7.66013 5.37914 7.68075 5.53349 7.64982 5.54095V5.54593ZM7.19369 8.4411C7.19369 8.34401 7.17823 8.23697 7.17308 8.14237C7.16792 8.04778 7.25554 8.07765 7.30193 8.05524C7.34831 8.03284 7.25554 8.01541 7.2607 7.99799C7.28647 7.91833 7.3612 7.72913 7.32512 7.65445C7.28904 7.57977 7.19369 7.48766 7.1705 7.4329C7.14731 7.37813 7.18339 7.46028 7.1705 7.4329C7.15762 7.40551 7.09577 7.4329 7.07515 7.41547C7.05454 7.39804 7.07515 7.5026 7.07515 7.50011C7.07515 7.49762 6.98238 7.50011 6.9798 7.48766C6.97723 7.47522 6.94115 7.3856 6.9798 7.35821C7.07286 7.28941 7.13695 7.19036 7.16019 7.0794C7.2318 6.7562 7.3274 6.4384 7.44624 6.12845V6.12845C7.46428 6.12845 7.53643 6.19318 7.54159 6.17077C7.53354 6.09703 7.52063 6.02386 7.50293 5.95171C7.50293 5.91188 7.48747 5.91436 7.50293 5.89196C7.5184 5.86955 7.57509 5.90441 7.59055 5.89196C7.60601 5.87951 7.59055 5.86707 7.59055 5.84466C7.59055 5.82226 7.5287 5.77496 7.55447 5.74509C7.58024 5.71521 7.5854 5.77745 7.60344 5.79238C7.62147 5.80732 7.64724 5.75753 7.64982 5.74757C7.6524 5.73762 7.64982 5.74757 7.64982 5.74757H7.69621C7.69621 5.74757 7.6524 5.81728 7.64982 5.84715C7.64605 5.89355 7.64605 5.94016 7.64982 5.98656C7.65244 5.99015 7.65591 5.99309 7.65995 5.99511C7.66398 5.99714 7.66847 5.9982 7.67301 5.9982C7.67756 5.9982 7.68205 5.99714 7.68608 5.99511C7.69012 5.99309 7.69359 5.99015 7.69621 5.98656C7.69898 5.95508 7.69898 5.92343 7.69621 5.89196C7.88175 6.00896 7.84567 6.24794 7.84052 6.43963C7.84052 6.52676 7.84052 6.64376 7.74002 6.67114C7.74008 7.00977 7.65143 7.3429 7.48232 7.63952C7.48232 7.91833 7.51324 8.31165 7.19112 8.42865L7.19369 8.4411ZM12.3219 6.99974C12.3039 7.05451 12.2832 7.01219 12.2652 6.99974C12.2382 6.95203 12.2216 6.89952 12.2162 6.8454C12.2162 6.81553 12.2601 6.75827 12.2678 6.72591C12.2754 6.53208 12.2581 6.33808 12.2162 6.14837C12.2162 6.04381 12.2162 6.14837 12.2162 6.14837C12.2162 6.04381 12.1879 6.12845 12.2162 6.06124C12.2446 5.99402 12.3116 6.1633 12.309 6.17824C12.3064 6.19318 12.309 6.15833 12.309 6.17824C12.3077 6.1973 12.3077 6.21643 12.309 6.2355C12.309 6.2579 12.2369 6.31765 12.2652 6.34503C12.3471 6.47752 12.3815 6.63237 12.3631 6.78565C12.3631 6.78565 12.3631 6.78565 12.3631 6.78565C12.3577 6.85828 12.3439 6.93009 12.3219 6.99974ZM6.61645 9.63103C6.58553 9.60614 6.49275 9.63103 6.47471 9.60365C6.45982 9.55321 6.45982 9.49975 6.47471 9.44931C6.4876 9.3796 6.5881 9.25264 6.60099 9.16303C6.60099 9.13066 6.55976 9.10079 6.55202 9.05349C6.54429 9.00619 6.58295 9.05349 6.59583 9.00122C6.68603 8.66017 6.6783 8.15482 7.00815 7.91584C7.02361 8.02786 7.07515 8.06271 7.07515 8.19714C7.04071 8.3538 6.94928 8.49334 6.81745 8.59046C6.80199 8.59046 6.86899 8.73485 6.87415 8.74232C6.87677 8.75882 6.87677 8.77561 6.87415 8.79211C6.80715 9.08088 6.68087 9.34226 6.61645 9.63103V9.63103Z" fill="#FFA100"/>
<path d="M22.6773 6.29213C22.6773 6.19753 22.4196 5.81416 21.9042 5.14701C21.7573 5.14701 21.6027 5.03 21.4403 4.80098H21.3888C21.3878 4.87009 21.4065 4.93814 21.4429 4.99764V5.04992L21.2316 4.94785C20.5177 4.44998 20.09 4.20104 19.9431 4.20104C19.5294 4.12827 19.1296 3.99478 18.7577 3.80522L18.6572 3.85501C18.4295 3.80427 18.2056 3.73857 17.9871 3.65835C17.846 3.66687 17.7073 3.69887 17.5774 3.75295C17.5774 3.72307 17.5594 3.70814 17.5233 3.70814L17.781 3.35713V3.10819H17.7294C17.5607 2.90843 17.3486 2.74692 17.1082 2.63508C16.8677 2.52324 16.6047 2.46379 16.3379 2.46095C16.1936 2.46022 16.0516 2.49536 15.9256 2.56301C15.9256 2.52816 15.9101 2.51074 15.874 2.51074H15.6679V2.6128C15.405 2.6128 15.0099 3.3256 14.4824 4.75119C14.3811 4.75119 14.2789 5.82993 14.1758 7.98741C14.2214 8.08133 14.2401 8.18535 14.2299 8.28862C14.2309 8.35774 14.2122 8.42579 14.1758 8.48529C14.3484 9.10764 14.4335 9.43872 14.4335 9.48104C14.4262 9.48025 14.4188 9.48106 14.4118 9.48341C14.4049 9.48576 14.3986 9.48958 14.3934 9.4946C14.3882 9.49963 14.3842 9.50571 14.3818 9.51242C14.3794 9.51912 14.3785 9.52626 14.3794 9.53332C14.5244 10.1072 14.7139 10.6697 14.9463 11.2162L15.052 11.1639C15.2195 11.4906 15.4116 11.8051 15.6266 12.1049C15.7588 12.2595 15.9153 12.3931 16.0905 12.5007C16.7347 13.133 17.379 13.4491 18.0516 13.4491C18.0516 13.3894 18.2062 13.3421 18.5154 13.2998C19.3143 13.2998 19.7764 13.0849 19.9019 12.655C20.6234 12.1148 20.9868 11.7837 20.9868 11.6593C21.1079 11.5995 21.314 11.3356 21.6027 10.8651C22.1868 9.70343 22.4788 9.05619 22.4788 8.92342L22.5845 8.97072C22.5783 8.91842 22.5597 8.86819 22.5304 8.82384C22.5816 8.66168 22.6153 8.49483 22.6309 8.32597H22.6773V8.42803C22.7477 8.42803 22.8508 8.14673 22.9865 7.58413C22.9377 7.143 22.8338 6.70919 22.6773 6.29213V6.29213ZM17.2244 11.714H16.9177C16.8739 11.714 16.8043 11.6145 16.7115 11.4153C16.3662 10.2702 16.1961 9.44121 16.1961 8.92591H16.0905L16.142 8.67697V8.61971L15.9359 8.27369L15.99 7.97247L15.9359 7.72353C16.008 7.72353 16.0415 7.63889 16.0415 7.47459C16.0415 7.44223 16.0261 7.42729 15.99 7.42729C15.99 7.2605 15.9204 7.17835 15.7838 7.17835C15.8056 6.95795 15.8954 6.74894 16.0415 6.57841C16.0415 6.52115 16.008 6.48879 15.9359 6.48132C16.0309 6.20578 16.0999 5.92249 16.142 5.63493C16.1351 5.63573 16.128 5.63499 16.1214 5.63277C16.1147 5.63055 16.1087 5.62691 16.1037 5.62212C16.0988 5.61732 16.095 5.61151 16.0927 5.6051C16.0904 5.5987 16.0897 5.59187 16.0905 5.58514C16.3133 5.33539 16.6251 5.1755 16.9641 5.13705C17.0054 5.02511 17.0811 4.92798 17.181 4.85861C17.2809 4.78923 17.4003 4.7509 17.5233 4.7487H17.781V4.80098C17.8704 4.80917 17.9603 4.79094 18.0387 4.7487C18.1679 4.77273 18.2902 4.8237 18.3969 4.89807L18.5025 4.84579C18.7549 5.03014 18.9942 5.23057 19.2189 5.44573L19.3246 5.39595C19.3246 5.47561 19.4792 5.65733 19.7885 5.94112C20.1991 6.52696 20.4044 6.99165 20.4044 7.33519C20.3236 8.2795 19.8082 9.35823 18.8582 10.5714C18.3761 11.0294 17.8253 11.4147 17.2244 11.714V11.714ZM20.1106 9.97146L20.0049 9.91918H19.9019C19.9019 10.0536 19.8683 10.1183 19.8013 10.1183C19.7189 10.3523 19.6493 10.4693 19.5952 10.4693V10.3623H19.4895V10.4644H19.389V10.4146C19.7653 10.0362 19.9534 9.80218 19.9534 9.71754H20.1003L20.1106 9.97146ZM21.1929 8.37824V8.42803H21.0873C21.0306 8.76161 20.9275 8.92591 20.7806 8.92591V9.11759H20.8734V9.21468C20.7016 9.22464 20.547 9.491 20.4095 10.0138H20.2034V9.96399L20.5616 9.41383V9.26696L20.5152 9.16987C20.8914 8.52512 21.0795 8.14424 21.0795 8.02226H21.1311C21.1372 8.07536 21.1557 8.12643 21.1852 8.17162L21.0795 8.37077L21.1929 8.37824Z" fill="#FFA100"/>
<path d="M24.3516 13.845C24.4588 13.8615 24.6344 13.8992 24.6856 13.7743C24.7636 13.7743 24.827 13.805 24.9074 13.812C24.9878 13.8191 25.0195 13.7202 25.0317 13.6566C25.5802 13.4211 25.5656 12.6134 25.5461 12.1353C25.5461 12.1141 25.5144 11.987 25.512 11.9658C25.4925 11.8103 25.5266 11.5113 25.6777 11.4594C25.7387 11.4383 25.6436 11.4265 25.6485 11.4076C25.6667 11.3683 25.6805 11.3273 25.6899 11.2852C25.6899 11.2522 25.6607 11.2216 25.6461 11.1933C25.6656 10.9037 25.6924 10.6117 25.6997 10.3244C25.6997 10.2938 25.629 10.3244 25.6631 10.2631C25.8021 9.99232 25.9264 9.32117 25.7923 9.02444C25.9198 8.65047 26.1294 8.30747 26.4066 8.01889C26.5822 7.81872 26.7065 7.65858 27.0063 7.34538C27.3062 7.03217 28.1009 6.27153 28.4203 5.90416C28.664 5.6145 28.9517 5.28245 29.1077 5.0917C29.3515 4.79734 29.332 4.65133 29.5953 4.45352C29.5788 4.42441 29.5657 4.3936 29.5563 4.36167H29.6465C29.6777 4.22156 29.7448 4.09123 29.8415 3.98253C29.8951 3.95191 29.8098 3.94956 29.8147 3.93072C29.8196 3.91188 29.8147 3.90482 29.8147 3.89069C29.8537 3.92365 29.8951 3.95427 29.9341 3.99195C29.8437 4.1037 29.7736 4.22953 29.7269 4.36403C29.7272 4.4428 29.7329 4.52147 29.744 4.59952C29.7127 4.62148 29.6834 4.6459 29.6562 4.67252C29.588 4.75495 29.5173 4.90802 29.4124 4.90802C29.2613 5.06815 29.1126 5.22829 28.9566 5.379C28.9566 5.379 28.9566 5.40962 28.9566 5.41904C28.9566 5.42846 28.9858 5.41904 28.9931 5.41904C29.0681 5.40537 29.1372 5.37092 29.1922 5.3199C29.2472 5.26888 29.2856 5.2035 29.3027 5.13174L29.432 5.14587C29.432 5.14587 29.432 5.18354 29.432 5.1859C29.432 5.18825 29.3783 5.15764 29.3466 5.1859C29.3149 5.21416 29.3832 5.22358 29.3832 5.23535C29.3832 5.28245 29.3393 5.38607 29.2735 5.39784C29.1955 5.48262 29.0127 5.70399 28.9639 5.77228C28.8298 5.94654 28.7201 6.13965 28.53 6.17733C28.5239 6.18007 28.5172 6.18149 28.5105 6.18149C28.5037 6.18149 28.4971 6.18007 28.491 6.17733C28.4611 6.16231 28.4326 6.14498 28.4056 6.12552C28.4056 6.17968 28.3861 6.22443 28.3788 6.27859C28.3715 6.33275 28.4032 6.3563 28.4544 6.37043C28.3751 6.41022 28.3041 6.46369 28.2447 6.52821C28.196 6.76371 27.9327 6.89794 27.8084 7.03217C27.7216 7.11378 27.6231 7.1828 27.5158 7.23705C27.4476 7.2606 27.489 7.32654 27.4842 7.34538C27.4622 7.43015 27.4573 7.50787 27.3696 7.51964C27.2776 7.54332 27.1914 7.58446 27.1161 7.64066C27.0407 7.69686 26.9777 7.767 26.9308 7.84698C26.9454 7.87759 26.9552 7.90585 26.9698 7.93646L26.882 7.91527C26.7313 8.1898 26.5627 8.45486 26.3774 8.70888V8.83605L26.453 8.85253C26.5724 8.78424 26.5334 8.67591 26.6455 8.59585C26.9186 8.40039 27.077 8.09895 27.3574 7.80459C27.5353 7.61619 27.9376 7.24647 28.0351 6.93091C28.0511 6.9267 28.0679 6.9267 28.0838 6.93091C28.1131 6.94504 28.135 6.96623 28.1643 6.98272C28.5227 6.61535 28.8737 6.24327 29.2101 5.85706L29.2467 5.60272H29.3344C29.3856 5.54385 29.449 5.45907 29.5343 5.45436C29.5343 5.38371 29.5343 5.31071 29.5173 5.23771C29.5459 5.24014 29.5744 5.24407 29.6026 5.24948C29.7854 5.01399 29.7927 4.84443 30.0463 4.61836C30.4656 4.24628 30.8142 3.53745 31.0653 3.00994C31.0653 2.99346 31.0165 2.94636 30.9848 2.96049C31.1572 2.67772 31.2699 2.36477 31.3164 2.03971C31.2018 2.00674 31.1213 1.8937 31.0214 1.83247C31.0063 1.82779 30.9901 1.82779 30.9751 1.83247C30.9507 1.83247 30.9093 1.87722 30.8824 1.86544C30.8556 1.85367 30.8824 1.81363 30.841 1.81834C30.8066 1.82505 30.7731 1.83531 30.741 1.84896C30.741 1.8207 30.741 1.79244 30.741 1.76182L30.88 1.77831C30.8871 1.73698 30.892 1.69532 30.8946 1.6535C30.8312 1.67469 30.6728 1.72886 30.624 1.69824C30.5753 1.66763 30.624 1.66763 30.624 1.61111C30.624 1.55459 30.7898 1.50043 30.8678 1.52162C30.8678 1.48865 30.8678 1.46275 30.8678 1.43213H30.7752C30.593 1.55893 30.3811 1.63987 30.1584 1.66763C30.1072 1.66763 30.1584 1.61817 30.1097 1.62995C30.2047 1.50749 30.2925 1.39445 30.3851 1.26729C30.3705 1.26729 30.3559 1.26729 30.3412 1.26729L30.1438 1.37326C30.1438 1.33087 30.1438 1.28848 30.1609 1.24609C29.7574 1.33127 29.375 1.49122 29.0346 1.71708C28.8371 1.84896 28.4325 2.23752 28.3033 2.3482C27.9083 2.69202 27.3476 3.33728 27.1209 3.57983C26.7187 4.01079 26.4261 4.0626 26.2287 4.52181C25.8429 4.81414 25.5304 5.18686 25.3145 5.61214C25.2264 5.50662 25.1707 5.37935 25.1536 5.24477C25.0805 4.82088 25.0927 4.08144 24.8075 3.71642C24.7221 3.48093 24.6124 2.97933 24.3345 2.88042C24.2833 2.86158 24.276 2.90632 24.2321 2.90397C24.2321 2.83096 24.1639 2.62609 24.0883 2.60725C24.052 2.59646 24.0141 2.59168 23.9762 2.59312C23.8982 2.59312 23.7324 2.59312 23.6422 2.59312C23.6422 2.56957 23.6422 2.52482 23.6422 2.50598C23.6422 2.48714 23.6129 2.50598 23.6007 2.50598C23.5203 2.55308 23.452 2.62138 23.357 2.66847C23.357 2.66847 23.357 2.66847 23.3058 2.66847C23.2546 2.66847 23.2107 2.55308 23.2375 2.49185C23.1619 2.43063 23.101 2.36704 23.0279 2.30817C23.0279 2.30817 23.001 2.30817 22.9815 2.30817C22.9758 2.30746 22.97 2.30798 22.9645 2.30971C22.959 2.31144 22.954 2.31432 22.9498 2.31815C22.9456 2.32198 22.9423 2.32666 22.9402 2.33186C22.9381 2.33706 22.9373 2.34264 22.9377 2.3482C22.6939 2.3953 22.4501 2.45889 22.3867 2.72264C22.5107 2.89313 22.6223 3.07175 22.7207 3.25721C23.1424 4.51474 23.6032 7.59971 23.6495 8.5511C23.7324 10.1996 23.6495 11.2828 23.6495 12.2884C23.6495 13.2939 23.8762 12.969 23.9396 13.7225C23.9396 13.7414 23.9396 13.7225 23.9396 13.7555C24.0427 13.7495 24.1461 13.7495 24.2492 13.7555C24.3565 13.7461 24.3467 13.7814 24.3516 13.845ZM26.2823 5.33662C26.492 4.65604 27.1575 4.10734 27.6304 3.58925C27.6304 3.58925 27.6304 3.55393 27.6304 3.54922C27.6153 3.54521 27.5993 3.54521 27.5841 3.54922C27.5548 3.54922 27.5207 3.57041 27.489 3.57512C27.489 3.54216 27.4744 3.47151 27.5037 3.45031C27.5462 3.43114 27.594 3.42537 27.6402 3.43383C27.6548 3.43383 27.6597 3.48328 27.6841 3.48093C27.7084 3.47857 27.7182 3.4927 27.7304 3.48093C27.8644 3.41028 27.7133 3.2784 27.9205 3.24543C28.0646 3.18592 28.1936 3.09702 28.2988 2.98484C28.404 2.87265 28.4829 2.73983 28.53 2.59547C28.53 2.59547 28.53 2.56015 28.53 2.55544C28.53 2.55073 28.4666 2.55544 28.4471 2.54131C28.4276 2.52718 28.4471 2.51305 28.4471 2.50363L28.6689 2.48714C28.6562 2.45727 28.6456 2.42658 28.6372 2.3953C28.6348 2.36788 28.6348 2.3403 28.6372 2.31288L28.7177 2.36233C28.7177 2.34114 28.7177 2.29875 28.7177 2.28227C28.7177 2.26578 28.7494 2.28227 28.7616 2.28227C28.7737 2.28227 28.8176 2.31994 28.8469 2.33407C28.8812 2.19106 28.9677 2.06481 29.0907 1.97848C29.1199 1.99496 29.1467 2.01616 29.1784 2.03029C29.1784 1.9667 29.2637 1.79479 29.3198 1.85131C29.3759 1.90783 29.2052 2.035 29.176 2.06797C29.2033 2.07402 29.231 2.07873 29.2589 2.0821C29.1004 2.56957 28.5543 3.02407 28.2228 3.37731C27.6499 4.00372 26.7796 4.65839 26.3506 5.36958L26.2823 5.33662ZM29.2516 3.95427C29.193 3.93543 29.2516 3.82946 29.1955 3.8012C29.2735 3.61751 29.3637 3.2996 29.6026 3.28311C29.6245 3.28311 29.6416 3.26898 29.6562 3.28311C29.6709 3.29724 29.7074 3.41263 29.6855 3.43618C29.6635 3.45973 29.5709 3.48564 29.5831 3.54216C29.5953 3.59867 29.6197 3.58925 29.627 3.63635C29.6343 3.68345 29.5026 3.69287 29.4685 3.69994C29.4515 3.79413 29.3418 3.97546 29.2516 3.95427ZM25.6119 8.85253C25.5851 8.85253 25.5607 8.8125 25.5315 8.79837C25.6475 8.64636 25.7403 8.47902 25.8069 8.30148C25.9162 8.1062 26.0705 7.9378 26.2579 7.8093C26.275 7.67742 26.3457 7.64681 26.4749 7.67036C26.4749 7.70568 26.4749 7.74336 26.4749 7.77868C26.4481 7.77868 26.4237 7.76455 26.3896 7.75984C26.3316 7.91339 26.2333 8.04973 26.1044 8.15547C25.9717 8.27268 25.8855 8.43091 25.8606 8.60291C25.7265 8.63353 25.7119 8.74656 25.7094 8.86666C25.6765 8.86572 25.6437 8.86098 25.6119 8.85253V8.85253ZM24.8343 11.5866L24.7368 11.5725C24.7368 11.5466 24.7806 11.5277 24.7831 11.4995C24.7892 11.4455 24.7892 11.391 24.7831 11.337C24.7831 11.3111 24.727 11.2734 24.7392 11.2475C24.7514 11.2216 24.7879 11.2475 24.7879 11.2098C24.7917 11.184 24.7917 11.1579 24.7879 11.1321C24.7879 11.1062 24.7319 11.0662 24.7416 11.0426C24.7514 11.0191 24.7758 11.0191 24.7758 11.0049C24.777 10.9924 24.777 10.9798 24.7758 10.9673C24.7611 10.9319 24.7416 10.906 24.727 10.8731C24.7594 10.8671 24.793 10.8721 24.8221 10.8872C24.8406 10.9022 24.8548 10.9216 24.8633 10.9435C24.8718 10.9653 24.8744 10.9889 24.8708 11.012C24.8538 11.0403 24.8391 11.012 24.8245 11.012C24.8367 11.1345 24.866 11.264 24.866 11.3864C24.8757 11.4571 24.8391 11.5183 24.8343 11.5866ZM24.2614 12.1801C24.2361 12.1459 24.224 12.1042 24.2273 12.0623C24.279 11.8857 24.3157 11.7054 24.337 11.523C24.337 11.4854 24.3662 11.523 24.3857 11.523C24.4052 11.523 24.4564 11.6431 24.4247 11.6714C24.393 11.6997 24.4247 11.6478 24.3735 11.6714C24.3223 11.6949 24.4125 11.8009 24.4125 11.8245C24.4024 11.9469 24.3694 12.0666 24.315 12.1777C24.2882 12.2272 24.2882 12.1965 24.2614 12.1801Z" fill="#FFA100"/>
<path d="M28.5262 9.94598C28.4214 9.86355 27.7412 9.2395 27.5267 9.10526C27.2415 8.91922 27.0391 8.72376 26.7954 8.52124C26.6052 8.37288 26.2493 8.3352 26.0787 8.13268C25.869 8.13268 25.8544 8.06909 25.8129 7.87128C25.7555 7.82064 25.6873 7.78285 25.613 7.7606C25.5448 7.73705 25.3449 7.59811 25.2766 7.56749C25.0906 7.50665 24.9231 7.40228 24.7891 7.26371C24.869 7.28703 24.9504 7.30513 25.0328 7.31787C25.1196 7.32034 25.2062 7.30839 25.2888 7.28254C25.9969 7.45102 26.6892 7.67631 27.3585 7.95606C27.378 7.91602 27.3902 7.82418 27.4584 7.85244C27.5791 7.92247 27.7075 7.97934 27.8412 8.02199C28.0544 8.11724 28.2523 8.24177 28.4287 8.39172C28.4433 8.4082 28.4677 8.35639 28.4848 8.36817C28.5018 8.37994 28.5189 8.36817 28.5262 8.36817C28.5884 8.47899 28.671 8.57795 28.77 8.66018C28.8114 8.70022 28.8163 8.79677 28.8504 8.82738C28.8846 8.858 28.9065 8.82738 28.9406 8.85093C28.9478 8.76206 28.9286 8.67306 28.8855 8.59428C28.8423 8.51549 28.7769 8.45015 28.6968 8.40585C28.6627 8.38465 28.6968 8.46708 28.6359 8.42469C28.575 8.3823 28.653 8.4082 28.536 8.30694C28.4189 8.20568 28.0484 7.97961 27.8924 7.85715C27.8582 7.83124 27.8144 7.89954 27.7973 7.87599C27.7498 7.81689 27.6892 7.7687 27.6201 7.73491C27.551 7.70111 27.475 7.68254 27.3975 7.68053C27.3756 7.68053 27.3975 7.61459 27.417 7.61224C27.4365 7.60988 27.5681 7.64285 27.595 7.6452C27.6218 7.64756 27.6364 7.6452 27.6462 7.6452C27.6559 7.6452 27.6218 7.57927 27.6291 7.5722C27.6352 7.5693 27.6418 7.56779 27.6486 7.56779C27.6554 7.56779 27.662 7.5693 27.6681 7.5722C27.8294 7.65075 27.9864 7.73721 28.1386 7.83124C28.1532 7.80534 28.1557 7.79828 28.1922 7.79592C28.2288 7.79357 28.1922 7.82653 28.2239 7.83831C28.3772 7.9193 28.5143 8.02618 28.6286 8.15387C28.7042 8.24807 28.67 8.15387 28.7285 8.19155C28.787 8.22923 28.8967 8.15623 28.926 8.19155C28.9553 8.22687 29.0357 8.33756 29.0966 8.3352C29.1576 8.33285 29.1235 8.31872 29.1625 8.30223C29.2015 8.28575 29.1625 8.22216 29.1771 8.18448C29.2136 8.14153 29.244 8.094 29.2673 8.04319C29.2673 7.99374 29.3063 7.96783 29.3039 7.91367C29.289 7.85729 29.2792 7.79977 29.2746 7.74176C28.787 7.50626 28.3556 7.22367 27.8607 6.99524C28.4774 7.09886 28.8358 7.09179 29.4331 7.43797C30.0225 7.81859 30.557 8.27314 31.0225 8.7897C31.0159 8.85246 31.0229 8.91586 31.043 8.97586C31.0632 9.03587 31.096 9.09116 31.1395 9.13823C31.4564 9.52444 31.8099 9.88239 31.827 10.3863C31.8904 10.4311 31.9537 10.4805 32.0147 10.5324C32.1697 11.0093 32.3738 11.4701 32.6241 11.9076C32.6802 12.0277 32.6241 12.1431 32.7241 12.2632C32.6716 12.3619 32.6497 12.4731 32.6607 12.5835C32.6607 12.6636 32.5754 12.6071 32.5461 12.6542C32.5169 12.7012 32.5315 12.7483 32.5047 12.7954C32.4779 12.8425 32.4486 12.8473 32.3999 12.892C32.3511 12.9367 32.2024 13.0074 32.1561 13.0521C32.1098 13.0969 32.1561 13.1016 32.1561 13.1087C32.0146 13.2101 31.8446 13.2676 31.6685 13.2735C31.5491 13.2452 31.6003 13.1887 31.5125 13.1534C31.5734 13.1039 31.6222 13.0545 31.5881 12.9815C31.4942 13.0414 31.3873 13.0796 31.2757 13.093C31.1641 13.1065 31.0507 13.0949 30.9445 13.0592C30.8909 13.0404 30.8519 12.8237 30.8421 12.7907C30.8324 12.7578 30.8421 12.8331 30.808 12.7907C30.7781 12.7322 30.743 12.6762 30.7032 12.6235C30.6617 12.5788 30.5861 12.5435 30.5398 12.5011C30.4296 12.0698 30.1985 11.6763 29.8719 11.3636C29.828 11.3213 29.8719 11.4508 29.7817 11.3425C29.6833 11.2534 29.6009 11.1491 29.5379 11.034C29.2313 10.6458 28.893 10.282 28.5262 9.94598ZM27.8558 6.92459C27.3049 6.79272 26.7661 6.62316 26.2274 6.45361C26.2274 6.46538 26.2274 6.48422 26.2274 6.496C26.2274 6.50777 26.1932 6.496 26.1859 6.496C25.9421 6.46538 25.7252 6.38296 25.4838 6.33115C25.4838 6.30996 25.4838 6.25579 25.4838 6.24166C25.4838 6.22753 25.5813 6.24166 25.6106 6.24166C25.6399 6.24166 25.6837 6.28405 25.6935 6.27463C25.7032 6.26521 25.6594 6.20634 25.6594 6.1875C25.83 6.21576 26.0689 6.22282 26.1762 6.37119C26.3541 6.37119 26.5955 6.34764 26.7247 6.48658C27.1212 6.58031 27.502 6.72777 27.8558 6.92459V6.92459ZM25.3108 6.95285C25.1401 6.92224 24.95 6.86808 24.8988 6.71736C24.8988 6.69381 24.9865 6.71736 25.0012 6.71736C25.0709 6.72835 25.1373 6.75383 25.1958 6.79205C25.2543 6.83027 25.3035 6.88032 25.34 6.93872C25.3668 7.01408 25.3181 6.95285 25.3108 6.95285V6.95285ZM26.2712 7.17422C26.1908 7.19541 26.1932 7.13654 26.1396 7.12476C25.8641 7.06354 25.5058 7.10357 25.3181 6.85866C25.5838 6.91282 25.8471 6.97405 26.1103 7.04705C26.1225 7.01408 26.1298 6.94579 26.1542 6.92459C26.1786 6.9034 26.2591 6.88221 26.2712 6.90811C26.3127 7.01408 26.3834 7.03999 26.515 7.0235C26.4785 7.1177 26.3493 7.15067 26.2712 7.17422V7.17422Z" fill="#FFA100"/>
</svg>
