<svg width="53" height="48" viewBox="0 0 53 48" fill="none" xmlns="http://www.w3.org/2000/svg">
<path fill-rule="evenodd" clip-rule="evenodd" d="M45.6045 16.6997C44.9912 15.2637 44.3099 13.6686 41.4678 14.6453V6.89655C41.4678 2.89523 34.7211 0 26.5015 0C18.2819 0 11.5352 2.89523 11.5352 6.89655V41.1034C11.5352 45.1048 18.2819 48 26.5015 48C34.7211 48 41.4678 45.1048 41.4678 41.1034V20.4599C44.0031 20.7935 44.5501 22.7863 44.0766 24.8474L46.6854 25.2612C47.2707 21.4816 45.9849 18.9679 41.4678 18.7711V17.1948C43.2034 16.3589 44.2646 17.7252 45.3527 19.1262C46.2449 20.275 47.1553 21.4471 48.4704 21.4471C50.3927 21.4471 51.903 20.4816 53.0015 18.5505L50.6673 15.3781C50.2096 17.4931 49.1112 18.5505 47.3719 18.5505C46.395 18.5505 46.0149 17.6607 45.6045 16.6997ZM30.4913 25.737C29.1607 25.4131 27.7928 25.0801 26.4464 25.0801C25.0783 25.0801 23.6961 25.42 22.3566 25.7494C18.8592 26.6094 15.6525 27.398 13.7467 21.879C11.422 15.1465 16.7288 16.6302 21.5673 17.9829L21.5673 17.9829C23.4448 18.5078 25.2518 19.013 26.515 19.0109C27.7291 19.0088 29.4723 18.5356 31.2951 18.0407C36.092 16.7385 41.44 15.2867 39.1463 21.879C37.2329 27.378 33.9912 26.5889 30.4913 25.737ZM19.7672 20.7469C19.1778 20.4767 18.5942 20.2286 18.0435 20.049C17.9667 21.0237 18.3872 21.9303 19.3253 22.8138C20.1442 23.585 20.9158 23.675 21.7434 23.0086C22.016 22.7081 22.2523 22.369 22.4521 21.9914C22.1155 21.8503 21.765 21.6901 21.4071 21.5219C21.4164 21.5796 21.4212 21.6387 21.4212 21.699C21.4212 22.3085 20.9294 22.8025 20.3227 22.8025C19.7161 22.8025 19.2243 22.3085 19.2243 21.699C19.2243 21.2932 19.4423 20.9386 19.7672 20.7469ZM14.8305 21.0094C15.185 19.9412 15.9705 19.6619 16.9652 19.7909C16.7975 21.1648 17.3415 22.458 18.574 23.6188C18.9292 23.9533 19.2885 24.1983 19.6492 24.3556C19.0729 24.5544 18.4277 24.6804 17.7139 24.7335C20.5047 25.2592 22.5061 24.4911 23.7181 22.4292C24.8822 22.7109 25.6776 22.4358 25.6776 20.8715C25.2724 22.4999 23.4268 21.3818 21.3658 20.1332C18.539 18.4205 15.307 16.4624 14.8305 21.0094ZM31.5882 21.4993C31.227 21.6858 30.8729 21.8604 30.5312 22.0068C30.7318 22.3874 30.9693 22.7289 31.2437 23.0312C32.0712 23.6977 32.8429 23.6076 33.6618 22.8364C34.644 21.9114 35.0588 20.9611 34.9294 19.9338C34.3367 20.111 33.7186 20.3947 33.0999 20.7084C33.4899 20.8778 33.7628 21.2677 33.7628 21.7217C33.7628 22.3311 33.271 22.8251 32.6644 22.8251C32.0577 22.8251 31.5659 22.3311 31.5659 21.7217C31.5659 21.6455 31.5736 21.5712 31.5882 21.4993ZM27.573 21.7217C27.9878 22.3328 28.5642 22.4964 29.2404 22.4028C30.4495 24.5015 32.4604 25.286 35.2732 24.7562C34.5593 24.7031 33.9142 24.5771 33.3378 24.3782C33.6986 24.2209 34.0578 23.976 34.413 23.6414C35.666 22.4614 36.2075 21.1445 36.0129 19.745C36.8514 19.7257 37.595 20.0648 38.1566 21.032C37.6226 16.0912 34.565 18.0921 31.712 19.959C30.1048 21.0107 28.5626 22.0199 27.573 21.7217ZM27.0238 19.6527C27.0238 20.4218 27.4357 21.032 28.1223 21.17C27.4357 21.3079 26.6119 20.7562 27.0238 19.6527ZM39.5455 6.89655C39.5455 9.59882 33.7506 12.1379 26.5015 12.1379C19.2523 12.1379 13.4574 9.59882 13.4574 6.89655C13.4574 4.19428 19.2523 1.65517 26.5015 1.65517C33.7506 1.65517 39.5455 4.19428 39.5455 6.89655Z" fill="#1D1D1F"/>
<ellipse cx="26.5002" cy="6.89534" rx="6.45336" ry="2.75862" fill="#FF6633"/>
</svg>
