<svg width="74" height="38" viewBox="0 0 74 38" fill="none" xmlns="http://www.w3.org/2000/svg">
<path fill-rule="evenodd" clip-rule="evenodd" d="M23.8658 27.0046H23.2357C23.2357 26.8636 23.0224 26.7191 22.5962 26.5716C21.5331 25.4167 21.0016 22.416 21.0016 17.569C20.9359 17.569 20.9034 17.4249 20.9034 17.136C20.9034 17.0622 20.9359 17.0251 21.0016 17.0251L20.9034 16.4817V15.5045C20.9034 15.4373 20.9359 15.4041 21.0016 15.4041C20.9359 15.2631 20.9034 15.1522 20.9034 15.0715L21.0016 12.4736H21.1099C21.1099 12.3999 21.0741 12.3628 21.0016 12.3628C21.0933 11.3829 21.1658 10.8054 21.2183 10.6304C21.2183 10.5567 21.182 10.52 21.1099 10.52C21.1099 10.4458 21.1462 10.3384 21.2183 10.1979C21.2904 8.37213 21.3262 6.92523 21.3262 5.85762C21.3262 4.6761 21.1854 3.15544 20.9034 1.29608C21.2115 0.71863 21.5297 0.429688 21.8578 0.429688C22.2647 0.429688 22.5109 0.611259 22.5962 0.973529C23.1145 1.09487 23.5735 1.45714 23.9741 2.06165C23.9741 2.25588 24.0462 2.47062 24.1904 2.70588L24.3973 2.60505H24.5057C24.6435 3.59191 24.7121 4.13226 24.7121 4.2261H24.9289V4.01485C25.2305 4.01485 25.4075 4.5181 25.46 5.52547C25.5585 5.52547 25.6997 6.03221 25.8832 7.04569C25.9557 7.04569 25.9915 7.08279 25.9915 7.15656C25.9915 7.23032 25.9557 7.26742 25.8832 7.26742L26.1984 9.54317C26.1263 9.93294 26.0901 10.2581 26.0901 10.52V11.7081C26.0901 11.8761 26.0572 12.0241 25.9915 12.1515C26.0572 12.2855 26.0901 12.3929 26.0901 12.4736C25.8341 15.1453 25.6242 16.4817 25.46 16.4817L25.5683 17.2469V19.2001C25.5683 19.3611 25.5325 19.5056 25.46 19.633C25.5325 19.7609 25.5683 19.905 25.5683 20.0665V20.1769C25.5683 20.3183 25.4962 20.3886 25.352 20.3886C25.352 20.3148 25.3158 20.2777 25.2437 20.2777V20.3886L25.46 20.7107V20.9324L25.0372 24.4063L24.5057 25.2722C24.2693 25.2722 24.056 25.3796 23.8658 25.5948C23.8658 25.6681 23.9016 25.7052 23.9741 25.7052L23.8658 26.7933V27.0046ZM31.1483 30.8419C34.5321 32.0762 36.8587 32.7274 38.1275 32.7942C38.1275 32.7942 41.6956 33.5964 43.352 32.6279C46.3383 30.882 45.5725 19.0472 45.5725 19.0472L45.8054 15.6641C45.8387 13.2814 45.6173 10.7294 45.1412 8.00884L45.0937 7.88264C44.8076 7.12361 43.9994 4.97973 44.0909 4.51534C44.2445 4.17751 44.3823 4.02038 44.5043 4.04569L44.8132 4.10898C44.8405 3.97106 44.8895 3.90908 44.9603 3.92348L45.4812 4.03129L45.5025 3.92261L46.2047 4.17969L46.1855 4.27877C45.9795 4.23599 45.8626 4.28706 45.834 4.43241L46.0678 4.36737L46.1642 4.38701L46.1429 4.49569L45.8779 4.77023C45.8575 4.87542 45.9394 5.00156 46.125 5.14953L46.337 5.19317C46.3745 5.002 46.5055 4.88197 46.7294 4.83221L46.7486 4.73357L47.1637 4.81868C47.1415 4.93042 47.5225 5.37562 48.3066 6.15297C48.9252 6.92421 49.4989 8.03808 50.0292 9.49633C50.5403 11.6625 50.7472 12.9959 50.6486 13.4961L50.5424 13.4739C50.6674 14.6777 50.7502 16.0949 50.7911 17.7264C50.6934 17.8504 50.6363 17.9512 50.6209 18.0306C50.8333 18.0738 50.8888 18.7119 50.7868 19.9445L50.6401 20.1296L50.51 22.9889C50.2711 23.4878 50.1418 23.7898 50.1209 23.895L50.1009 24.5589L50.1973 24.5785L50.4311 24.5135L50.3884 24.7309L50.2417 24.9164C50.312 24.9308 50.3406 24.9744 50.3265 25.0469C50.2557 25.0325 50.2131 25.0608 50.199 25.1333L50.4069 25.1765C51.303 23.8757 51.9506 22.8271 52.3499 22.0306C52.3499 21.8761 52.5632 21.6247 52.9898 21.2755L54.5742 17.7004C54.5021 17.6606 54.4659 17.4053 54.4659 16.9352C54.9646 15.8545 55.2828 15.3142 55.4206 15.3142C55.9389 14.1593 56.7887 11.6989 57.97 7.93304L58.9243 5.65728C58.8522 5.51587 58.8163 5.4085 58.8163 5.33473C59.0787 5.33473 59.4656 5.00913 59.9775 4.35791H60.4105L60.5091 4.79089H60.6174C60.7616 4.79089 60.8337 4.71713 60.8337 4.56917L61.887 4.68003H62.1033C62.1033 4.89521 62.1724 5.00258 62.3102 5.00258H62.4185C62.4185 4.7874 62.4906 4.68003 62.6353 4.68003H62.7432C62.881 4.70011 62.9501 4.77387 62.9501 4.90176L63.1664 4.79089H63.2649V5.22387H63.4812C63.6194 5.22387 63.6881 5.15011 63.6881 5.00258V4.90176L63.5896 4.68003L64.1211 4.56917H64.328L64.2197 4.79089V5.11344C64.3639 5.11344 64.4359 5.25748 64.4359 5.54642H65.2827C65.2827 5.62018 65.2465 5.65728 65.1744 5.65728C65.2072 6.01955 65.3152 6.20069 65.499 6.20069V6.84492C65.5383 7.61747 65.7482 8.16087 66.1291 8.47644C66.1291 8.51005 66.2371 8.87276 66.4538 9.56413L66.6607 9.45326H66.769L67.1918 11.0843C67.4017 11.0843 67.5066 11.2991 67.5066 11.729C67.435 11.729 67.3987 11.7661 67.3987 11.8399L67.615 11.9507V11.8399C67.5429 11.8399 67.5066 11.8032 67.5066 11.729H67.8317C67.8381 12.1384 68.0484 12.9341 68.4618 14.1161C68.3893 14.5119 68.3534 14.8005 68.3534 14.9816L68.5697 15.0924C68.5697 15.0187 68.606 14.9816 68.6781 14.9816C68.6781 15.1295 68.888 15.5992 69.3082 16.3914C71.4932 16.1766 72.802 16.0693 73.235 16.0693V16.291H73.0183L73.1267 16.8248L71.0107 17.4791L71.1093 17.7004C71.1093 18.043 70.7944 18.2577 70.1643 18.345V18.4559H70.3708V18.6776L70.1643 18.9997V19.211C70.7287 21.0437 71.1878 22.6717 71.5423 24.0951C71.5423 24.2094 71.6114 24.3535 71.7487 24.528V24.6389C71.7487 24.7127 71.7129 24.7493 71.6404 24.7493L72.5955 27.5694C72.5298 27.5694 72.497 27.606 72.497 27.6798C72.7986 27.6798 73.1139 28.7976 73.4419 31.0332C73.2056 31.0332 73.0315 31.2143 72.9202 31.5766H72.2803C72.2803 31.7983 72.1032 31.9092 71.7487 31.9092C71.4996 31.6608 70.8631 31.3688 69.8397 31.0332C69.8397 30.9193 69.3111 30.7041 68.2549 30.389C68.2549 30.3082 68.0416 30.1266 67.615 29.8451V29.6234L68.3534 29.7343H68.6781C68.8159 29.7343 68.8845 29.664 68.8845 29.5226C68.8845 29.2943 68.2156 27.5218 66.877 24.2059C66.877 23.7625 66.5225 22.6416 65.8139 20.8425C64.456 21.279 62.9731 21.6046 61.3653 21.8193C61.3653 21.7451 61.3294 21.7085 61.2573 21.7085C61.2573 21.9232 61.044 22.0672 60.6174 22.1414C59.4166 22.4234 58.8163 22.8228 58.8163 23.3395C58.3701 24.7899 57.9469 25.7999 57.5463 26.3708V26.703C57.7567 26.703 57.8616 26.7737 57.8616 26.9147V27.0255L57.6547 26.9147H57.4384C57.2285 27.4786 57.1236 27.8409 57.1236 28.0019L56.9069 27.8915C56.9069 28.0796 56.6936 28.2974 56.267 28.5458C56.267 28.6802 55.88 29.3314 55.1058 30.4994L54.889 30.6002H54.6826L54.2594 30.2781H54.151C54.0132 30.2982 53.9445 30.3719 53.9445 30.4994C54.0098 30.6334 54.0427 30.7408 54.0427 30.8215L53.8362 30.9324C53.744 30.8586 53.567 30.8215 53.3046 30.8215C53.3046 31.0362 53.1634 31.1436 52.8815 31.1436L51.1789 29.956C50.7428 29.956 50.3181 29.4326 49.9043 28.3861C49.8694 28.8592 49.7573 29.5772 49.568 30.5403L49.4012 31.3888C49.3044 31.8829 49.1884 32.1155 49.0531 32.088L48.9499 33.1757L48.8258 33.8077C48.4461 34.9896 47.9807 35.7055 47.4299 35.9547C47.2836 36.0712 47.0208 36.1598 46.6458 36.2222C46.6374 36.2248 46.6298 36.2277 46.622 36.2307L46.6084 36.2357L46.6006 36.2384C46.4434 36.3708 46.4301 36.4131 46.4149 36.4615C46.4017 36.5035 46.387 36.5501 46.2751 36.6644C46.1941 36.7006 46.0076 36.7194 45.721 36.722V36.7246C45.5469 36.8032 45.3259 36.8224 45.0576 36.7818C44.7364 37.1681 44.4885 37.4007 44.3145 37.4788L43.2659 37.467C42.3116 37.5814 41.1235 37.6028 39.702 37.5312C38.6087 36.9887 37.3135 36.5858 35.8161 36.3209C35.0713 35.7395 34.4084 35.4475 33.8265 35.4453C33.6865 35.1197 32.6904 34.4205 30.8386 33.3472C30.2208 32.9945 29.8488 32.8461 29.7226 32.9033C29.2563 32.4018 28.9329 32.1914 28.7525 32.2726L28.5823 31.8763C30.3492 32.5847 31.2989 32.909 31.4307 32.8492L31.3872 32.7484L30.5003 32.311L30.4606 32.2189L30.56 32.1744C30.5783 32.2176 31.141 32.4424 32.2485 32.8501C33.3551 33.2573 34.2893 33.462 35.0504 33.4642C35.6673 33.5829 36.0631 33.6025 36.2372 33.524L36.3362 33.4795C36.4445 33.431 36.4795 33.338 36.442 33.201C33.8388 32.5314 32.4558 32.0064 32.2916 31.6258L32.1461 31.8121C31.9481 31.9016 31.7498 31.7157 31.5514 31.2548L31.3624 31.3399L31.4456 31.5332L31.3462 31.5782C31.2302 31.308 31.0834 31.0584 30.9064 30.8301L31.1048 30.7411L31.1483 30.8419ZM50.272 25.3716L50.2766 25.365C50.2726 25.3644 50.2685 25.3637 50.2643 25.3629C50.266 25.3643 50.2676 25.366 50.2692 25.3679L50.272 25.3716ZM12.6073 28.671C12.6073 29.1743 13.2438 29.4628 14.5168 29.5365C15.7898 29.4763 16.4263 29.2245 16.4263 28.7819C17.4825 27.2573 18.0107 26.0627 18.0107 25.1967C18.5094 22.182 18.8276 19.9403 18.9654 18.4699V18.369L18.5426 18.5803V18.369L18.6506 17.8256C18.5785 17.8256 18.5426 17.7885 18.5426 17.7148H18.6506C18.6506 14.2841 18.7918 11.8237 19.0738 10.3332V10.2324H18.8673C18.8673 10.5217 18.7589 10.6658 18.5426 10.6658C18.5426 10.7395 18.5785 10.8469 18.6506 10.9879L18.5426 12.0756C18.5426 12.1493 18.5785 12.2567 18.6506 12.3977C18.6506 12.4915 18.5094 12.8171 18.2274 13.3745H18.119C18.119 12.6495 18.0141 12.2868 17.8042 12.2868C17.8042 12.1458 17.9091 12.0756 18.119 12.0756V11.31C18.119 10.8404 18.1553 10.1189 18.2274 9.14511H18.0107C18.0107 9.30617 17.9782 9.45021 17.9125 9.57809L18.0107 9.79938C17.8272 9.82644 17.686 10.0045 17.5875 10.3332L17.6958 10.7766C17.6958 10.8439 17.66 10.877 17.5875 10.877C17.5875 11.1455 17.6237 11.3266 17.6958 11.4209C17.6237 11.4209 17.5188 11.6758 17.381 12.1864C17.4531 12.3069 17.4894 12.4514 17.4894 12.619V12.7202L17.2726 13.052L17.381 13.2636H17.2726C17.2726 13.5054 17.3089 13.687 17.381 13.8075C17.3349 14.2239 17.23 14.549 17.0662 14.7843L17.1647 15.0056H17.0662C17.0662 15.583 16.9216 15.8715 16.6327 15.8715V15.9824L16.7411 16.6271C16.387 17.2783 16.2096 17.9662 16.2096 18.6911H16.0031C16.0031 18.6174 16.0389 18.5803 16.1114 18.5803C16.1114 18.3991 16.0752 18.1106 16.0031 17.7148L16.2096 17.3926L16.1114 17.1709C16.2492 17.1709 16.3179 16.9898 16.3179 16.6271L16.2096 16.4154C16.2821 16.4154 16.3904 16.2343 16.5346 15.8715C16.4625 15.7441 16.4263 15.5996 16.4263 15.4386C16.4263 15.3447 16.4954 14.9454 16.6327 14.2405V13.9183L16.5346 13.2636L16.6327 13.052L16.5346 12.5081L16.7411 11.9647C16.669 11.8373 16.6327 11.6928 16.6327 11.5317L16.8495 11.2096H16.6327L16.9578 8.823L16.8495 8.60127C17.3349 7.69516 17.9714 7.08105 18.7589 6.7585V6.53721C18.7589 6.36917 18.4407 6.22513 17.8042 6.10379C17.1481 6.52673 16.6528 7.10767 16.3179 7.84618V8.05743H16.5346V8.16829H16.3179L16.4263 8.39002C16.4263 8.69861 16.3542 8.98755 16.2096 9.25598L16.3179 9.46766C16.1997 10.2463 16.059 10.716 15.8947 10.877L16.0031 11.0988C15.931 11.0988 15.8947 11.1359 15.8947 11.2096V11.31H16.0031V12.5081C16.0031 12.7233 16.0722 12.8307 16.2096 12.8307C16.0982 12.9922 15.9933 13.3173 15.8947 13.8075C15.8947 15.4722 15.7535 16.305 15.4715 16.305V16.5162H15.6784C15.6784 16.5904 15.6456 16.6271 15.5799 16.6271L15.6784 17.1709C15.6059 17.1709 15.501 17.2076 15.3632 17.2818C15.4353 17.7785 15.5078 18.1041 15.5799 18.2582C15.4421 18.3324 15.3337 18.369 15.2548 18.369V19.4467C15.1175 19.4467 15.0483 19.5911 15.0483 19.8796H14.94C14.8022 19.8796 14.6973 19.6278 14.6252 19.1246C14.763 18.661 14.8679 18.0102 14.94 17.1709C14.8679 17.0435 14.8316 16.899 14.8316 16.7379C14.8316 16.2277 14.9042 15.8283 15.0483 15.5398C14.9763 15.4054 14.94 15.298 14.94 15.2173C14.7105 15.2173 14.5334 16.0867 14.4089 17.8256C14.481 17.8256 14.5168 17.8588 14.5168 17.926C13.9524 21.9878 13.3163 24.4111 12.6073 25.1967C12.4764 24.5451 12.3352 24.2195 12.1842 24.2195C10.9931 19.7516 8.95223 15.8675 7.35769 12.8327C6.58046 11.3535 5.90926 10.076 5.49419 9.03119C5.06802 8.507 4.85472 8.18139 4.85472 8.05394H4.64782V8.1648L4.74636 8.38653C4.5625 8.1648 4.28051 8.05394 3.89999 8.05394V7.95355H4.11627V7.73182C3.55188 7.73182 3.2699 7.58735 3.2699 7.29885L2.97213 7.30932C2.53913 7.67159 2.22088 7.85273 2.0174 7.85273C2.0174 7.50399 1.80452 7.17795 1.37792 6.87634C1.16761 6.98372 1.06266 7.09109 1.06266 7.19846C0.984169 7.19846 0.875812 7.16136 0.73802 7.0876C0.619851 7.0876 0.551168 7.16136 0.531545 7.30932L0.639475 7.52101C0.567379 7.52101 0.531545 7.55767 0.531545 7.63144L0.314832 7.52101H0.216713C0.0917192 7.52101 0.0196236 7.59477 0 7.74186V7.85273L0.216713 8.60826C0.898848 8.60826 1.67612 10.8871 2.54894 15.446H2.44058C2.51311 16.1439 2.61762 16.6843 2.75584 17.067H2.64749C2.64749 17.3084 2.68332 17.4895 2.75584 17.6109L2.64749 18.1547C2.71958 18.7854 2.75584 19.1481 2.75584 19.242C2.68332 19.7522 2.64749 20.0411 2.64749 20.1079C2.79168 20.6854 2.8642 21.3536 2.8642 22.1118C2.8642 22.7564 2.79168 23.824 2.64749 25.3141C2.64749 26.7444 2.93288 27.7208 3.50367 28.2446V28.0229L3.39532 27.8016C3.46784 27.8016 3.50367 27.768 3.50367 27.7007V27.5899H3.28739V27.4795C3.35948 27.4795 3.46443 27.4424 3.60222 27.3686C3.95672 28.0464 4.13376 28.6274 4.13376 29.1105C4.84235 29.2314 5.19643 29.52 5.19643 29.9769H5.30478C5.30478 29.7552 5.33763 29.5034 5.40333 29.2214H5.62004C5.62004 29.9398 5.83292 30.2991 6.25952 30.2991L7.42072 29.8661C7.34863 29.3489 7.31279 29.0604 7.31279 29.0001C7.31279 28.7849 7.38489 28.6776 7.52908 28.6776L7.42072 28.1337V27.3686L7.31279 27.1573H7.42072C7.42072 27.036 7.38489 26.603 7.31279 25.858L7.10589 25.9588C7.24368 25.3813 7.31279 25.0221 7.31279 24.8812V24.2269L7.21425 24.0052C7.27995 24.0052 7.31279 23.9515 7.31279 23.8441C7.31279 23.1322 7.27995 22.5015 7.21425 21.9507C7.25776 21.6871 7.39555 21.7215 7.6272 22.0546C8.74276 24.7738 9.6254 26.3276 10.2751 26.7169C10.8391 27.0596 11.1215 27.3847 11.1215 27.6938C11.6855 28.1839 11.9679 28.4724 11.9679 28.5602C12.04 28.5602 12.0758 28.5231 12.0758 28.4493C12.2533 28.5968 12.4303 28.671 12.6073 28.671ZM40.3635 29.7862C40.3362 29.6435 40.1608 29.5798 39.8379 29.5955C39.8673 29.75 39.5747 29.9071 38.9599 30.0682C38.6707 29.7247 38.3337 29.4929 37.948 29.3729C37.931 29.2838 37.8171 29.2079 37.6059 29.145L37.5189 29.1629L37.5564 29.3589C37.021 28.96 36.745 28.7164 36.728 28.6274C35.4644 26.7938 34.7485 25.4403 34.5809 24.566C34.3377 23.6145 34.0724 22.7355 33.7848 21.9284L33.8446 21.722L33.3207 20.0302L33.4167 20.011L33.2832 19.8343L32.9508 18.1037L32.6804 17.167L32.2969 17.2442C32.3267 17.3988 32.2627 17.7418 32.1053 18.2739L32.2969 18.2355C32.2491 18.9923 32.2422 19.4598 32.2768 19.6383C32.3348 19.6265 32.3702 19.6531 32.3826 19.719C32.1791 19.7596 32.1407 20.2336 32.2666 21.1406L32.4547 21.6033C32.4223 21.9677 32.3463 22.2484 32.2273 22.4457C32.2397 22.5107 32.2781 22.5373 32.3421 22.5242C32.3899 23.4657 32.3758 24.0671 32.2994 24.3299C32.3805 24.4373 32.4274 24.5263 32.4415 24.5974C32.2542 25.006 32.1441 25.9575 32.1113 27.452C32.0486 28.132 31.985 28.4781 31.921 28.4908L31.6424 28.5466C31.5051 29.3091 31.2909 29.7199 31.0004 29.7779C30.8584 29.5409 30.741 29.4318 30.648 29.4506L30.4561 29.489L30.0026 29.6732C29.9476 29.3877 29.6293 29.2541 29.0474 29.272L29.0508 28.7714C28.989 28.4502 28.8337 28.3149 28.5837 28.3651L28.472 27.7854C28.4118 27.4699 28.2245 27.3442 27.911 27.4074C27.6324 25.9566 27.6738 23.4535 28.0351 19.898C28.0227 19.8321 27.9843 19.8063 27.9204 19.819L27.9186 18.819L28.1294 18.8788L28.018 18.2988C28.2326 18.2555 28.3026 17.9422 28.2267 17.3582L28.0982 16.6895C28.2433 16.6602 28.2936 16.4184 28.2488 15.9645L28.0863 15.5896C28.1076 15.3879 28.1507 15.2806 28.2143 15.267C28.2019 15.202 28.1635 15.1754 28.0995 15.1885C28.062 14.6464 28.0722 14.1811 28.1307 13.7926C28.0428 13.6809 27.992 13.5892 27.9779 13.5181C28.0889 13.4339 28.1759 13.3854 28.2399 13.3728C28.1452 13.2252 28.0223 12.9162 27.8721 12.4461C27.9532 12.4295 28.0411 12.2113 28.1354 11.791C28.0475 11.6793 27.9976 11.5907 27.9848 11.5247L28.0808 11.5055L27.9472 11.3288C28.0121 9.62392 27.9434 7.74143 27.7412 5.6826C27.9438 5.51238 28.1819 5.39977 28.4549 5.34477L28.7339 5.28847C28.7979 5.27581 28.8363 5.302 28.8486 5.36747L29.0218 5.23085C29.7189 5.49841 30.1161 5.88469 30.2129 6.39012L30.3857 6.2535L30.6647 6.1972L30.6839 6.29584L30.6323 6.50011L31.5652 6.31286L32.7136 6.68386L32.8369 6.85408L32.5579 6.90995L32.5767 7.00772C32.8335 7.65413 33.2187 8.3084 33.7324 8.9714C34.5416 10.1359 35.0877 11.4558 35.3705 12.9306L35.629 14.2776C35.821 14.2387 36.2007 15.1937 36.7676 17.1421L36.8602 17.624C36.873 17.689 36.847 17.7283 36.783 17.7409L36.9152 17.9094C36.972 18.2067 36.94 18.7134 36.8175 19.4292C37.1473 19.7954 37.3644 20.2489 37.4681 20.7901L37.5061 20.9861L37.6887 20.9494C37.8166 20.9237 37.8939 20.4759 37.9199 19.6064L38.0159 19.5872L37.8823 19.41L37.8273 19.1246C38.0824 18.5977 38.1451 17.0539 38.0154 14.4923C38.1242 14.1802 38.2002 13.5692 38.2428 12.6591C38.5329 11.3406 38.8238 10.4825 39.1156 10.0844L39.2116 10.0652L39.2492 10.2616L39.1894 10.4676L39.3998 10.5274L39.4957 10.5082L39.477 10.41L39.285 10.4484L39.3452 10.2424L39.3264 10.1438C39.3136 10.0787 39.2756 10.0521 39.2116 10.0652C39.2539 9.93905 39.2611 9.80506 39.2338 9.66277L39.4168 9.62567L39.4219 10.1246C39.6254 10.0835 39.7952 9.61737 39.9322 8.72523L39.913 8.62702L40.1152 8.68857L40.0964 8.59036C40.0324 8.60345 39.994 8.57683 39.9812 8.5118C40.0802 8.49172 40.1962 8.40399 40.3289 8.2473C40.3404 8.30666 40.3754 8.33066 40.4334 8.31888C40.7278 7.46296 41.0609 6.99768 41.4329 6.92305L41.5289 6.90384L41.6023 7.2875L40.9419 8.42057L40.7397 8.35903L40.4522 8.41708L40.471 8.51529L40.8459 8.43978L40.8835 8.63619C40.5175 9.08619 40.3421 9.35331 40.3583 9.43624C40.1484 10.3864 39.9049 12.4981 39.628 15.7707L39.6468 15.8689L39.7338 15.8515C39.9812 15.1907 40.1088 14.3312 40.1173 13.2732L40.4253 11.8128L40.5296 11.7917C40.5415 11.5244 40.5968 11.3809 40.6963 11.3611L40.7918 11.3414C40.8226 11.502 40.9177 11.65 41.0764 11.7849L41.0996 11.9063C41.1428 11.8808 41.1804 11.8647 41.2124 11.8582L41.2316 11.9564C41.1365 12.4693 41.0644 13.1139 41.014 13.8895L41.11 13.8703C41.2555 13.8415 41.3459 13.292 41.3822 12.2227C41.7597 12.1467 41.9918 11.5007 42.0784 10.2856L42.2704 10.2468C42.2964 10.3838 42.2516 10.8251 42.1351 11.571C42.2921 11.5391 42.4094 11.6483 42.4875 11.8984L42.4845 12.3994C42.5848 12.5766 42.6671 12.6591 42.7311 12.646L42.784 14.4325C42.822 14.6285 42.9337 14.7079 43.1197 14.6708L43.1368 14.7599C43.1824 17.0417 43.1048 19.6845 42.903 22.6896C42.6948 23.8061 42.2891 25.4189 41.6863 27.5283C41.2222 28.8199 40.9581 29.4719 40.8941 29.485L40.3635 29.7862ZM40.7009 12.2576L40.6485 11.9847C40.6817 11.9847 40.7153 11.9872 40.7494 11.9923L40.7969 12.2384L40.7009 12.2576ZM40.6777 11.104L40.7737 11.0848C40.737 10.8949 40.7801 10.7875 40.9021 10.7627L40.8453 10.4685L40.7583 10.4859C40.7963 10.6819 40.7191 10.7998 40.5271 10.8382C40.615 10.9504 40.6653 11.039 40.6777 11.104ZM14.8193 15.034H14.9276C14.9276 14.7389 14.8918 14.45 14.8193 14.168L14.9276 13.6242V13.5238H14.7211C14.7211 13.7184 14.6486 13.9332 14.5044 14.168L14.6128 14.3897C14.5407 14.3897 14.5044 14.4264 14.5044 14.5006V14.7118C14.6162 14.9266 14.7211 15.034 14.8193 15.034ZM58.0177 12.4082C58.1688 12.3746 58.3095 12.1934 58.4409 11.8643C58.3752 11.7369 58.3428 11.5924 58.3428 11.4313C58.5066 11.4313 58.8249 10.8168 59.2971 9.58857L59.1892 9.36684V9.25598C59.5761 8.80641 59.786 8.1923 59.8188 7.4132H59.3957V7.63493H59.6124C58.5493 9.93774 58.0177 11.5287 58.0177 12.4082ZM38.906 23.4185C38.9069 23.7703 38.8429 24.1134 38.7145 24.4482C38.604 24.4704 38.528 24.4207 38.4862 24.2993L38.3941 23.8179L38.4901 23.7987L38.9073 21.9175C38.8949 21.8525 38.8446 21.7639 38.7567 21.6517C38.8557 21.6316 38.9679 21.5413 39.0937 21.3802L39.1129 21.478L38.9845 21.8006L39.022 21.9965L39.2051 21.9599L39.1505 21.674L39.2464 21.6552L39.3556 22.2257C39.1778 22.9965 39.0276 23.3941 38.906 23.4185ZM61.0039 18.3904C61.3648 18.3904 62.5329 18.1019 64.5076 17.5245V17.414C64.5076 17.2591 64.0123 15.7053 63.0213 12.7512V12.6508C62.6869 13.1004 62.3328 13.8956 61.9587 15.0375C61.8008 16.0374 61.5188 17.0107 61.1123 17.9574H61.0039V18.3904ZM70.4907 23.7668V23.8777C70.2808 23.8777 69.9626 23.0449 69.536 21.3802C69.8184 21.3802 69.9591 21.6351 69.9591 22.1458H70.1759L70.3823 22.0349C70.3823 22.1087 70.4186 22.1458 70.4907 22.1458L70.3823 22.6892C70.4549 23.3203 70.4907 23.6796 70.4907 23.7668ZM39.269 19.2874C39.2225 19.0434 39.3117 18.661 39.5378 18.1403C39.5809 18.0203 39.5822 17.8531 39.5412 17.6392L39.5054 17.452L39.4094 17.4712C39.3279 17.4878 39.2277 17.971 39.1082 18.9212L38.8207 18.9792L38.8941 19.3624L38.9901 19.3432L39.0384 19.308C39.0358 19.5168 38.9634 19.9672 38.8207 20.6587L38.836 21.2576L38.8531 21.3471L38.9491 21.3274C39.0903 20.0211 39.1569 19.3437 39.1475 19.2961L39.1361 19.2368L39.165 19.2158C39.176 19.2747 39.211 19.2987 39.269 19.2874Z" fill="#1D1D1F"/>
</svg>
