<svg width="45" height="44" viewBox="0 0 45 44" fill="none" xmlns="http://www.w3.org/2000/svg">
<path fill-rule="evenodd" clip-rule="evenodd" d="M22.5 41.8C33.4352 41.8 42.3 32.9352 42.3 22C42.3 11.0648 33.4352 2.2 22.5 2.2C11.5648 2.2 2.7 11.0648 2.7 22C2.7 32.9352 11.5648 41.8 22.5 41.8ZM22.5 44C34.6503 44 44.5 34.1503 44.5 22C44.5 9.84974 34.6503 0 22.5 0C10.3497 0 0.5 9.84974 0.5 22C0.5 34.1503 10.3497 44 22.5 44Z" fill="#D2D2D7"/>
<path fill-rule="evenodd" clip-rule="evenodd" d="M22.4992 34.1002C29.1819 34.1002 34.5992 28.6828 34.5992 22.0002C34.5992 15.3175 29.1819 9.9002 22.4992 9.9002C15.8166 9.9002 10.3992 15.3175 10.3992 22.0002C10.3992 28.6828 15.8166 34.1002 22.4992 34.1002ZM22.4992 36.3002C30.3969 36.3002 36.7992 29.8979 36.7992 22.0002C36.7992 14.1025 30.3969 7.7002 22.4992 7.7002C14.6015 7.7002 8.19922 14.1025 8.19922 22.0002C8.19922 29.8979 14.6015 36.3002 22.4992 36.3002Z" fill="#D2D2D7"/>
<path fill-rule="evenodd" clip-rule="evenodd" d="M22.5008 27.4998C25.5383 27.4998 28.0008 25.0374 28.0008 21.9998C28.0008 18.9622 25.5383 16.4998 22.5008 16.4998C19.4632 16.4998 17.0008 18.9622 17.0008 21.9998C17.0008 25.0374 19.4632 27.4998 22.5008 27.4998ZM22.5008 29.6998C26.7534 29.6998 30.2008 26.2524 30.2008 21.9998C30.2008 17.7472 26.7534 14.2998 22.5008 14.2998C18.2482 14.2998 14.8008 17.7472 14.8008 21.9998C14.8008 26.2524 18.2482 29.6998 22.5008 29.6998Z" fill="#D2D2D7"/>
</svg>
