<svg width="45" height="44" viewBox="0 0 45 44" fill="none" xmlns="http://www.w3.org/2000/svg">
<path d="M19.4007 7.95703V9.69143C19.4007 10.2251 17.9553 11.2035 15.5538 11.2035C13.1524 11.2035 11.707 10.2251 11.707 9.69143V7.95703C12.7299 8.46846 14.0418 8.77976 15.5538 8.77976C17.0659 8.802 18.4 8.49069 19.4007 7.95703Z" fill="#9E9E9E"/>
<path d="M24.1321 12.1807H22.1309V19.5852H24.1321V12.1807Z" fill="#86868B"/>
<path d="M15.5733 37.0385C10.7703 37.0385 6.99023 34.8593 6.99023 32.1021V12.1787H8.99147V32.1021C8.99147 33.4807 11.7932 35.0372 15.5733 35.0372V37.0385Z" fill="#86868B"/>
<path d="M15.5733 17.1172C10.7481 17.1172 6.99023 14.9604 6.99023 12.1809C6.99023 10.6021 8.21321 9.15679 10.3256 8.24512L11.1261 10.0907C9.79196 10.6688 8.99147 11.4471 8.99147 12.2031C8.99147 13.5817 11.7932 15.1382 15.5733 15.1382C19.3534 15.1382 22.1551 13.5817 22.1551 12.2031C22.1551 11.4693 21.3546 10.6688 20.0205 10.0907L20.821 8.24512C22.9334 9.15679 24.1564 10.6021 24.1564 12.1809C24.1341 14.9604 20.3763 17.1172 15.5733 17.1172Z" fill="#86868B"/>
<path d="M21.4004 5.28613V9.71108C21.4004 9.88897 21.3782 10.0669 21.3337 10.2447C20.9335 11.9791 18.5765 13.2021 15.5746 13.2021C12.7951 13.2021 10.5938 12.157 9.92669 10.645C9.79327 10.3337 9.72656 10.0224 9.72656 9.68884V5.28613H11.7278V9.71108C11.7278 10.2447 13.1954 11.2231 15.5746 11.2231C17.9538 11.2231 19.4214 10.2447 19.4214 9.71108V5.28613H21.4004Z" fill="#86868B"/>
<path d="M20.8878 3.79788C19.9984 2.57491 17.9971 1.77441 15.5512 1.77441C13.4388 1.77441 11.6599 2.37478 10.637 3.33093C10.0367 3.88683 9.70312 4.5539 9.70312 5.28769C9.70312 6.39948 10.4591 7.33339 11.7044 7.97823C12.7272 8.48966 14.0391 8.80096 15.5512 8.80096C17.041 8.80096 18.3751 8.48966 19.398 7.97823C20.6432 7.35563 21.3992 6.39948 21.3992 5.28769C21.3992 4.73179 21.2213 4.2426 20.8878 3.79788ZM15.5734 6.79973C13.1942 6.79973 11.7266 5.82135 11.7266 5.28769C11.7266 4.75403 13.1942 3.77565 15.5734 3.77565C17.9526 3.77565 19.4202 4.75403 19.4202 5.28769C19.398 5.82135 17.9526 6.79973 15.5734 6.79973Z" fill="#86868B"/>
<path d="M19.4007 5.28841C19.4007 5.82207 17.9553 6.80045 15.5538 6.80045C13.1524 6.80045 11.707 5.82207 11.707 5.28841C11.707 4.75475 13.1746 3.77637 15.5538 3.77637C17.9331 3.77637 19.4007 4.75475 19.4007 5.28841Z" fill="#9E9E9E"/>
<path d="M25.203 18.5859C17.4649 18.5859 11.3945 21.9436 11.3945 26.2351C11.3945 30.5266 17.4649 33.8842 25.203 33.8842C32.9411 33.8842 39.0115 30.5266 39.0115 26.2351C39.0115 21.9436 32.9634 18.5859 25.203 18.5859ZM35.7873 28.7033C33.8306 30.5711 29.7836 31.883 25.203 31.883C20.6224 31.883 16.5755 30.5711 14.6187 28.681C13.8405 27.9473 13.3958 27.1023 13.3958 26.2351C13.3958 23.1888 18.7991 20.5872 25.203 20.5872C31.5847 20.5872 37.0103 23.1665 37.0103 26.2351C37.0103 27.1023 36.5656 27.9473 35.7873 28.7033Z" fill="#86868B"/>
<path d="M25.1984 42.0002C19.6171 42.0002 15.8148 39.9323 14.7252 36.3523L12.5684 29.2813L14.4806 28.7031L16.6375 35.7741C17.438 38.4647 20.5511 39.999 25.1761 39.999V42.0002H25.1984Z" fill="#86868B"/>
<path d="M25.2051 42V39.9987C29.8301 39.9987 32.9432 38.4645 33.7437 35.7739L35.9005 28.6807L37.8128 29.2588L35.656 36.3298C34.5886 39.932 30.7863 42 25.2051 42Z" fill="#86868B"/>
<path d="M35.7877 28.7028C33.831 30.5706 29.784 31.8825 25.2034 31.8825C20.6228 31.8825 16.5759 30.5706 14.6191 28.6806C16.0422 26.7905 20.0002 25.1006 25.2034 25.1006C30.4289 25.1228 34.3869 26.7905 35.7877 28.7028Z" fill="#9E9E9E"/>
</svg>
