<svg width="80" height="28" viewBox="0 0 80 28" fill="none" xmlns="http://www.w3.org/2000/svg">
<path fill-rule="evenodd" clip-rule="evenodd" d="M8.31709 25.0762L6.18272 24.8587L5.97541 24.9675C5.10548 24.7504 4.46641 24.4311 4.05821 24.0099C3.13559 23.2523 2.67471 22.6864 2.67471 22.311C2.67471 22.2455 2.60232 21.9591 2.45712 21.4519V21.3534L2.56592 21.136C2.47383 21.136 2.26309 20.853 1.9337 20.2867V19.9704C1.9337 19.898 2.18042 19.684 2.67471 19.3283L2.56592 18.7954C3.81107 17.8738 4.6643 17.4127 5.12518 17.4127V17.5215C5.12518 17.8044 4.87504 18.3707 4.37432 19.22V19.3283C4.52595 19.3283 4.91787 19.434 5.55008 19.6446L7.35892 19.437V19.5457C7.83308 19.4734 8.29439 19.3647 8.74242 19.22L9.48343 19.3283C10.511 19.1643 11.7891 18.5253 13.3178 17.4127C13.7526 17.0506 14.1775 16.4843 14.5925 15.7142C14.948 15.3388 15.1258 14.9831 15.1258 14.6475C11.1796 13.7982 9.05167 13.2649 8.74242 13.0479C8.74242 13.1921 8.6696 13.2649 8.52483 13.2649C6.0281 12.6656 4.57521 12.0997 4.16658 11.5664C3.86375 11.5664 3.33006 11.2111 2.56592 10.4997C2.38131 10.48 1.99281 10.0189 1.39958 9.11704C1.22867 9.11704 1.05092 8.87048 0.866308 8.37608C0.582755 8.37608 0.441406 8.02079 0.441406 7.30979C0.441406 6.12494 0.793492 5.09418 1.49852 4.21881C1.92685 3.49454 2.42414 2.89227 2.99082 2.41156C3.32663 2.07597 3.54079 1.72325 3.63331 1.3547C4.71998 0.571357 5.35948 0.179688 5.55008 0.179688C7.15118 0.34406 8.32051 0.627005 9.05852 1.02852C10.6922 1.8979 11.5094 2.7142 11.5094 3.47785V4.32754H11.2918V4.43583L11.4006 4.65329L10.8669 4.75217C10.6361 4.75217 10.1058 4.46922 9.27569 3.90248C8.05024 4.40287 7.30623 4.75859 7.04238 4.96962C6.98327 5.30521 6.52196 5.72984 5.65888 6.24308C5.65888 6.36165 5.30337 6.71736 4.59191 7.30979C4.16358 7.95487 3.94942 8.34354 3.94942 8.47538C5.37233 9.11361 7.71443 9.75227 10.9753 10.3914C13.9273 11.1024 15.7353 11.8134 16.4009 12.5244C18.5353 13.5842 19.6027 14.3975 19.6027 14.9634H19.3851C19.3851 14.7789 18.9966 14.4271 18.2192 13.9065H18.0016V14.0054C18.3246 14.8748 18.8218 15.4441 19.4939 15.7142C19.4939 15.8062 19.6717 16.1256 20.0276 16.6718C19.8824 16.6919 19.81 16.7608 19.81 16.8794L19.9188 17.8374C19.9188 18.3776 19.4939 18.8018 18.6441 19.1117C18.6441 19.342 18.3246 19.6973 17.6855 20.178C17.6855 20.5337 17.1154 21.0307 15.976 21.6693C15.976 21.8071 15.5147 22.2322 14.5925 22.9432C14.3818 23.0288 14.276 23.1375 14.276 23.269H14.1676L13.9599 23.1607C13.9599 23.6739 13.2848 24.1713 11.9343 24.6516C11.9343 24.4345 11.8615 24.3258 11.7167 24.3258C11.4863 24.6481 11.0974 24.8622 10.5508 24.9675L9.90833 24.8587H9.70059C9.54254 24.8587 9.40119 24.8951 9.27569 24.9675L9.05852 24.8587C8.93302 24.9315 8.79168 24.9675 8.63362 24.9675L8.42588 24.8587L8.31709 25.0762ZM28.8623 23.9012H28.6447C27.9136 23.9012 27.4163 23.7959 27.1524 23.5853L26.7275 23.694C26.6157 23.694 26.4046 23.5523 26.0953 23.269L25.8777 23.3678C25.3838 23.2557 24.9225 22.8311 24.4942 22.0935L24.277 22.2022H24.0693C22.5804 20.978 21.836 20.1617 21.836 19.7533C20.6303 17.2646 20.0276 14.4271 20.0276 11.2406C19.9749 11.2406 19.8661 10.2133 19.7012 8.15948H19.81C19.6652 7.79692 19.5928 7.55036 19.5928 7.41852C19.6455 6.99046 19.7179 6.77644 19.81 6.77644L19.1679 3.6953C19.2994 3.6953 19.4082 3.37597 19.4939 2.73731C19.777 2.73731 19.9188 2.66497 19.9188 2.52029V2.41156H20.0276L20.3437 2.62902C20.4953 2.62902 20.7061 2.41499 20.9763 1.98693C21.0552 1.98693 21.1639 1.95055 21.3023 1.87821V2.09566L21.836 1.98693C21.836 2.20439 21.869 2.31268 21.9349 2.31268C22.0335 2.24034 22.2116 2.20439 22.4682 2.20439C22.4682 2.36833 22.6824 2.47363 23.1107 2.52029V2.62902L23.0023 2.83619C23.1471 2.83619 23.2195 2.90854 23.2195 3.05322H23.3184C23.3908 3.05322 23.6774 2.98088 24.1781 2.83619H24.4942V3.58657L24.277 3.90248L24.603 4.11993L24.277 5.71015C24.3032 5.85484 24.3756 5.92718 24.4942 5.92718C24.4218 6.75675 24.3858 7.35945 24.3858 7.73442V7.84315L24.4942 8.89959H24.3858L24.4942 9.11704V9.22577C24.4942 10.3648 24.5996 12.4191 24.8103 15.388H24.7019C24.7743 15.5528 24.9191 16.1222 25.1367 17.0968L25.0279 17.6302C25.1663 17.8605 25.2352 18.0711 25.2352 18.262L25.1367 18.4794C25.4858 18.4794 25.6605 18.8347 25.6605 19.5457C25.7788 19.5457 25.924 19.7563 26.0953 20.178C26.4444 20.178 27.2942 19.3283 28.6447 17.6302C29.4286 16.3066 30.2094 14.035 30.9868 10.816V9.32422L30.878 8.58368H30.9868L30.878 8.37608C30.878 8.21213 30.9144 8.06702 30.9868 7.94203C30.7761 5.16353 30.6707 3.49797 30.6707 2.94492C30.9273 2.60248 31.2472 2.3191 31.6293 2.09566V1.77933H31.8366V1.98693H32.1527C32.5155 1.49296 32.8346 1.24597 33.1113 1.24597L33.2201 1.45358L33.4377 1.3547H33.645V1.6706H33.7538L34.2875 1.5623L34.9296 1.98693V2.31268H35.3545V2.09566C35.4933 2.168 35.5986 2.20439 35.671 2.20439C35.8094 2.13162 35.9147 2.09566 35.9871 2.09566C36.4878 2.55625 36.738 3.12256 36.738 3.79375C36.6656 3.79375 36.6292 3.83014 36.6292 3.90248C36.768 3.92902 36.8369 4.00136 36.8369 4.11993C36.6262 4.28473 36.5208 4.53129 36.5208 4.86089H36.412L36.2047 4.21881C36.0595 4.24492 35.9871 4.31726 35.9871 4.43583V5.92718C35.9871 6.59879 35.9507 7.41509 35.8783 8.37608L35.9871 8.89959C35.5459 11.7701 35.121 13.6865 34.7124 14.6475C34.6396 14.6475 34.6036 14.6839 34.6036 14.7562V15.7142L34.7124 16.7711C34.4289 16.7711 34.2875 17.0575 34.2875 17.6302H34.1787C34.1787 17.8605 34.3205 18.6404 34.6036 19.9704H34.4948L34.6036 20.178V20.7113C34.6036 20.8693 34.5676 21.011 34.4948 21.136C34.5676 21.2742 34.6036 21.3795 34.6036 21.4519C34.4456 21.4519 34.2678 21.0996 34.0699 20.3954H33.971C33.971 20.4609 33.935 20.4939 33.8626 20.4939C34.001 21.2447 34.1787 21.9916 34.3963 22.7356C34.3235 22.8743 34.2875 22.9796 34.2875 23.0519C34.1753 23.0519 33.9281 22.3075 33.5461 20.8201H33.4377L33.3289 21.0272V21.136H33.5461V21.7776H33.7538C33.7538 21.8504 33.7174 21.8863 33.645 21.8863L33.7538 22.0935V22.4098L33.5461 22.311C33.5461 22.3769 33.5101 22.4098 33.4377 22.4098C33.2201 21.9882 32.97 21.2083 32.6864 20.0692H32.4791C32.3802 20.0692 32.2388 20.3886 32.0542 21.0272C31.9159 21.0272 31.5599 21.4189 30.9868 22.2022L31.0956 22.4098C30.9046 22.6466 30.4073 22.8606 29.6033 23.0519C29.109 23.4603 28.8623 23.7432 28.8623 23.9012ZM35.1373 25.6096H34.8212C34.7484 25.0895 34.676 24.7701 34.6036 24.6516C34.676 24.5334 34.7124 24.3558 34.7124 24.1186H34.9296V24.5428L34.8212 24.7504C34.9596 24.8228 35.0649 24.8587 35.1373 24.8587V24.9675L34.9296 25.2838C35.0679 25.3099 35.1373 25.3827 35.1373 25.5008V25.6096ZM60.0798 27.8209L59.6549 27.6137C59.5165 27.6796 59.4077 27.7126 59.3289 27.7126L58.9036 27.6137C58.7656 27.6796 58.6603 27.7126 58.5875 27.7126C58.5875 27.5285 58.3373 27.3868 57.8366 27.288C57.6786 26.8727 57.395 26.5209 56.9864 26.2311C56.5649 25.4674 56.2454 24.4042 56.0282 23.0412L56.1366 22.8238C56.0642 22.6855 56.0282 22.5802 56.0282 22.5079H56.1366C56.0115 22.2776 55.8697 21.2836 55.7117 19.5252H55.8205C55.689 19.0976 55.333 15.766 54.7531 9.5314C54.6807 9.5314 54.5753 8.96208 54.437 7.82303C54.437 7.75069 54.4734 7.64496 54.5458 7.5067C54.5458 6.76959 54.1174 5.95286 53.2612 5.0578C53.2612 5.01114 53.0834 4.51417 52.7275 3.56603C52.8067 3.25012 53.0569 3.00356 53.4784 2.82592H53.5872V3.0331C54.0879 2.89484 54.371 2.82592 54.437 2.82592H54.5458V3.46757H54.7531L54.6447 3.67475V3.78348C54.7895 3.78348 54.8619 3.81986 54.8619 3.8922L55.7117 3.35885H55.8205V3.46757C55.7481 3.59899 55.7117 3.70429 55.7117 3.78348C55.7845 3.78348 55.8205 3.81986 55.8205 3.8922C55.9588 3.81986 56.0642 3.78348 56.1366 3.78348C56.7559 3.82329 57.395 4.38918 58.0538 5.48243C58.0538 5.94986 58.3009 6.66086 58.7952 7.61542C59.2955 12.1648 59.5461 14.6471 59.5461 15.0619H59.6549C61.2688 14.8444 62.4745 14.7357 63.2717 14.7357H63.6966C64.3356 14.7357 64.6552 14.3474 64.6552 13.5705H64.764L64.6552 13.3531V13.2546C65.0107 13.2546 65.3666 11.1242 65.7226 6.86462C65.5774 6.86462 65.505 6.7957 65.505 6.65744V6.01536C65.887 6.01536 66.1706 5.91005 66.3548 5.69945H66.5724L66.6713 6.23281C66.6049 6.23281 66.5724 6.26577 66.5724 6.33126L66.7797 6.43999C66.7797 6.36764 66.8161 6.33126 66.8885 6.33126L66.7797 6.12408V6.01536C67.2474 6.01536 67.531 5.80176 67.6295 5.3737H67.8471C67.8471 5.45246 67.8835 5.56119 67.9559 5.69945L68.1632 5.59115H68.272C68.272 5.82787 68.308 6.00551 68.3808 6.12408L68.5881 6.01536C68.7333 6.03547 68.8057 6.10782 68.8057 6.23281V6.33126H68.5881V6.43999H68.9145L69.013 6.23281C68.9474 6.09412 68.9145 5.98625 68.9145 5.90706H69.1218C69.5501 6.28203 69.7643 6.60136 69.7643 6.86462H70.0804L70.2975 6.75589L70.1892 6.54871C70.2089 6.40403 70.2783 6.33126 70.3965 6.33126C70.9238 6.33126 71.2103 6.43999 71.2566 6.65744V6.86462C71.2566 7.00973 71.1478 7.08207 70.9302 7.08207C71.2137 7.81961 71.3551 8.28019 71.3551 8.46468C71.006 9.87384 70.8317 11.6447 70.8317 13.7781L71.039 13.8869C71.039 13.8141 71.075 13.7781 71.1478 13.7781C71.1478 13.9228 71.1838 13.9947 71.2566 13.9947L71.681 13.7781V13.8869C71.681 14.0975 71.3979 14.2387 70.8317 14.3111V14.9531H71.5727L72.9562 14.6368C72.9562 14.7032 72.9926 14.7357 73.0645 14.7357C73.0645 14.5978 73.3481 14.4925 73.9148 14.4198V14.5285C73.9148 14.6205 73.4535 14.8675 72.5313 15.269C72.5313 15.552 71.8922 15.8713 70.6141 16.227V16.444L71.1478 16.3358C71.2202 16.3358 71.2566 16.3717 71.2566 16.444C71.3949 16.3717 71.5003 16.3358 71.5727 16.3358H71.7898V16.444C70.9336 16.5494 70.5053 16.691 70.5053 16.8687C70.5053 17.0797 70.4689 17.185 70.3965 17.185L70.5053 17.402C70.3669 18.0013 70.2975 18.3536 70.2975 18.4589L70.3965 19.101C70.3965 19.7529 70.1857 21.3821 69.7643 23.9894H69.5467V23.7822H69.4482V25.1644H69.1218L68.6969 24.8485C68.6969 24.967 68.5191 25.2864 68.1632 25.8065C68.1632 26.5637 67.9524 26.9883 67.531 27.0808C67.531 27.2914 67.175 27.3967 66.4636 27.3967H66.3548C66.3548 27.1861 66.2494 27.0808 66.0387 27.0808H65.9299V26.2311C65.9299 26.0667 65.8939 25.925 65.8211 25.8065C65.8211 25.7341 65.8575 25.6977 65.9299 25.6977C65.9299 25.5531 65.8939 25.4803 65.8211 25.4803C65.986 22.7874 66.1278 21.4416 66.2464 21.4416L66.1475 21.2241C66.2858 20.7366 66.3548 20.3124 66.3548 19.9502V19.101L66.4636 18.5676C66.2922 18.4294 66.1505 18.3604 66.0387 18.3604C64.991 18.5711 64.2795 18.7453 63.9039 18.8835V19.5252C63.7197 19.5252 63.4726 19.9169 63.1629 20.7006L62.2043 22.8238C62.0659 22.8961 61.9606 22.9325 61.8882 22.9325V23.7822C61.8882 23.953 61.7104 24.2723 61.3545 24.7397C61.3545 25.161 61.2821 25.372 61.1373 25.372L61.2457 25.589C60.679 26.1947 60.3959 26.5504 60.3959 26.6561V27.1891L60.5047 27.3967C60.2674 27.3967 60.1256 27.5379 60.0798 27.8209ZM65.1889 13.7807C65.5247 12.708 65.7718 12.1382 65.9299 12.0723C65.8575 11.7894 65.7521 11.5424 65.6138 11.3318L65.8211 11.0159H65.7226C65.6039 11.0159 65.4587 11.2629 65.2874 11.7564L65.3962 12.2898C65.3632 12.5727 65.2578 12.7144 65.0801 12.7144V12.8227L65.1889 13.0307H64.9713V13.5637C64.9978 13.7088 65.0702 13.7807 65.1889 13.7807ZM67.8471 22.5014C68.0184 22.5014 68.1238 22.1453 68.1632 21.4343C68.0972 21.2965 68.0647 21.1912 68.0647 21.1184H68.272V20.6942C68.272 20.5491 68.2026 20.4768 68.0647 20.4768L68.1632 19.9434V18.8865C68.1632 18.8142 68.1996 18.7778 68.272 18.7778L68.1632 18.5608C68.1632 18.4884 68.1996 18.3827 68.272 18.2449L68.0647 17.2869C68.1302 17.2869 68.1632 17.2505 68.1632 17.1782H67.9559V17.929C67.9559 18.0869 67.9195 18.2282 67.8471 18.3532C67.8471 18.4259 67.8835 18.4619 67.9559 18.4619L67.8471 18.9854V19.2024L67.9559 19.9434H67.8471L67.9559 20.1608V20.368C67.9559 20.5127 67.8835 20.5855 67.7383 20.5855C67.8835 20.8158 67.9559 21.0298 67.9559 21.2271V21.7506L67.8471 22.5014ZM67.1056 23.4594C67.2444 22.9261 67.3134 22.6068 67.3134 22.5014C67.3134 22.4291 67.277 22.3927 67.2046 22.3927L67.3134 21.8594V20.6942L67.2046 19.41H67.3134L67.2046 19.2024V18.4619C67.2046 18.3896 67.241 18.3532 67.3134 18.3532C67.241 18.2611 67.2046 18.0107 67.2046 17.6028C67.0662 17.6293 66.9973 17.7017 66.9973 17.8202V18.5608C66.9973 18.9691 66.9609 19.2196 66.8885 19.3112C66.9609 19.6934 66.9973 20.0123 66.9973 20.2696V23.4594H67.1056ZM62.3131 20.7927C62.3131 20.5624 62.5602 20.0684 63.0541 19.3112L63.5878 18.2449V18.0274H63.4794C63.0708 18.482 62.7512 19.0513 62.5208 19.7362C62.4745 19.7362 62.3328 19.9139 62.0959 20.2696V20.7927H62.3131ZM59.8622 22.5014C60.2841 22.04 61.0645 20.8684 62.2043 18.9854C62.2043 18.9195 62.2407 18.8865 62.3131 18.8865V19.2024H62.5208C62.5208 18.9062 62.5932 18.5509 62.738 18.1361H62.6292V18.2449C62.5568 18.2449 62.5208 18.2085 62.5208 18.1361C61.3545 18.5638 60.6824 18.7778 60.5047 18.7778C60.0236 18.5672 59.7405 18.4619 59.6549 18.4619V18.7778C59.6549 18.9358 59.6878 19.0774 59.7534 19.2024C59.7534 19.2748 59.7208 19.3112 59.6549 19.3112C59.7208 19.6339 59.7898 20.6972 59.8622 22.5014ZM76.6651 27.0945H76.0329C76.0329 26.9562 75.8187 26.8145 75.3904 26.6698C74.323 25.5372 73.7897 22.5943 73.7897 17.8408C73.7237 17.8408 73.6908 17.6995 73.6908 17.4162C73.6908 17.3438 73.7237 17.3074 73.7897 17.3074L73.6908 16.7745V15.8161C73.6908 15.7506 73.7237 15.7176 73.7897 15.7176C73.7237 15.5794 73.6908 15.4707 73.6908 15.3915L73.7897 12.8437H73.8981C73.8981 12.7713 73.8621 12.735 73.7897 12.735C73.8818 11.774 73.9542 11.2077 74.0069 11.0364C74.0069 10.9637 73.9709 10.9277 73.8981 10.9277C73.8981 10.8554 73.9345 10.7496 74.0069 10.6118C74.0797 8.82125 74.1157 7.40225 74.1157 6.35523C74.1157 5.19649 73.9739 3.70514 73.6908 1.88163C74.0005 1.31532 74.32 1.03194 74.6494 1.03194C75.058 1.03194 75.3047 1.21001 75.3904 1.5653C75.9108 1.6843 76.3721 2.03958 76.7739 2.63244C76.7739 2.82292 76.8467 3.03353 76.9915 3.26425L77.1988 3.16537H77.3076C77.4459 4.1332 77.5153 4.66356 77.5153 4.75559H77.7325V4.54798C78.0353 4.54798 78.2135 5.04153 78.2662 6.02948C78.3651 6.02948 78.5069 6.52645 78.6911 7.5204C78.7635 7.5204 78.7999 7.55678 78.7999 7.62912C78.7999 7.70146 78.7635 7.73785 78.6911 7.73785L79.0072 9.96972C78.9348 10.352 78.8988 10.6709 78.8988 10.9277V12.0929C78.8988 12.2577 78.8654 12.4028 78.7999 12.5278C78.8654 12.6592 78.8988 12.7645 78.8988 12.8437C78.6418 15.4638 78.4311 16.7745 78.2662 16.7745L78.375 17.5249V19.4404C78.375 19.5984 78.3386 19.7401 78.2662 19.8651C78.3386 19.9905 78.375 20.1317 78.375 20.2901V20.3984C78.375 20.5371 78.3022 20.606 78.1574 20.606C78.1574 20.5337 78.1214 20.4973 78.0486 20.4973V20.606L78.2662 20.9219V21.1394L77.8413 24.5467L77.3076 25.3955C77.0707 25.3955 76.8565 25.5008 76.6651 25.7119C76.6651 25.7842 76.7015 25.8202 76.7739 25.8202L76.6651 26.8873V27.0945ZM42.323 5.26326C43.309 4.89685 44.2346 4.59036 45.1002 4.34423H45.1949V4.52401C44.8852 4.54156 44.7306 4.60449 44.7306 4.71364C44.1746 4.74789 43.8962 4.87117 43.8962 5.08305H43.6212C43.4148 5.08305 43.2002 5.17466 42.9766 5.35786H42.323V5.26326ZM52.904 19.315H52.9982C52.9982 19.1832 52.9065 18.997 52.7232 18.7564V18.4816L52.8093 18.2924L52.2589 17.3648C51.2386 16.3332 50.0637 15.4082 48.7338 14.5893C47.4445 13.8274 46.7964 13.3946 46.7909 13.2919C46.2807 13.074 44.9221 12.2436 42.7153 10.8001C41.5061 10.1183 40.6748 9.40812 40.222 8.66887C40.2507 8.42273 40.3424 8.29945 40.497 8.29945C40.497 7.88724 42.3859 7.21947 43.9913 6.5607C44.9195 6.30857 45.3838 6.09369 45.3838 5.91605C46.9832 5.38355 47.8771 5.04282 48.0664 4.89385C48.995 4.68753 49.4594 4.533 49.4594 4.42984C49.5968 4.42984 49.7202 4.64772 49.829 5.08305L49.7343 5.26326C49.7343 5.38954 49.826 5.45204 50.0093 5.45204V5.54664C49.826 5.54664 49.7343 5.63867 49.7343 5.82187C49.7973 6.13093 49.9836 6.53202 50.2933 7.02471H50.5683L50.4736 6.83594H50.749C51.0185 6.03376 51.2361 5.63267 51.4022 5.63267V5.45204C51.4022 5.14854 51.4939 4.83949 51.6772 4.52401C51.6143 4.41572 51.583 4.29201 51.583 4.15503C51.5543 3.94314 51.0613 3.54206 50.104 2.9522L48.5307 2.48819H48.4361C48.012 2.48819 47.5507 2.58236 47.0521 2.77156C45.3148 3.13797 44.2033 3.50738 43.7159 3.88022L43.527 3.78562H43.3462C43.031 4.03175 42.6296 4.18628 42.1426 4.24963L38.901 5.72727C37.5655 6.41473 36.8232 7.1253 36.6742 7.85813C36.6742 7.94973 36.8288 8.35082 37.1385 9.06096L37.0438 9.25016C37.0438 9.30196 37.1672 9.57677 37.4139 10.075C37.4139 10.2411 37.5685 10.4273 37.8782 10.6336C37.8782 10.8113 38.1558 11.1807 38.7117 11.7419C39.4056 12.1601 39.9299 12.5612 40.2854 12.9447C40.9043 13.0534 41.214 13.2084 41.214 13.4087C42.4292 14.0735 43.1081 14.5058 43.2516 14.7066C44.8163 15.5712 46.4212 16.5879 48.0664 17.7569C49.1154 18.295 49.6401 18.6674 49.6401 18.8737C49.0036 19.3831 47.1207 19.7846 43.9913 20.0765C43.9913 20.0136 43.9596 19.9819 43.8962 19.9819C43.7874 20.0448 43.6641 20.0765 43.527 20.0765H39.9158C38.9297 20.0765 38.4367 20.4459 38.4367 21.1848V21.46C38.6719 21.46 38.8265 21.6779 38.901 22.1128L39.4514 22.4826C39.7153 22.6654 39.9012 22.7574 40.0104 22.7574C40.3599 23.0036 40.6062 23.1264 40.7497 23.1264C40.7497 23.4419 41.3374 23.6598 42.5123 23.78V23.8657L42.4176 24.0544C42.9218 24.0544 43.2314 24.1148 43.3462 24.2351H43.6212L44.1802 24.149L44.3605 24.2351C45.2493 24.1606 46.0199 24.0694 46.6735 23.9603C46.6735 24.0232 46.7052 24.0544 46.7682 24.0544C47.9893 23.9059 49.2242 23.5964 50.4736 23.1264C50.8694 23.0352 51.2104 22.6341 51.4969 21.924H52.1415L52.3309 21.2794V20.996C52.3309 20.8526 53.0933 19.7217 52.904 19.315Z" fill="#1D1D1F"/>
</svg>
