<svg width="24" height="25" viewBox="0 0 24 25" fill="none" xmlns="http://www.w3.org/2000/svg">
<path fill-rule="evenodd" clip-rule="evenodd" d="M21.401 12.9999C21.8166 12.9999 22.1536 12.6629 22.1536 12.2473C22.1536 6.84371 17.9349 2.625 12.5313 2.625C12.1157 2.625 11.7787 2.96196 11.7787 3.37761C11.7787 3.79327 12.1157 4.13023 12.5313 4.13023C17.1035 4.13023 20.6483 7.67503 20.6483 12.2473C20.6483 12.6629 20.9853 12.9999 21.401 12.9999ZM9.87018 10.296C10.7519 9.41422 10.7519 7.98463 9.87018 7.10289L7.74147 4.97417C6.85972 4.09242 5.43014 4.09243 4.54839 4.97417L2.50702 7.01555C2.06146 7.46111 1.82236 8.07258 1.8475 8.7022C1.97482 11.8884 3.59902 15.0232 6.67711 18.1012C9.75518 21.1793 12.8899 22.8035 16.0761 22.9309C16.7057 22.956 17.3172 22.7169 17.7628 22.2713L19.8042 20.23C20.6859 19.3482 20.6859 17.9186 19.8042 17.0369L17.6755 14.9082C16.7937 14.0264 15.3641 14.0264 14.4824 14.9082L13.3349 16.0557C13.2454 16.1452 13.1033 16.154 13.0035 16.0763L12.1062 15.3785C11.0953 14.5922 10.1862 13.6831 9.3999 12.6722L8.70201 11.7749C8.62434 11.675 8.63318 11.533 8.72265 11.4435L9.87018 10.296ZM3.57145 8.07979L5.61282 6.03841C5.90674 5.74449 6.38327 5.74449 6.67718 6.03841L8.80589 8.16713C9.09981 8.46104 9.09981 8.93757 8.80589 9.23148L7.65836 10.379C7.03212 11.0053 6.9702 11.9998 7.51393 12.6989L8.21181 13.5962C9.0748 14.7057 10.0726 15.7035 11.1821 16.5665L12.0794 17.2644C12.7785 17.8081 13.773 17.7462 14.3993 17.1199L15.5468 15.9724C15.8407 15.6785 16.3173 15.6785 16.6112 15.9724L18.7399 18.1011C19.0338 18.395 19.0338 18.8716 18.7399 19.1655L16.6985 21.2069C16.55 21.3554 16.3461 21.4351 16.1363 21.4267C13.3684 21.3161 10.5719 19.8671 7.74154 17.0368C4.91117 14.2064 3.4622 11.4099 3.3516 8.642C3.34322 8.43214 3.42293 8.22831 3.57145 8.07979ZM18.9602 12.6021C18.9602 13.0177 18.6233 13.3547 18.2076 13.3547C17.792 13.3547 17.455 13.0177 17.455 12.6021C17.455 9.96957 14.8087 7.32332 12.1763 7.32332C11.7606 7.32332 11.4236 6.98636 11.4236 6.5707C11.4236 6.15505 11.7606 5.81809 12.1763 5.81809C15.6401 5.81809 18.9602 9.13825 18.9602 12.6021Z" fill="#FF6633"/>
</svg>
